<?xml version="1.0" standalone="no"?>
<!DOCTYPE svg PUBLIC "-//W3C//DTD SVG 1.1//EN" "http://www.w3.org/Graphics/SVG/1.1/DTD/svg11.dtd" >
<svg xmlns="http://www.w3.org/2000/svg" xmlns:xlink="http://www.w3.org/1999/xlink" version="1.1">
<metadata>
Created by FontForge 20161013 at Fri Aug  5 18:37:58 2016
 By ,,,
2016 published by Monotype GmbH
</metadata>
<defs>
<font id="MarkPro-Light" horiz-adv-x="1" >
  <font-face 
    font-family="Mark Pro Light"
    font-weight="350"
    font-stretch="normal"
    units-per-em="2000"
    panose-1="2 11 5 4 2 2 1 1 1 4"
    ascent="1580"
    descent="-420"
    x-height="941"
    cap-height="1400"
    bbox="-1343 -478 3117 2203"
    underline-thickness="103"
    underline-position="-362"
    unicode-range="U+0020-FEFF"
  />
<missing-glyph horiz-adv-x="1198" 
d="M182 1400h834v-1400h-834v1400zM913 103v1194h-628v-1194h628z" />
    <glyph glyph-name=".notdef" horiz-adv-x="1198" 
d="M182 1400h834v-1400h-834v1400zM913 103v1194h-628v-1194h628z" />
    <glyph glyph-name=".null" horiz-adv-x="0" 
 />
    <glyph glyph-name="nonmarkingreturn" horiz-adv-x="530" 
 />
    <glyph glyph-name="space" unicode=" " horiz-adv-x="530" 
 />
    <glyph glyph-name="exclam" unicode="!" horiz-adv-x="520" 
d="M311 435h-103l-18 965h139zM260 178q19 0 36.5 -7.5t30.5 -20.5t21 -30.5t8 -36.5q0 -20 -8 -37.5t-21 -30.5t-30.5 -21t-36.5 -8t-36.5 8t-30.5 21t-21 30.5t-8 37.5q0 19 8 36.5t21 30.5t30.5 20.5t36.5 7.5z" />
    <glyph glyph-name="quotedbl" unicode="&#x22;" horiz-adv-x="1013" 
d="M407 1440v-484h-114v484h114zM719 1440v-484h-114v484h114z" />
    <glyph glyph-name="numbersign" unicode="#" horiz-adv-x="1456" 
d="M495 1025l80 375h107l-80 -375h390l80 375h107l-80 -375h231l-22 -102h-231l-93 -440h230l-21 -101h-231l-81 -382h-107l81 382h-390l-81 -382h-107l81 382h-233l22 101h233l93 440h-233l21 102h234zM487 483h390l93 440h-390z" />
    <glyph glyph-name="dollar" unicode="$" horiz-adv-x="1400" 
d="M762 1585v-191q138 -8 249.5 -49t193.5 -98l-60 -96q-72 50 -170 86.5t-213 44.5v-528l54 -6q91 -11 167 -37.5t131 -69.5t85 -103.5t29 -139.5q-1 -92 -37.5 -162t-99.5 -119t-147.5 -76.5t-181.5 -34.5v-196h-105v195q-68 3 -136 17.5t-131 36t-118.5 50t-96.5 60.5
l63 94q33 -26 80 -50.5t102 -44.5t115.5 -34t121.5 -18l-1 536l-45 5q-95 10 -169.5 38.5t-126 73t-78.5 105t-26 135.5q1 86 35 154.5t94 117.5t141 77.5t175 34.5v192h106zM762 640v-523q75 6 138.5 26t109.5 54t72.5 82.5t26.5 112.5q1 104 -87 166t-258 82h-2zM330 1012
q0 -48 18 -88.5t57.5 -72t101.5 -53.5t149 -32v516q-72 -6 -131.5 -26.5t-102.5 -55t-67.5 -82t-24.5 -106.5z" />
    <glyph glyph-name="percent" unicode="%" horiz-adv-x="1912" 
d="M456 1415q76 0 141.5 -27t113.5 -74t75.5 -112t27.5 -140q0 -76 -27.5 -140.5t-75.5 -112t-113.5 -74.5t-141.5 -27q-75 0 -140 27t-113 74.5t-75 112t-27 140.5q0 75 27 140t75 112t113 74t140 27zM456 1315q-53 0 -98.5 -19t-78.5 -52.5t-52 -80t-19 -101.5t19 -101.5
t52 -80t78.5 -52.5t98.5 -19q54 0 100 19t79.5 52.5t52.5 80t19 101.5t-19 101.5t-52.5 80t-79.5 52.5t-100 19zM575 0h-120l883 1400h120zM1453 692q76 0 142 -27t114 -74.5t75.5 -112.5t27.5 -140q0 -76 -27.5 -140.5t-75.5 -112t-114 -74t-142 -26.5q-75 0 -140 26.5
t-112.5 74t-74.5 112t-27 140.5q0 75 27 140t74.5 112.5t112.5 74.5t140 27zM1453 591q-53 0 -98 -19t-78 -52.5t-52 -80t-19 -101.5t19 -101.5t52 -80t78 -52.5t98 -19q54 0 100 19t80 52.5t53 80t19 101.5t-19 101.5t-53 80t-80 52.5t-100 19z" />
    <glyph glyph-name="ampersand" unicode="&#x26;" horiz-adv-x="1379" 
d="M1174 0l-238 232q-39 -51 -83.5 -96t-97.5 -78.5t-115.5 -53t-137.5 -19.5q-88 0 -159 23.5t-121.5 68t-78 107t-27.5 140.5q0 71 24.5 131t65 111t92.5 96t108 86q-54 53 -94.5 98t-66.5 87.5t-39 85.5t-13 94q0 62 24.5 117t68.5 96t104.5 65t133.5 24q72 0 133 -22.5
t104.5 -62t68 -93t24.5 -116.5q0 -61 -23 -113t-61.5 -98t-88 -87t-102.5 -80l346 -338l230 339l92 -58l-242 -359l334 -327h-165zM508 92q58 0 106 15.5t89.5 44t79 68.5t74.5 89l-374 364q-49 -37 -93.5 -75t-78 -80t-53.5 -89.5t-20 -101.5q0 -52 20 -95.5t55.5 -74.5
t85 -48t109.5 -17zM315 1106q0 -35 10 -66t32 -63.5t58 -71t87 -88.5q47 34 89 68.5t74 71t50.5 76t18.5 83.5q0 41 -15 76t-42.5 61t-66.5 40.5t-86 14.5t-85 -15.5t-66 -42.5t-43 -64t-15 -80z" />
    <glyph glyph-name="quotesingle" unicode="'" horiz-adv-x="701" 
d="M407 1440v-484h-114v484h114z" />
    <glyph glyph-name="parenleft" unicode="(" horiz-adv-x="799" 
d="M715 1319q-100 -38 -181.5 -111.5t-139.5 -172.5t-90 -218t-32 -249q0 -129 32 -248.5t90 -218t139.5 -172t181.5 -111.5l-39 -105q-116 42 -212.5 124.5t-166 194.5t-108 248.5t-38.5 287.5t38.5 287.5t108 249t166 195t212.5 124.5z" />
    <glyph glyph-name="parenright" unicode=")" horiz-adv-x="799" 
d="M84 -181q100 38 181.5 111.5t139.5 172.5t90 218t32 249q0 129 -32 248.5t-90 218t-139.5 172t-181.5 111.5l39 105q116 -42 212.5 -124.5t166 -194.5t108 -248.5t38.5 -287.5t-38.5 -287.5t-108 -249t-166 -195t-212.5 -124.5z" />
    <glyph glyph-name="asterisk" unicode="*" horiz-adv-x="866" 
d="M390 1168v272h88v-271l256 84l27 -84l-257 -84l160 -219l-71 -51l-160 218l-159 -218l-71 51l159 219l-257 84l27 84z" />
    <glyph glyph-name="plus" unicode="+" horiz-adv-x="1200" 
d="M545 103v372h-371v103h371v377h105v-377h376v-103h-376v-372h-105z" />
    <glyph glyph-name="comma" unicode="," horiz-adv-x="488" 
d="M338 234l-96 -483h-99l62 483h133z" />
    <glyph glyph-name="hyphen" unicode="-" horiz-adv-x="835" 
d="M689 475h-542v103h542v-103z" />
    <glyph glyph-name="period" unicode="." horiz-adv-x="520" 
d="M260 177q19 0 36.5 -7.5t30.5 -21t21 -31t8 -36.5t-8 -36.5t-21 -30.5t-30.5 -21t-36.5 -8t-36.5 8t-30.5 21t-21 30.5t-8 36.5t8 36.5t21 31t30.5 21t36.5 7.5z" />
    <glyph glyph-name="slash" unicode="/" horiz-adv-x="984" 
d="M129 -200h-125l849 1740h125z" />
    <glyph glyph-name="zero" unicode="0" horiz-adv-x="1417" 
d="M709 1415q118 0 222 -49t181.5 -141t122.5 -224.5t45 -300.5q0 -167 -45 -300t-122.5 -225t-181.5 -141t-222 -49t-222 49t-182 141t-123 225t-45 300q0 168 45 300.5t123 224.5t182 141t222 49zM709 1302q-93 0 -174.5 -40t-142.5 -116.5t-96.5 -189t-35.5 -256.5
t35.5 -256t96.5 -189t142.5 -117t174.5 -40t174.5 40t142 117t96 189t35.5 256t-35.5 256.5t-96 189t-142 116.5t-174.5 40z" />
    <glyph glyph-name="one" unicode="1" horiz-adv-x="855" 
d="M635 0h-118v1243l-448 -194v123l566 242v-1414z" />
    <glyph glyph-name="two" unicode="2" horiz-adv-x="1091" 
d="M89 1184q25 38 61 79t86 74.5t117 55.5t153 22q105 0 187 -33t137.5 -90t84.5 -134.5t29 -166.5q0 -65 -16.5 -121t-43 -105t-60.5 -91.5t-69 -79.5l-458 -482h698v-112h-872v92l542 570q34 35 62.5 72.5t49.5 78t32.5 85t11.5 93.5q0 65 -20.5 122t-61 99t-100 66.5
t-136.5 24.5q-64 0 -114 -15.5t-89.5 -41.5t-70 -60t-55.5 -71z" />
    <glyph glyph-name="three" unicode="3" horiz-adv-x="1097" 
d="M494 1415q102 0 185.5 -27.5t143.5 -77t93 -118.5t33 -151q0 -65 -17 -118t-48.5 -95t-75.5 -72t-98 -49q59 -19 108.5 -50t85.5 -73t56 -95.5t20 -116.5q0 -98 -40 -171t-106 -121t-151 -71.5t-176 -23.5q-142 0 -252 46.5t-186 128.5l75 79q68 -68 159.5 -106
t200.5 -38q70 0 134 17t112.5 52t77.5 88t29 125q0 65 -28.5 116.5t-77 87t-114 54t-139.5 18.5h-193v108h193q69 0 129 17.5t104 52t69.5 86t25.5 119.5q0 60 -25.5 110t-71 85t-107.5 54.5t-135 19.5q-54 0 -102 -13t-88.5 -35t-74 -52t-58.5 -64l-86 72q31 43 72.5 80
t93.5 64t114.5 42.5t135.5 15.5z" />
    <glyph glyph-name="four" unicode="4" horiz-adv-x="1152" 
d="M844 418h253v-111h-253v-307h-117v307h-672v91l523 1001h133l-515 -981h531v399h117v-399z" />
    <glyph glyph-name="five" unicode="5" horiz-adv-x="1151" 
d="M967 1289h-636l-17 -458h219q124 0 217 -32t154.5 -87t92 -129.5t30.5 -159.5q0 -104 -36.5 -185.5t-100 -137.5t-149.5 -85.5t-185 -29.5q-292 0 -467 214l79 77q72 -88 172.5 -133.5t214.5 -45.5q83 0 148 24t110 66.5t68.5 100.5t23.5 125q0 65 -23 121t-72 97
t-126.5 64.5t-185.5 23.5h-295l20 681h744v-111z" />
    <glyph glyph-name="six" unicode="6" horiz-adv-x="1150" 
d="M391 847q44 19 92 29t99 10q103 0 191 -34t152 -94.5t100 -143t36 -179.5q0 -96 -37 -178.5t-102 -143t-154.5 -94.5t-195.5 -34t-195.5 34t-155 94.5t-102.5 143t-37 178.5q0 76 23.5 144.5t67.5 139.5l424 681h144zM572 777q-80 0 -147.5 -25.5t-117 -71t-77 -108.5
t-27.5 -137t27.5 -136.5t77 -108t117 -71t147.5 -25.5q79 0 146.5 25.5t117 71t77 108t27.5 136.5t-27.5 137t-77 108.5t-117 71t-146.5 25.5z" />
    <glyph glyph-name="seven" unicode="7" horiz-adv-x="1094" 
d="M1025 1308l-648 -1308h-137l644 1289h-802v111h943v-92z" />
    <glyph glyph-name="eight" unicode="8" horiz-adv-x="1256" 
d="M627 1415q98 0 185 -25t152 -72.5t103 -117t38 -159.5q0 -65 -18 -117t-50 -93t-75.5 -71.5t-93.5 -50.5q57 -20 106.5 -50.5t86 -72.5t57.5 -96t21 -121q0 -93 -40.5 -164.5t-110 -120t-163 -74t-198.5 -25.5t-198 25.5t-162.5 74t-110 120t-40.5 164.5q0 67 21 121
t57 96t85.5 72.5t106.5 50.5q-51 20 -94 50.5t-75 71.5t-50 93t-18 117q0 90 38 159.5t103 117t152 72.5t185 25zM627 655q-80 0 -150.5 -18t-123 -53.5t-83 -87.5t-30.5 -120q0 -70 30.5 -122.5t83.5 -88t123 -53.5t150 -18q79 0 149.5 18t123.5 53.5t83.5 88t30.5 122.5
q0 68 -30.5 120t-83 87.5t-123 53.5t-150.5 18zM627 1305q-73 0 -137 -17.5t-112 -51.5t-76 -84.5t-28 -116.5q0 -69 28 -120.5t76 -86.5t112 -52.5t137 -17.5t137.5 17.5t112.5 52.5t76 86.5t28 120.5q0 66 -28 116.5t-76 84.5t-112.5 51.5t-137.5 17.5z" />
    <glyph glyph-name="nine" unicode="9" horiz-adv-x="1150" 
d="M758 553q-43 -19 -91 -29t-100 -10q-104 0 -191.5 34t-151 94.5t-99.5 143t-36 179.5q0 96 36.5 178.5t102 143t155 94.5t195.5 34t195.5 -34t155 -94.5t102.5 -143t37 -178.5q0 -76 -23.5 -144.5t-67.5 -139.5l-424 -681h-144zM578 623q80 0 147.5 25.5t116.5 71
t77 108.5t28 137t-27.5 136.5t-77 108t-117 71t-147.5 25.5t-147.5 -25.5t-116.5 -71t-76.5 -108t-27.5 -136.5t27.5 -137t76.5 -108.5t116.5 -71t147.5 -25.5z" />
    <glyph glyph-name="colon" unicode=":" horiz-adv-x="520" 
d="M260 956q19 0 36.5 -7.5t30.5 -21t21 -31t8 -36.5t-8 -36.5t-21 -30.5t-30.5 -21t-36.5 -8t-36.5 8t-30.5 21t-21 30.5t-8 36.5t8 36.5t21 31t30.5 21t36.5 7.5zM260 178q19 0 36.5 -7.5t30.5 -20.5t21 -30.5t8 -36.5q0 -20 -8 -37.5t-21 -30.5t-30.5 -21t-36.5 -8
t-36.5 8t-30.5 21t-21 30.5t-8 37.5q0 19 8 36.5t21 30.5t30.5 20.5t36.5 7.5z" />
    <glyph glyph-name="semicolon" unicode=";" horiz-adv-x="488" 
d="M251 956q19 0 36.5 -7.5t30.5 -21t20.5 -31t7.5 -36.5t-7.5 -36.5t-20.5 -30.5t-30.5 -21t-36.5 -8t-36.5 8t-30.5 21t-21 30.5t-8 36.5t8 36.5t21 31t30.5 21t36.5 7.5zM338 234l-96 -483h-99l62 483h133z" />
    <glyph glyph-name="less" unicode="&#x3c;" horiz-adv-x="1200" 
d="M986 103l-770 368v113l770 368v-122l-656 -302l656 -303v-122z" />
    <glyph glyph-name="equal" unicode="=" horiz-adv-x="1200" 
d="M1026 299h-852v104h852v-104zM1026 651h-852v103h852v-103z" />
    <glyph glyph-name="greater" unicode="&#x3e;" horiz-adv-x="1200" 
d="M215 952l770 -368v-113l-770 -368v122l656 302l-656 303v122z" />
    <glyph glyph-name="question" unicode="?" horiz-adv-x="848" 
d="M220 435v310h49q89 0 160 19.5t120.5 56t76 89t26.5 118.5q0 63 -27 113t-76.5 85.5t-118.5 54.5t-153 19q-32 0 -65 -2.5t-59 -4.5l-10 116q29 5 67.5 7.5t72.5 2.5q112 0 203 -27.5t156 -78t100.5 -122t35.5 -159.5q0 -84 -30 -153t-87.5 -119.5t-140.5 -82t-189 -40.5
l-7 -202h-104zM272 177q19 0 36.5 -7.5t30.5 -21t21 -31t8 -36.5t-8 -36.5t-21 -30.5t-30.5 -21t-36.5 -8t-36.5 8t-30.5 21t-21 30.5t-8 36.5t8 36.5t21 31t30.5 21t36.5 7.5z" />
    <glyph glyph-name="at" unicode="@" horiz-adv-x="1979" 
d="M1367 399q0 -110 33.5 -159t94.5 -49q45 0 82.5 22.5t64.5 66t42.5 106.5t15.5 144q0 153 -54.5 278t-150 214.5t-225 138.5t-280.5 49t-280.5 -54t-225 -149t-150 -225t-54.5 -282q0 -103 24.5 -196t70 -173t109.5 -144.5t143 -110t170.5 -70t192.5 -24.5
q125 0 235.5 36.5t205.5 104.5l54 -74q-107 -78 -232 -118.5t-263 -40.5q-116 0 -221.5 28.5t-196 80t-163.5 125t-125 163.5t-80 194.5t-28 218.5q0 113 28 216.5t80 192.5t125 161.5t163.5 124t196 79.5t221.5 28t221.5 -26t196 -74t163.5 -116.5t125 -154.5t80 -187
t28 -214q0 -91 -21.5 -169.5t-62 -136.5t-99 -91t-131.5 -33q-92 0 -145 46.5t-69 123.5q-46 -75 -124.5 -121t-187.5 -46q-81 0 -151 30t-122 83t-81.5 125.5t-29.5 158.5q0 85 29.5 158t81.5 126t122 83t151 30q106 0 182.5 -45.5t122.5 -118.5v151h98v-485zM977 804
q-65 0 -119.5 -23.5t-93.5 -64t-61 -96.5t-22 -120q0 -65 22 -120.5t61 -96t93.5 -64t119.5 -23.5q64 0 118.5 23t94 63.5t61.5 96.5t22 121t-22 121t-61.5 96.5t-94 63.5t-118.5 23z" />
    <glyph glyph-name="A" unicode="A" horiz-adv-x="1406" 
d="M1366 0h-131l-170 409h-728l-170 -409h-127l588 1400h150zM386 525h630l-315 756z" />
    <glyph glyph-name="B" unicode="B" horiz-adv-x="1399" 
d="M750 1400q109 0 200 -20t156.5 -64t102 -113t36.5 -166q0 -63 -17.5 -115t-49 -91.5t-76 -67t-98.5 -42.5q60 -15 109.5 -44t85.5 -71t55.5 -98t19.5 -126q0 -100 -35.5 -172.5t-101 -119t-158 -68.5t-206.5 -22h-564v1400h541zM331 656v-541h437q85 0 155 14t119.5 45.5
t76.5 83.5t27 128t-27 128t-76.5 83.5t-119.5 45t-155 13.5h-437zM331 1285v-515h416q80 0 148 12.5t117.5 42t77.5 79t28 124.5q0 74 -28 123.5t-77.5 79t-118 42t-148.5 12.5h-415z" />
    <glyph glyph-name="C" unicode="C" horiz-adv-x="1528" 
d="M843 1416q90 0 174 -20t157.5 -57.5t133 -90.5t101.5 -120l-102 -68q-36 55 -85.5 99t-109 75t-128 47.5t-141.5 16.5q-125 0 -232.5 -43t-187 -122t-125 -189t-45.5 -244t45.5 -244t125 -189t187 -122t232.5 -43q73 0 141 16t127.5 47t109 75t85.5 100l100 -73
q-44 -66 -103.5 -118t-132 -89t-155.5 -56.5t-172 -19.5q-153 0 -284.5 53t-227.5 147.5t-150.5 226t-54.5 289.5q0 157 54.5 289t150.5 226.5t227.5 147.5t284.5 53z" />
    <glyph glyph-name="D" unicode="D" horiz-adv-x="1602" 
d="M720 1400q175 0 315 -49t238 -140t151 -220.5t53 -290.5t-53 -290.5t-151 -220.5t-238 -140t-315 -49h-511v1400h511zM331 1284v-1168h389q153 0 270 41.5t197 117.5t121 184t41 241t-41 241t-121 184.5t-197 117.5t-270 41h-389z" />
    <glyph glyph-name="E" unicode="E" horiz-adv-x="1341" 
d="M1173 0h-964v1400h957v-115h-835v-523h811v-114h-811v-533h842v-115z" />
    <glyph glyph-name="F" unicode="F" horiz-adv-x="1287" 
d="M1128 647h-797v-647h-122v1400h952v-116h-830v-521h797v-116z" />
    <glyph glyph-name="G" unicode="G" horiz-adv-x="1637" 
d="M843 1416q166 0 305.5 -63.5t236.5 -175.5l-90 -87q-81 97 -197 152.5t-255 55.5q-125 0 -232.5 -43t-187 -122t-125 -189t-45.5 -244t45.5 -244t124.5 -189t185.5 -122t228.5 -43q120 0 217 36.5t166.5 104.5t110 164.5t47.5 216.5h-474v114h606q2 -10 2 -18v-15
q0 -154 -47 -286t-135 -228.5t-212.5 -151t-280.5 -54.5q-140 0 -268.5 49t-227 141.5t-157 225t-58.5 299.5q0 158 55 289.5t151 226.5t227 147.5t284 52.5z" />
    <glyph glyph-name="H" unicode="H" horiz-adv-x="1565" 
d="M331 763h902v637h122v-1400h-122v647h-902v-647h-122v1400h122v-637z" />
    <glyph glyph-name="I" unicode="I" horiz-adv-x="541" 
d="M331 0h-122v1400h122v-1400z" />
    <glyph glyph-name="J" unicode="J" horiz-adv-x="1151" 
d="M952 502q0 -125 -37 -221.5t-102 -162t-154 -99.5t-192 -34q-79 0 -144 16.5t-116.5 43t-91.5 59.5t-70 67l82 84q26 -31 60.5 -58.5t76.5 -48.5t92.5 -33.5t109.5 -12.5q80 0 147 26.5t115 78t75 128.5t27 178v887h122v-898z" />
    <glyph glyph-name="K" unicode="K" horiz-adv-x="1367" 
d="M516 646h-185v-646h-122v1400h122v-638h187l615 638h158l-675 -689l717 -711h-166z" />
    <glyph glyph-name="L" unicode="L" horiz-adv-x="1204" 
d="M1162 0h-953v1400h122v-1284h831v-116z" />
    <glyph glyph-name="M" unicode="M" horiz-adv-x="1860" 
d="M1650 0h-122v1261l-534 -1095h-129l-534 1089v-1255h-122v1400h184l537 -1091l536 1091h184v-1400z" />
    <glyph glyph-name="N" unicode="N" horiz-adv-x="1569" 
d="M1359 0h-110l-917 1190l-1 -1190h-122v1400h110l918 -1190v1190h122v-1400z" />
    <glyph glyph-name="O" unicode="O" horiz-adv-x="1685" 
d="M843 1416q153 0 284.5 -53t227.5 -147.5t150.5 -226.5t54.5 -289q0 -158 -54.5 -289.5t-150.5 -226t-227.5 -147.5t-284.5 -53t-284.5 53t-227.5 147.5t-150.5 226t-54.5 289.5q0 157 54.5 289t150.5 226.5t227.5 147.5t284.5 53zM843 1298q-125 0 -232.5 -43t-187 -122
t-125 -189t-45.5 -244t45.5 -244t125 -189t187 -122t232.5 -43q124 0 231.5 43t187 122t125 189t45.5 244t-45.5 244t-125 189t-187 122t-231.5 43z" />
    <glyph glyph-name="P" unicode="P" horiz-adv-x="1331" 
d="M331 570v-570h-122v1400h520q116 0 208 -28t155.5 -81.5t97.5 -130.5t34 -175t-34 -175.5t-97.5 -130.5t-155.5 -81t-208 -28h-398zM331 1285v-599h395q88 0 157 19t116.5 56.5t72.5 93.5t25 130t-25 130.5t-72.5 94t-116.5 56.5t-157 19h-395z" />
    <glyph glyph-name="Q" unicode="Q" horiz-adv-x="1685" 
d="M843 1416q153 0 284.5 -53t227.5 -147.5t150.5 -226.5t54.5 -289q0 -136 -40.5 -252t-115.5 -207l192 -241h-144l-128 157q-94 -83 -217 -128t-264 -45q-153 0 -284.5 53t-227.5 147.5t-150.5 226t-54.5 289.5q0 157 54.5 289t150.5 226.5t227.5 147.5t284.5 53z
M843 1298q-125 0 -232.5 -43t-187 -122t-125 -189t-45.5 -244t45.5 -244t125 -189t187 -122t232.5 -43q119 0 222.5 39.5t181.5 111.5l-344 431h146l275 -342q51 72 79.5 162t28.5 196q0 134 -45.5 244t-125 189t-187 122t-231.5 43z" />
    <glyph glyph-name="R" unicode="R" horiz-adv-x="1341" 
d="M743 1400q116 0 206 -26t151.5 -75.5t93.5 -122t32 -165.5q0 -90 -33.5 -162.5t-96 -123t-151.5 -77.5t-201 -27h-55l530 -621h-152l-522 621h-214v-621h-122v1400h534zM331 1285v-553h411q175 0 266.5 71.5t91.5 207.5q0 135 -92 204.5t-266 69.5h-411z" />
    <glyph glyph-name="S" unicode="S" horiz-adv-x="1343" 
d="M1120 1162q-82 58 -191 97.5t-247 39.5q-84 0 -155.5 -19t-123.5 -55t-81.5 -87.5t-29.5 -117.5q0 -104 81.5 -167.5t260.5 -83.5l153 -17q93 -11 172 -35.5t136.5 -67t89.5 -106t32 -150.5q0 -102 -43.5 -178.5t-118.5 -127.5t-175 -76.5t-213 -25.5q-79 0 -156 13.5
t-147.5 37t-131.5 55.5t-107 69l67 97q37 -29 88 -57t112.5 -50t131 -35.5t142.5 -13.5q89 0 166.5 17.5t134.5 52.5t90 88t33 124q0 114 -90 173t-265 79l-159 18q-96 11 -172 38t-129.5 71.5t-81.5 106.5t-28 143q0 97 40.5 172t110.5 126.5t164.5 78t202.5 26.5
q81 0 152.5 -12t133.5 -33t115.5 -49t98.5 -60z" />
    <glyph glyph-name="T" unicode="T" horiz-adv-x="1215" 
d="M1173 1284h-505v-1284h-122v1284h-504v116h1131v-116z" />
    <glyph glyph-name="U" unicode="U" horiz-adv-x="1510" 
d="M1321 545q0 -140 -44.5 -245t-121.5 -175t-180 -105t-221 -35t-221 35t-179.5 105t-121 175t-44.5 245v855h122v-846q0 -116 34 -201t93.5 -140.5t140.5 -83t176 -27.5t176 27.5t140.5 83t93.5 140.5t34 201v846h123v-855z" />
    <glyph glyph-name="V" unicode="V" horiz-adv-x="1385" 
d="M768 0h-151l-577 1400h130l524 -1279l525 1279h126z" />
    <glyph glyph-name="W" unicode="W" horiz-adv-x="2208" 
d="M1672 0h-149l-419 1241l-419 -1241h-149l-472 1400h129l419 -1265l425 1265h137l424 -1263l420 1263h126z" />
    <glyph glyph-name="X" unicode="X" horiz-adv-x="1373" 
d="M762 716l542 -716h-148l-470 624l-473 -624h-144l541 716l-515 684h148l445 -591l446 591h145z" />
    <glyph glyph-name="Y" unicode="Y" horiz-adv-x="1263" 
d="M693 600v-600h-122v602l-559 798h146l475 -685l475 685h143z" />
    <glyph glyph-name="Z" unicode="Z" horiz-adv-x="1327" 
d="M1197 1306l-910 -1190h914v-116h-1076v95l909 1189h-894v116h1057v-94z" />
    <glyph glyph-name="bracketleft" unicode="[" horiz-adv-x="738" 
d="M654 -263h-445v1663h445v-106h-328v-1451h328v-106z" />
    <glyph glyph-name="backslash" unicode="\" horiz-adv-x="984" 
d="M6 1540h125l849 -1740h-125z" />
    <glyph glyph-name="bracketright" unicode="]" horiz-adv-x="738" 
d="M84 1400h445v-1663h-445v106h328v1451h-328v106z" />
    <glyph glyph-name="asciicircum" unicode="^" horiz-adv-x="1200" 
d="M188 656l356 744h112l356 -744h-124l-290 626l-289 -626h-121z" />
    <glyph glyph-name="underscore" unicode="_" horiz-adv-x="935" 
d="M940 -253h-945v103h945v-103z" />
    <glyph glyph-name="grave" unicode="`" horiz-adv-x="904" 
d="M521 1082l-251 300h144l220 -300h-113z" />
    <glyph glyph-name="a" unicode="a" horiz-adv-x="1244" 
d="M1063 0h-113v181q-57 -89 -150.5 -142.5t-222.5 -53.5q-99 0 -185 36.5t-149 101t-99.5 153.5t-36.5 194t36.5 194t99.5 154t149 101.5t185 36.5q129 0 222.5 -54t150.5 -142v181h113v-941zM590 849q-81 0 -148.5 -29.5t-116 -80.5t-75.5 -120t-27 -149t27 -149t76 -120
t116.5 -80t147.5 -29t147 28.5t116 79.5t76 120t27 150t-27 150.5t-76 120t-116 79.5t-147 29z" />
    <glyph glyph-name="b" unicode="b" horiz-adv-x="1245" 
d="M667 956q99 0 185 -36.5t149.5 -101.5t100 -154t36.5 -194t-36.5 -194t-100 -153.5t-149.5 -101t-185 -36.5q-128 0 -221 53t-150 141v-179h-114v1440h114v-678q56 87 149.5 140.5t221.5 53.5zM654 849q-80 0 -147 -29t-115.5 -79.5t-76 -120t-27.5 -150.5t27.5 -150
t76 -120t115.5 -79.5t147 -28.5q81 0 148.5 29t116 80t75.5 120t27 149t-27 149t-76 120t-116 80.5t-148 29.5z" />
    <glyph glyph-name="c" unicode="c" horiz-adv-x="1023" 
d="M589 956q105 0 194.5 -37.5t152.5 -108.5l-74 -77q-55 55 -123.5 85.5t-152.5 30.5q-77 0 -143.5 -28.5t-115.5 -79t-76.5 -120t-27.5 -151.5t27.5 -151.5t76.5 -119.5t115.5 -78.5t143.5 -28.5q84 0 154.5 32t124.5 85l71 -78q-64 -71 -153 -108.5t-194 -37.5
q-106 0 -194.5 37t-152.5 102t-99.5 153.5t-35.5 192.5t35.5 193t99.5 154t152.5 102t194.5 37z" />
    <glyph glyph-name="d" unicode="d" horiz-adv-x="1244" 
d="M577 956q129 0 222.5 -54t150.5 -142v680h113v-1440h-113v181q-57 -89 -150.5 -142.5t-222.5 -53.5q-99 0 -185 36.5t-149 101t-99.5 153.5t-36.5 194t36.5 194t99.5 154t149 101.5t185 36.5zM590 849q-81 0 -148.5 -29.5t-116 -80.5t-75.5 -120t-27 -149t27 -149
t76 -120t116.5 -80t147.5 -29t147 28.5t116 79.5t76 120t27 150t-27 150.5t-76 120t-116 79.5t-147 29z" />
    <glyph glyph-name="e" unicode="e" horiz-adv-x="1121" 
d="M573 956q94 0 174.5 -35.5t139 -99t92.5 -152t35 -193.5q0 -13 -0.5 -24.5t-1.5 -22.5h-789q6 -82 36.5 -146t79.5 -108.5t112.5 -67.5t135.5 -23q99 0 177 36t141 98l61 -78q-45 -45 -91.5 -75t-95 -48t-98.5 -25t-101 -7q-103 0 -190 35.5t-150 99.5t-98 153t-35 197
q0 106 35.5 195.5t98 154t148 100.5t184.5 36zM571 855q-72 0 -131.5 -24.5t-104.5 -68t-73.5 -103.5t-36.5 -132h673q-6 73 -33 133.5t-70.5 103.5t-100.5 67t-123 24z" />
    <glyph glyph-name="f" unicode="f" horiz-adv-x="875" 
d="M805 837h-405v-837h-114v837h-231v104h231v162q0 78 17 142.5t54.5 111t96.5 72.5t143 26q78 0 141.5 -20t112.5 -50l-41 -95q-40 24 -93.5 41t-112.5 17q-55 0 -93.5 -16.5t-63 -48t-36 -77t-11.5 -103.5v-162h405v-104z" />
    <glyph glyph-name="g" unicode="g" horiz-adv-x="1236" 
d="M574 956q127 0 219.5 -54.5t147.5 -144.5v184h114v-877q0 -117 -38 -206t-105 -149t-157 -90.5t-194 -30.5q-58 0 -114 9.5t-107 27t-95.5 42.5t-79.5 57l58 83q67 -53 152.5 -84t185.5 -31q79 0 148.5 22.5t121 68.5t81 115t29.5 161v134q-55 -90 -147.5 -144
t-219.5 -54q-99 0 -184.5 35.5t-148.5 99t-98.5 152t-35.5 194.5q0 105 35.5 193.5t98.5 152t148.5 99t184.5 35.5zM586 849q-80 0 -147 -29t-115 -79.5t-74.5 -118.5t-26.5 -146q0 -79 26.5 -147t74.5 -118.5t115 -79.5t147 -29q79 0 146 28.5t115.5 78.5t75.5 118.5
t27 148.5q0 79 -27 147.5t-75.5 118.5t-115.5 78.5t-146 28.5z" />
    <glyph glyph-name="h" unicode="h" horiz-adv-x="1198" 
d="M296 778q28 46 65.5 80t81.5 55.5t92 32t96 10.5q88 0 161 -26.5t125.5 -75.5t81 -119.5t28.5 -157.5v-577h-114v542q0 71 -20 128t-59 96.5t-95 60.5t-128 21q-66 0 -123.5 -22.5t-100 -64t-67 -99t-24.5 -126.5v-536h-114v1440h114v-662z" />
    <glyph glyph-name="i" unicode="i" horiz-adv-x="477" 
d="M296 0h-114v941h114v-941zM239 1362q35 0 58.5 -24t23.5 -59t-23.5 -58t-58.5 -23t-58 23t-23 58t23 59t58 24z" />
    <glyph glyph-name="j" unicode="j" horiz-adv-x="480" 
d="M299 -178q0 -115 -55.5 -174.5t-154.5 -59.5q-36 0 -71 9.5t-59 23.5l28 98q19 -11 43 -17.5t50 -6.5q51 0 78 32t27 100v1114h114v-1119zM241 1362q35 0 58.5 -24t23.5 -59t-23.5 -58t-58.5 -23t-58 23t-23 58t23 59t58 24z" />
    <glyph glyph-name="k" unicode="k" horiz-adv-x="1042" 
d="M296 544h153l396 397h144l-448 -444l456 -497h-145l-403 441h-153v-441h-114v1440h114v-896z" />
    <glyph glyph-name="l" unicode="l" horiz-adv-x="477" 
d="M296 0h-114v1440h114v-1440z" />
    <glyph glyph-name="m" unicode="m" horiz-adv-x="1930" 
d="M1362 956q88 0 161.5 -26.5t125.5 -75.5t81 -119.5t29 -157.5v-577h-114v542q0 71 -20.5 128t-59 96.5t-95 60.5t-128.5 21q-66 0 -123.5 -22.5t-100 -64t-67 -99t-24.5 -126.5v-536h-114v542q0 71 -20 128t-59 96.5t-95 60.5t-128 21q-66 0 -123.5 -22.5t-100 -64
t-67 -99t-24.5 -126.5v-536h-114v941h113v-165q28 47 65.5 81t81.5 56t92 32.5t97 10.5q66 0 123.5 -15t104.5 -43t82 -68.5t56 -92.5q26 58 66 99.5t88 68t102 39t109 12.5z" />
    <glyph glyph-name="n" unicode="n" horiz-adv-x="1198" 
d="M631 956q88 0 161 -26.5t125.5 -75.5t81 -119.5t28.5 -157.5v-577h-114v542q0 71 -20 128t-59 96.5t-95 60.5t-128 21q-66 0 -123.5 -22.5t-100 -64t-67 -99t-24.5 -126.5v-536h-114v941h113v-165q28 47 65.5 81t81.5 56t92 32.5t97 10.5z" />
    <glyph glyph-name="o" unicode="o" horiz-adv-x="1192" 
d="M595 956q105 0 194.5 -37t155 -102t103 -154t37.5 -193t-37.5 -192.5t-103 -153.5t-155 -102t-194.5 -37t-194 37t-154.5 102t-102.5 153.5t-37 192.5t37 193t102.5 154t154.5 102t194 37zM595 849q-79 0 -147 -28.5t-118 -79t-78.5 -120t-28.5 -151.5t28.5 -151.5
t78.5 -119.5t118 -78.5t147 -28.5t147.5 28.5t118.5 78.5t78.5 119.5t28.5 151.5t-28.5 151.5t-78.5 120t-118.5 79t-147.5 28.5z" />
    <glyph glyph-name="p" unicode="p" horiz-adv-x="1245" 
d="M667 956q99 0 185 -36.5t149.5 -101.5t100 -154t36.5 -194t-36.5 -194t-100 -153.5t-149.5 -101t-185 -36.5q-128 0 -221 53t-150 141v-579h-114v1341h114v-179q56 87 149.5 140.5t221.5 53.5zM654 849q-80 0 -147 -29t-115.5 -79.5t-76 -120t-27.5 -150.5t27.5 -150
t76 -120t115.5 -79.5t147 -28.5q81 0 148.5 29t116 80t75.5 120t27 149t-27 149t-76 120t-116 80.5t-148 29.5z" />
    <glyph glyph-name="q" unicode="q" horiz-adv-x="1244" 
d="M577 956q129 0 222.5 -54t150.5 -142v181h113v-1341h-113v581q-57 -89 -150.5 -142.5t-222.5 -53.5q-99 0 -185 36.5t-149 101t-99.5 153.5t-36.5 194t36.5 194t99.5 154t149 101.5t185 36.5zM590 849q-81 0 -148.5 -29.5t-116 -80.5t-75.5 -120t-27 -149t27 -149
t76 -120t116.5 -80t147.5 -29t147 28.5t116 79.5t76 120t27 150t-27 150.5t-76 120t-116 79.5t-147 29z" />
    <glyph glyph-name="r" unicode="r" horiz-adv-x="814" 
d="M584 957q51 0 94.5 -8.5t81.5 -27.5l-29 -111q-35 19 -79.5 28.5t-87.5 9.5q-59 0 -108.5 -23t-85 -64.5t-55.5 -100t-20 -129.5v-531h-113v941h112v-160q46 83 121 129.5t169 46.5z" />
    <glyph glyph-name="s" unicode="s" horiz-adv-x="974" 
d="M809 762q-24 17 -58.5 33.5t-75.5 30t-88.5 22t-96.5 8.5q-55 0 -101 -11.5t-79 -33.5t-51.5 -53.5t-18.5 -71.5q0 -66 52.5 -102.5t161.5 -49.5l120 -14q148 -17 228.5 -79t80.5 -174q0 -67 -29.5 -119.5t-82.5 -88.5t-127.5 -55t-165.5 -19q-103 0 -204 28.5t-183 91.5
l53 85q27 -21 60 -40.5t74 -34t90.5 -23t110.5 -8.5q64 0 116.5 11t90.5 33t59 55t21 77q0 132 -217 156l-121 13q-80 9 -137.5 30.5t-95 53.5t-55 74.5t-17.5 92.5q0 65 26.5 116t75 86.5t116 54.5t148.5 19q112 0 208.5 -30t160.5 -76z" />
    <glyph glyph-name="t" unicode="t" horiz-adv-x="904" 
d="M819 837h-434v-513q0 -60 15 -103.5t42.5 -72t66 -42.5t85.5 -14q61 0 114.5 19.5t95.5 52.5l54 -85q-51 -42 -119.5 -68t-153.5 -26q-147 0 -230.5 83t-83.5 254v515h-216v104h216v307h114v-307h434v-104z" />
    <glyph glyph-name="u" unicode="u" horiz-adv-x="1186" 
d="M1015 389q0 -100 -33.5 -175.5t-91 -126.5t-134 -76.5t-163.5 -25.5t-164 25.5t-134 76.5t-90.5 126.5t-33.5 175.5v552h114v-542q0 -76 22.5 -133.5t63.5 -96t97.5 -58t124.5 -19.5q67 0 124 19.5t97.5 58t63.5 96t23 133.5v542h114v-552z" />
    <glyph glyph-name="v" unicode="v" horiz-adv-x="1030" 
d="M581 -2h-131l-416 943h124l358 -828l360 828h120z" />
    <glyph glyph-name="w" unicode="w" horiz-adv-x="1725" 
d="M1237 116l319 825h118l-369 -941h-134l-310 822l-308 -822h-133l-369 941h121l318 -824l309 824h128z" />
    <glyph glyph-name="x" unicode="x" horiz-adv-x="1006" 
d="M578 482l392 -482h-140l-331 398l-329 -398h-134l392 481l-379 460h140l316 -382l317 382h135z" />
    <glyph glyph-name="y" unicode="y" horiz-adv-x="1028" 
d="M232 -403h-126l360 613l-442 731h128l379 -619l355 619h125z" />
    <glyph glyph-name="z" unicode="z" horiz-adv-x="1066" 
d="M931 857l-652 -754h660v-103h-812v83l657 754h-637v104h784v-84z" />
    <glyph glyph-name="braceleft" unicode="{" horiz-adv-x="839" 
d="M689 1294q-51 0 -93.5 -15t-72 -46.5t-44 -79.5t-11.5 -114l8 -149q7 -132 -47.5 -212t-155.5 -109q101 -29 155.5 -109t47.5 -212l-8 -149q-3 -66 11.5 -114t44 -79.5t72 -46.5t93.5 -15h66v-106h-66q-83 0 -148 24t-109 71t-65 116.5t-16 161.5l8 150q3 66 -12.5 114
t-46 79.5t-75 46.5t-99.5 15v106q55 0 99.5 15t75 46.5t46 79.5t12.5 114l-8 150q-5 91 16.5 161t65.5 117t108.5 71t147.5 24h66v-106h-66z" />
    <glyph glyph-name="bar" unicode="|" horiz-adv-x="701" 
d="M407 -265h-114v1665h114v-1665z" />
    <glyph glyph-name="braceright" unicode="}" horiz-adv-x="839" 
d="M150 -156q51 0 93.5 15t72 46.5t44 79.5t11.5 114l-8 149q-8 132 47 212t156 109q-101 29 -156 109t-47 212l8 149q3 66 -11.5 114t-44 79.5t-72 46.5t-93.5 15h-66v106h66q82 0 147.5 -24t109.5 -71t65 -117t16 -161l-8 -150q-3 -66 12.5 -114t46 -79.5t75 -46.5
t99.5 -15v-106q-55 0 -99.5 -15t-75 -46.5t-46 -79.5t-12.5 -114l8 -150q5 -92 -16.5 -161.5t-65.5 -116.5t-109 -71t-147 -24h-66v106h66z" />
    <glyph glyph-name="asciitilde" unicode="~" horiz-adv-x="1200" 
d="M1036 548q-52 -58 -111.5 -86.5t-142.5 -28.5q-45 0 -79.5 6.5t-63.5 17t-54 22t-51 22t-56.5 17t-68.5 6.5q-56 0 -98.5 -22.5t-85.5 -66.5l-63 72q52 58 111.5 86.5t142.5 28.5q46 0 80.5 -6.5t63 -17t53.5 -22t51.5 -22t56 -17t68.5 -6.5q28 0 52 5.5t46 17t43 28
t43 38.5z" />
    <glyph glyph-name="uni00A0" unicode="&#xa0;" horiz-adv-x="530" 
 />
    <glyph glyph-name="exclamdown" unicode="&#xa1;" horiz-adv-x="520" 
d="M209 506h103l18 -965h-139zM260 763q-19 0 -36.5 7.5t-30.5 20.5t-21 30.5t-8 36.5t8 37t21 31t30.5 21t36.5 8t36.5 -8t30.5 -21t21 -31t8 -37t-8 -36.5t-21 -30.5t-30.5 -20.5t-36.5 -7.5z" />
    <glyph glyph-name="cent" unicode="&#xa2;" horiz-adv-x="1400" 
d="M798 1400v-216q98 -5 182.5 -42t146.5 -103l-68 -74q-54 51 -118.5 81t-142.5 35v-762q78 5 145.5 36t119.5 81l64 -75q-63 -66 -147 -103.5t-182 -42.5v-215h-106v220q-93 13 -170 54.5t-132 105t-85 145t-30 175.5q0 93 30 175t85 145t132 104.5t170 54.5v221h106z
M387 700q0 -73 22.5 -136t63 -111.5t96.5 -81.5t123 -46v750q-67 -13 -123 -46t-96.5 -81.5t-63 -111.5t-22.5 -136z" />
    <glyph glyph-name="sterling" unicode="&#xa3;" horiz-adv-x="1400" 
d="M1210 0h-1020v112h187v536h-187v104h187v171q0 122 35.5 214.5t97 154t144 92.5t175.5 31q112 0 204.5 -43t157.5 -130l-87 -75q-49 68 -119 102t-156 34q-71 0 -132 -23.5t-106 -71.5t-71 -121.5t-26 -172.5v-162h545v-104h-545v-536h716v-112z" />
    <glyph glyph-name="currency" unicode="&#xa4;" horiz-adv-x="1400" 
d="M292 1176l145 -145q54 44 121.5 68.5t143.5 24.5q75 0 142.5 -24t121.5 -68l144 144l67 -68l-143 -144q44 -54 68.5 -121.5t24.5 -142.5q0 -76 -24.5 -143.5t-68.5 -122.5l144 -143l-68 -68l-144 144q-54 -44 -121.5 -68t-142.5 -24q-76 0 -143.5 24.5t-122.5 68.5
l-143 -145l-67 68l143 143q-44 55 -68 122.5t-24 143.5q0 75 24 142.5t68 121.5l-143 144zM702 369q69 0 129 25.5t105 70.5t70.5 105.5t25.5 129.5t-25.5 129t-70.5 105t-105 70.5t-129 25.5t-129 -25.5t-105 -70.5t-70.5 -105t-25.5 -129t25.5 -129.5t70.5 -105.5
t105 -70.5t129 -25.5z" />
    <glyph glyph-name="yen" unicode="&#xa5;" horiz-adv-x="1400" 
d="M1172 338h-409v-338h-118v338h-410v95h410v220h-410v95h358l-475 652h140l446 -616l441 616h138l-469 -652h358v-95h-409v-220h409v-95z" />
    <glyph glyph-name="brokenbar" unicode="&#xa6;" horiz-adv-x="701" 
d="M407 706h-114v694h114v-694zM407 -265h-114v694h114v-694z" />
    <glyph glyph-name="section" unicode="&#xa7;" horiz-adv-x="1310" 
d="M1066 1179q-36 26 -80 49.5t-94 41t-105.5 28t-115.5 10.5q-77 0 -141.5 -15.5t-111.5 -45t-74 -71.5t-27 -96q0 -92 82.5 -142.5t235.5 -65.5l135 -13q77 -8 147.5 -29t124 -58.5t85.5 -91t32 -125.5q0 -88 -45 -152t-121 -106q66 -37 106 -94.5t40 -138.5
q0 -89 -39.5 -154.5t-107.5 -108.5t-158 -64.5t-191 -21.5q-75 0 -146 12.5t-134 34.5t-117 50.5t-96 61.5l60 92q34 -27 80 -53t100.5 -46.5t118 -33t134.5 -12.5q80 0 149 14.5t120.5 43.5t81 73t29.5 103q0 46 -24 81.5t-67 60.5t-102.5 40.5t-129.5 23.5l-143 15
q-81 9 -150 31.5t-119.5 60t-78.5 91t-28 123.5q0 84 43.5 148t118.5 106q-66 38 -104 96.5t-38 140.5q0 81 36.5 144.5t100 107.5t149 67t183.5 23q71 0 135 -11t121 -30.5t105.5 -45.5t89.5 -56zM578 767q-70 8 -128 25q-72 -29 -112.5 -81t-40.5 -123q0 -91 82 -140.5
t235 -65.5l137 -15q73 -8 135 -27q72 29 114.5 80t42.5 126q0 46 -24 82t-67 61.5t-102 41t-129 22.5z" />
    <glyph glyph-name="dieresis" unicode="&#xa8;" horiz-adv-x="914" 
d="M252 1310q35 0 58.5 -24t23.5 -59t-23.5 -58t-58.5 -23t-58 23t-23 58t23 59t58 24zM661 1310q35 0 59 -24t24 -59t-24 -58t-59 -23t-58 23t-23 58t23 59t58 24z" />
    <glyph glyph-name="copyright" unicode="&#xa9;" horiz-adv-x="1898" 
d="M949 1500q110 0 212 -28.5t191 -80t162 -124t125 -161t80.5 -190t28.5 -210.5q0 -110 -28.5 -211.5t-80.5 -190t-125 -161t-162 -124.5t-191 -80.5t-212 -28.5t-212 28.5t-191 80.5t-161.5 124.5t-124.5 161t-80.5 190t-28.5 211.5t28.5 211t80.5 189.5t124.5 161
t161.5 124t191 80t212 28.5zM949 1400q-96 0 -184.5 -24.5t-166 -70t-140.5 -108.5t-108.5 -140.5t-70 -166t-24.5 -184.5t24.5 -185t70 -166.5t108.5 -140.5t140.5 -108.5t166 -70t184.5 -24.5t185 24.5t166 70t140.5 108.5t108.5 140.5t70 166.5t25 185q0 144 -54.5 270.5
t-149 220.5t-221 148.5t-270.5 54.5zM1225 899q-41 63 -107.5 98t-147.5 35q-66 0 -123 -24t-99.5 -67t-67 -103t-24.5 -132q0 -76 25 -136.5t68 -102.5t100 -64.5t122 -22.5q81 0 147.5 35t108.5 97l80 -63q-54 -79 -141 -124t-195 -45q-90 0 -167 31.5t-133.5 87.5
t-89 134.5t-32.5 172.5t32.5 172t89 134.5t133.5 88t167 31.5q107 0 196.5 -47t142.5 -128z" />
    <glyph glyph-name="ordfeminine" unicode="&#xaa;" horiz-adv-x="781" 
d="M372 1298q64 0 116 -16t89.5 -49.5t58 -84.5t20.5 -121v-393h-93v100q-42 -46 -103.5 -78.5t-143.5 -32.5q-53 0 -96 14.5t-73 40.5t-46.5 62t-16.5 80q0 87 69.5 138.5t201.5 51.5h206v8q0 103 -53.5 149.5t-145.5 46.5q-67 0 -117.5 -22.5t-86.5 -52.5l-38 73
q48 38 111 62t141 24zM337 701q71 0 128.5 32t96.5 78v132h-193q-49 0 -84.5 -9.5t-58 -26t-33 -38.5t-10.5 -47t10.5 -47t30 -38.5t48.5 -26t65 -9.5z" />
    <glyph glyph-name="guillemotleft" unicode="&#xab;" horiz-adv-x="998" 
d="M834 163h-123l-193 364l193 364h123l-194 -364zM455 163h-123l-193 364l193 364h123l-194 -364z" />
    <glyph glyph-name="logicalnot" unicode="&#xac;" horiz-adv-x="1200" 
d="M1026 158h-106v317h-746v103h852v-420z" />
    <glyph glyph-name="uni00AD" unicode="&#xad;" horiz-adv-x="835" 
d="M689 475h-542v103h542v-103z" />
    <glyph glyph-name="registered" unicode="&#xae;" horiz-adv-x="880" 
d="M442 1431q80 0 151 -30t123.5 -82.5t83 -122.5t30.5 -149t-30.5 -148.5t-83 -121.5t-123.5 -82t-151 -30q-82 0 -153.5 30t-124.5 82t-83.5 121.5t-30.5 148.5t30.5 149t83.5 122.5t124.5 82.5t153.5 30zM442 734q64 0 121 24.5t99 67t66.5 99.5t24.5 122q0 66 -24.5 123
t-66.5 99.5t-98.5 67t-121.5 24.5q-66 0 -123.5 -24.5t-100 -67t-67 -99.5t-24.5 -123q0 -65 24.5 -122t67 -99.5t100 -67t123.5 -24.5zM465 1234q67 0 104.5 -30.5t37.5 -83.5q0 -46 -32 -75.5t-89 -34.5l123 -144h-75l-118 144h-50v-144h-63v368h162zM366 1179v-118h98
q36 0 57.5 15t21.5 44t-21.5 44t-57.5 15h-98z" />
    <glyph glyph-name="macron" unicode="&#xaf;" horiz-adv-x="904" 
d="M160 1273h585v-93h-585v93z" />
    <glyph glyph-name="degree" unicode="&#xb0;" horiz-adv-x="768" 
d="M384 753q-69 0 -130 26t-106 71t-71.5 105.5t-26.5 129.5q0 68 26.5 128t71.5 105t106 71t130 26t130 -26t106 -71t71.5 -105t26.5 -128q0 -69 -26.5 -129.5t-71.5 -105.5t-106 -71t-130 -26zM384 846q48 0 91 18.5t75.5 51t51 76t18.5 93.5q0 49 -18.5 92t-51 75.5
t-75.5 51t-91 18.5q-49 0 -92 -18.5t-75 -51t-50.5 -75.5t-18.5 -92q0 -50 18.5 -93.5t50.5 -76t75 -51t92 -18.5z" />
    <glyph glyph-name="plusminus" unicode="&#xb1;" horiz-adv-x="1200" 
d="M545 298v325h-371v104h371v361h105v-361h376v-104h-376v-325h-105zM1026 72h-852v104h852v-104z" />
    <glyph glyph-name="twosuperior" unicode="&#xb2;" horiz-adv-x="657" 
d="M66 1279q15 22 37 45t52 41.5t68.5 30.5t88.5 12q59 0 105 -17.5t77.5 -49t48 -74.5t16.5 -93q0 -69 -30.5 -122.5t-79.5 -102.5l-224 -227h361v-88h-496v74l292 295q35 35 57.5 75t22.5 89q0 31 -10.5 58.5t-31 48t-50 32t-66.5 11.5q-33 0 -59 -8t-47.5 -21.5
t-38.5 -31t-31 -36.5z" />
    <glyph glyph-name="threesuperior" unicode="&#xb3;" horiz-adv-x="658" 
d="M293 1408q58 0 106 -15t82.5 -42.5t53.5 -65.5t19 -84q0 -69 -36.5 -114.5t-96.5 -66.5q68 -20 108.5 -67t40.5 -114q0 -54 -23 -94.5t-60.5 -67t-86.5 -39.5t-101 -13q-80 0 -142 26t-106 72l55 63q36 -35 84 -55t105 -20q35 0 67 8t56.5 25t39 42.5t14.5 60.5
q0 31 -14.5 55.5t-39 41t-57.5 25.5t-70 9h-103v84h103q35 0 65 8.5t52.5 25t35 41.5t12.5 57q0 29 -12.5 52.5t-34.5 40.5t-52.5 26t-67.5 9q-60 0 -104 -24.5t-73 -59.5l-58 60q38 47 97 78.5t142 31.5z" />
    <glyph glyph-name="acute" unicode="&#xb4;" horiz-adv-x="904" 
d="M270 1082l220 300h144l-251 -300h-113z" />
    <glyph glyph-name="mu" unicode="&#xb5;" horiz-adv-x="1197" 
d="M171 -400v1341h114v-542q0 -71 20 -128t59 -96.5t95 -60.5t128 -21q66 0 123.5 22.5t100 64t67 99t24.5 126.5v536h114v-941h-113v165q-28 -47 -65.5 -81t-81.5 -56t-92 -32.5t-97 -10.5q-88 0 -159.5 26.5t-123.5 80.5v-492h-113z" />
    <glyph glyph-name="paragraph" unicode="&#xb6;" horiz-adv-x="1117" 
d="M537 749h-2q-91 0 -162.5 22t-121 64t-75.5 102t-26 137t26 137.5t75.5 102.5t121 64t162.5 22h93v-1400h-91v749zM733 1400h91v-1400h-91v1400z" />
    <glyph glyph-name="periodcentered" unicode="&#xb7;" horiz-adv-x="749" 
d="M375 623q19 0 36.5 -7.5t30.5 -21t20.5 -31t7.5 -36.5t-7.5 -36.5t-20.5 -30.5t-30.5 -21t-36.5 -8t-36.5 8t-30.5 21t-21 30.5t-8 36.5t8 36.5t21 31t30.5 21t36.5 7.5z" />
    <glyph glyph-name="cedilla" unicode="&#xb8;" horiz-adv-x="973" 
d="M495 -323h-119l108 329l114 -1z" />
    <glyph glyph-name="onesuperior" unicode="&#xb9;" horiz-adv-x="541" 
d="M378 634h-95v641l-232 -95v94l327 133v-773z" />
    <glyph glyph-name="ordmasculine" unicode="&#xba;" horiz-adv-x="849" 
d="M424 1298q73 0 135.5 -25.5t108 -70.5t71.5 -107t26 -134t-26 -134t-71.5 -107.5t-108 -71t-135.5 -25.5t-135 25.5t-107.5 71t-71.5 107.5t-26 134t26 134t71.5 107t107.5 70.5t135 25.5zM424 1210q-52 0 -96.5 -19t-77 -52t-51 -78.5t-18.5 -99.5t18.5 -99.5t51 -79
t77 -52t96.5 -18.5t97 18.5t78 52t51.5 79t18.5 99.5t-18.5 99.5t-51.5 78.5t-78 52t-97 19z" />
    <glyph glyph-name="guillemotright" unicode="&#xbb;" horiz-adv-x="998" 
d="M164 891h123l193 -364l-193 -364h-123l194 364zM543 891h123l193 -364l-193 -364h-123l194 364z" />
    <glyph glyph-name="onequarter" unicode="&#xbc;" horiz-adv-x="1582" 
d="M388 0h-115l883 1400h115zM1413 244h128v-87h-128v-157h-95v157h-365v69l274 538h104l-266 -520h253v217h95v-217zM378 634h-95v641l-232 -95v94l327 133v-773z" />
    <glyph glyph-name="onehalf" unicode="&#xbd;" horiz-adv-x="1640" 
d="M388 0h-115l883 1400h115zM1049 645q15 22 37 45t52 41.5t68.5 30.5t88.5 12q59 0 105 -17.5t77.5 -49t48 -74.5t16.5 -93q0 -69 -30.5 -122.5t-79.5 -102.5l-224 -227h361v-88h-496v74l292 295q35 35 57.5 75t22.5 89q0 31 -10.5 58.5t-31 48t-50 32t-66.5 11.5
q-33 0 -59 -8t-47.5 -21.5t-38.5 -31t-31 -36.5zM378 634h-95v641l-232 -95v94l327 133v-773z" />
    <glyph glyph-name="threequarters" unicode="&#xbe;" horiz-adv-x="1677" 
d="M484 0h-115l883 1400h115zM1508 244h128v-87h-128v-157h-95v157h-365v69l274 538h104l-266 -520h253v217h95v-217zM293 1408q58 0 106 -15t82.5 -42.5t53.5 -65.5t19 -84q0 -69 -36.5 -114.5t-96.5 -66.5q68 -20 108.5 -67t40.5 -114q0 -54 -23 -94.5t-60.5 -67
t-86.5 -39.5t-101 -13q-80 0 -142 26t-106 72l55 63q36 -35 84 -55t105 -20q35 0 67 8t56.5 25t39 42.5t14.5 60.5q0 31 -14.5 55.5t-39 41t-57.5 25.5t-70 9h-103v84h103q35 0 65 8.5t52.5 25t35 41.5t12.5 57q0 29 -12.5 52.5t-34.5 40.5t-52.5 26t-67.5 9
q-60 0 -104 -24.5t-73 -59.5l-58 60q38 47 97 78.5t142 31.5z" />
    <glyph glyph-name="questiondown" unicode="&#xbf;" horiz-adv-x="848" 
d="M628 506v-310h-49q-89 0 -160 -19.5t-120.5 -56t-76 -89t-26.5 -118.5q0 -63 27 -113t76.5 -85.5t118.5 -54.5t153 -19q32 0 65 2.5t59 4.5l10 -116q-29 -5 -67.5 -7.5t-72.5 -2.5q-112 0 -203 27.5t-156 78t-100.5 122t-35.5 159.5q0 84 30 152.5t87 119.5t140 82
t189 40l8 203h104zM576 764q-19 0 -36.5 7.5t-30.5 21t-21 30.5t-8 37q0 19 8 36.5t21 30.5t30.5 21t36.5 8t36.5 -8t30.5 -21t21 -30.5t8 -36.5q0 -20 -8 -37t-21 -30.5t-30.5 -21t-36.5 -7.5z" />
    <glyph glyph-name="Agrave" unicode="&#xc0;" horiz-adv-x="1406" 
d="M1366 0h-131l-170 409h-728l-170 -409h-127l588 1400h150zM386 525h630l-315 756zM462 1797h144l220 -300h-113z" />
    <glyph glyph-name="Aacute" unicode="&#xc1;" horiz-adv-x="1406" 
d="M1366 0h-131l-170 409h-728l-170 -409h-127l588 1400h150zM386 525h630l-315 756zM572 1497l220 300h144l-251 -300h-113z" />
    <glyph glyph-name="Acircumflex" unicode="&#xc2;" horiz-adv-x="1406" 
d="M1366 0h-131l-170 409h-728l-170 -409h-127l588 1400h150zM386 525h630l-315 756zM903 1503l-200 205l-200 -205h-123l248 282h150l248 -282h-123z" />
    <glyph glyph-name="Atilde" unicode="&#xc3;" horiz-adv-x="1406" 
d="M1366 0h-131l-170 409h-728l-170 -409h-127l588 1400h150zM386 525h630l-315 756zM363 1632q42 55 89.5 82.5t116.5 27.5q51 0 85.5 -13.5t63 -29.5t55.5 -29.5t63 -13.5q42 0 74 19.5t64 57.5l69 -65q-42 -55 -90.5 -83t-116.5 -28q-50 0 -84.5 13.5t-63 30t-56 30
t-63.5 13.5q-42 0 -74 -19.5t-64 -57.5z" />
    <glyph glyph-name="Adieresis" unicode="&#xc4;" horiz-adv-x="1406" 
d="M1366 0h-131l-170 409h-728l-170 -409h-127l588 1400h150zM386 525h630l-315 756zM498 1725q35 0 58.5 -24t23.5 -59t-23.5 -58t-58.5 -23t-58 23t-23 58t23 59t58 24zM907 1725q35 0 59 -24t24 -59t-24 -58t-59 -23t-58 23t-23 58t23 59t58 24z" />
    <glyph glyph-name="Aring" unicode="&#xc5;" horiz-adv-x="1406" 
d="M1366 0h-131l-170 409h-728l-170 -409h-127l588 1400h150zM386 525h630l-315 756zM703 1481q-44 0 -83.5 16.5t-68.5 45.5t-46 68t-17 83t17 82.5t46 67.5t68.5 46t83.5 17t83 -17t68.5 -46t46.5 -67.5t17 -82.5t-17 -83t-46.5 -68t-68.5 -45.5t-83 -16.5zM703 1554
q28 0 53.5 11t44 30t29.5 44.5t11 54.5t-11 54.5t-29.5 44t-44 29.5t-53.5 11q-29 0 -54 -11t-43.5 -29.5t-29.5 -44t-11 -54.5t11 -54.5t29.5 -44.5t43.5 -30t54 -11z" />
    <glyph glyph-name="AE" unicode="&#xc6;" horiz-adv-x="2265" 
d="M2097 0h-964v390h-658l-296 -390h-147l1067 1400h991v-115h-835v-523h811v-114h-811v-533h842v-115zM1133 506v748l-569 -748h569z" />
    <glyph glyph-name="Ccedilla" unicode="&#xc7;" horiz-adv-x="1528" 
d="M843 1416q90 0 174 -20t157.5 -57.5t133 -90.5t101.5 -120l-102 -68q-36 55 -85.5 99t-109 75t-128 47.5t-141.5 16.5q-125 0 -232.5 -43t-187 -122t-125 -189t-45.5 -244t45.5 -244t125 -189t187 -122t232.5 -43q73 0 141 16t127.5 47t109 75t85.5 100l100 -73
q-44 -66 -103.5 -118t-132 -89t-155.5 -56.5t-172 -19.5q-153 0 -284.5 53t-227.5 147.5t-150.5 226t-54.5 289.5q0 157 54.5 289t150.5 226.5t227.5 147.5t284.5 53zM810 -323h-124l109 329l118 -1z" />
    <glyph glyph-name="Egrave" unicode="&#xc8;" horiz-adv-x="1341" 
d="M1173 0h-964v1400h957v-115h-835v-523h811v-114h-811v-533h842v-115zM440 1797h144l220 -300h-113z" />
    <glyph glyph-name="Eacute" unicode="&#xc9;" horiz-adv-x="1341" 
d="M1173 0h-964v1400h957v-115h-835v-523h811v-114h-811v-533h842v-115zM550 1497l220 300h144l-251 -300h-113z" />
    <glyph glyph-name="Ecircumflex" unicode="&#xca;" horiz-adv-x="1341" 
d="M1173 0h-964v1400h957v-115h-835v-523h811v-114h-811v-533h842v-115zM881 1503l-200 205l-200 -205h-123l248 282h150l248 -282h-123z" />
    <glyph glyph-name="Edieresis" unicode="&#xcb;" horiz-adv-x="1341" 
d="M1173 0h-964v1400h957v-115h-835v-523h811v-114h-811v-533h842v-115zM476 1725q35 0 58.5 -24t23.5 -59t-23.5 -58t-58.5 -23t-58 23t-23 58t23 59t58 24zM885 1725q35 0 59 -24t24 -59t-24 -58t-59 -23t-58 23t-23 58t23 59t58 24z" />
    <glyph glyph-name="Igrave" unicode="&#xcc;" horiz-adv-x="541" 
d="M331 0h-122v1400h122v-1400zM29 1797h144l220 -300h-113z" />
    <glyph glyph-name="Iacute" unicode="&#xcd;" horiz-adv-x="541" 
d="M331 0h-122v1400h122v-1400zM139 1497l220 300h144l-251 -300h-113z" />
    <glyph glyph-name="Icircumflex" unicode="&#xce;" horiz-adv-x="541" 
d="M331 0h-122v1400h122v-1400zM470 1503l-200 205l-200 -205h-123l248 282h150l248 -282h-123z" />
    <glyph glyph-name="Idieresis" unicode="&#xcf;" horiz-adv-x="541" 
d="M331 0h-122v1400h122v-1400zM65 1725q35 0 58.5 -24t23.5 -59t-23.5 -58t-58.5 -23t-58 23t-23 58t23 59t58 24zM474 1725q35 0 59 -24t24 -59t-24 -58t-59 -23t-58 23t-23 58t23 59t58 24z" />
    <glyph glyph-name="Eth" unicode="&#xd0;" horiz-adv-x="1775" 
d="M893 1400q175 0 315 -49t238 -140t151 -220.5t53 -290.5t-53 -290.5t-151 -220.5t-238 -140t-315 -49h-511v647h-257v116h257v637h511zM924 647h-420v-531h389q153 0 270 41.5t197 117.5t121 184t41 241t-41 241t-121 184.5t-197 117.5t-270 41h-389v-521h420v-116z" />
    <glyph glyph-name="Ntilde" unicode="&#xd1;" horiz-adv-x="1569" 
d="M1359 0h-110l-917 1190l-1 -1190h-122v1400h110l918 -1190v1190h122v-1400zM444 1632q42 55 89.5 82.5t116.5 27.5q51 0 85.5 -13.5t63 -29.5t55.5 -29.5t63 -13.5q42 0 74 19.5t64 57.5l69 -65q-42 -55 -90.5 -83t-116.5 -28q-50 0 -84.5 13.5t-63 30t-56 30t-63.5 13.5
q-42 0 -74 -19.5t-64 -57.5z" />
    <glyph glyph-name="Ograve" unicode="&#xd2;" horiz-adv-x="1685" 
d="M843 1416q153 0 284.5 -53t227.5 -147.5t150.5 -226.5t54.5 -289q0 -158 -54.5 -289.5t-150.5 -226t-227.5 -147.5t-284.5 -53t-284.5 53t-227.5 147.5t-150.5 226t-54.5 289.5q0 157 54.5 289t150.5 226.5t227.5 147.5t284.5 53zM843 1298q-125 0 -232.5 -43t-187 -122
t-125 -189t-45.5 -244t45.5 -244t125 -189t187 -122t232.5 -43q124 0 231.5 43t187 122t125 189t45.5 244t-45.5 244t-125 189t-187 122t-231.5 43zM602 1797h144l220 -300h-113z" />
    <glyph glyph-name="Oacute" unicode="&#xd3;" horiz-adv-x="1685" 
d="M843 1416q153 0 284.5 -53t227.5 -147.5t150.5 -226.5t54.5 -289q0 -158 -54.5 -289.5t-150.5 -226t-227.5 -147.5t-284.5 -53t-284.5 53t-227.5 147.5t-150.5 226t-54.5 289.5q0 157 54.5 289t150.5 226.5t227.5 147.5t284.5 53zM843 1298q-125 0 -232.5 -43t-187 -122
t-125 -189t-45.5 -244t45.5 -244t125 -189t187 -122t232.5 -43q124 0 231.5 43t187 122t125 189t45.5 244t-45.5 244t-125 189t-187 122t-231.5 43zM712 1497l220 300h144l-251 -300h-113z" />
    <glyph glyph-name="Ocircumflex" unicode="&#xd4;" horiz-adv-x="1685" 
d="M843 1416q153 0 284.5 -53t227.5 -147.5t150.5 -226.5t54.5 -289q0 -158 -54.5 -289.5t-150.5 -226t-227.5 -147.5t-284.5 -53t-284.5 53t-227.5 147.5t-150.5 226t-54.5 289.5q0 157 54.5 289t150.5 226.5t227.5 147.5t284.5 53zM843 1298q-125 0 -232.5 -43t-187 -122
t-125 -189t-45.5 -244t45.5 -244t125 -189t187 -122t232.5 -43q124 0 231.5 43t187 122t125 189t45.5 244t-45.5 244t-125 189t-187 122t-231.5 43zM1043 1503l-200 205l-200 -205h-123l248 282h150l248 -282h-123z" />
    <glyph glyph-name="Otilde" unicode="&#xd5;" horiz-adv-x="1685" 
d="M843 1416q153 0 284.5 -53t227.5 -147.5t150.5 -226.5t54.5 -289q0 -158 -54.5 -289.5t-150.5 -226t-227.5 -147.5t-284.5 -53t-284.5 53t-227.5 147.5t-150.5 226t-54.5 289.5q0 157 54.5 289t150.5 226.5t227.5 147.5t284.5 53zM843 1298q-125 0 -232.5 -43t-187 -122
t-125 -189t-45.5 -244t45.5 -244t125 -189t187 -122t232.5 -43q124 0 231.5 43t187 122t125 189t45.5 244t-45.5 244t-125 189t-187 122t-231.5 43zM503 1632q42 55 89.5 82.5t116.5 27.5q51 0 85.5 -13.5t63 -29.5t55.5 -29.5t63 -13.5q42 0 74 19.5t64 57.5l69 -65
q-42 -55 -90.5 -83t-116.5 -28q-50 0 -84.5 13.5t-63 30t-56 30t-63.5 13.5q-42 0 -74 -19.5t-64 -57.5z" />
    <glyph glyph-name="Odieresis" unicode="&#xd6;" horiz-adv-x="1685" 
d="M843 1416q153 0 284.5 -53t227.5 -147.5t150.5 -226.5t54.5 -289q0 -158 -54.5 -289.5t-150.5 -226t-227.5 -147.5t-284.5 -53t-284.5 53t-227.5 147.5t-150.5 226t-54.5 289.5q0 157 54.5 289t150.5 226.5t227.5 147.5t284.5 53zM843 1298q-125 0 -232.5 -43t-187 -122
t-125 -189t-45.5 -244t45.5 -244t125 -189t187 -122t232.5 -43q124 0 231.5 43t187 122t125 189t45.5 244t-45.5 244t-125 189t-187 122t-231.5 43zM638 1725q35 0 58.5 -24t23.5 -59t-23.5 -58t-58.5 -23t-58 23t-23 58t23 59t58 24zM1047 1725q35 0 59 -24t24 -59t-24 -58
t-59 -23t-58 23t-23 58t23 59t58 24z" />
    <glyph glyph-name="multiply" unicode="&#xd7;" horiz-adv-x="1200" 
d="M227 229l296 296l-297 299l76 75l297 -298l301 301l73 -74l-300 -301l301 -301l-75 -75l-302 301l-296 -297z" />
    <glyph glyph-name="Oslash" unicode="&#xd8;" horiz-adv-x="1685" 
d="M843 1416q139 0 258 -43t213 -121l163 163l81 -81l-163 -163q78 -92 121.5 -211t43.5 -260q0 -158 -54.5 -289.5t-150.5 -226t-227.5 -147.5t-284.5 -53q-139 0 -258.5 43t-213.5 121l-162 -162l-81 80l162 162q-78 93 -121 212t-43 260q0 157 54.5 289t150.5 226.5
t227.5 147.5t284.5 53zM843 1298q-125 0 -232.5 -43t-187 -122t-125 -189t-45.5 -244q0 -115 33 -211.5t93 -171.5l847 847q-77 64 -174 99t-209 35zM1432 700q0 114 -33 210.5t-93 171.5l-848 -847q78 -64 175.5 -98.5t209.5 -34.5q124 0 231.5 43t187 122t125 189
t45.5 244z" />
    <glyph glyph-name="Ugrave" unicode="&#xd9;" horiz-adv-x="1510" 
d="M1321 545q0 -140 -44.5 -245t-121.5 -175t-180 -105t-221 -35t-221 35t-179.5 105t-121 175t-44.5 245v855h122v-846q0 -116 34 -201t93.5 -140.5t140.5 -83t176 -27.5t176 27.5t140.5 83t93.5 140.5t34 201v846h123v-855zM513 1797h144l220 -300h-113z" />
    <glyph glyph-name="Uacute" unicode="&#xda;" horiz-adv-x="1510" 
d="M1321 545q0 -140 -44.5 -245t-121.5 -175t-180 -105t-221 -35t-221 35t-179.5 105t-121 175t-44.5 245v855h122v-846q0 -116 34 -201t93.5 -140.5t140.5 -83t176 -27.5t176 27.5t140.5 83t93.5 140.5t34 201v846h123v-855zM623 1497l220 300h144l-251 -300h-113z" />
    <glyph glyph-name="Ucircumflex" unicode="&#xdb;" horiz-adv-x="1510" 
d="M1321 545q0 -140 -44.5 -245t-121.5 -175t-180 -105t-221 -35t-221 35t-179.5 105t-121 175t-44.5 245v855h122v-846q0 -116 34 -201t93.5 -140.5t140.5 -83t176 -27.5t176 27.5t140.5 83t93.5 140.5t34 201v846h123v-855zM954 1503l-200 205l-200 -205h-123l248 282h150
l248 -282h-123z" />
    <glyph glyph-name="Udieresis" unicode="&#xdc;" horiz-adv-x="1510" 
d="M1321 545q0 -140 -44.5 -245t-121.5 -175t-180 -105t-221 -35t-221 35t-179.5 105t-121 175t-44.5 245v855h122v-846q0 -116 34 -201t93.5 -140.5t140.5 -83t176 -27.5t176 27.5t140.5 83t93.5 140.5t34 201v846h123v-855zM549 1725q35 0 58.5 -24t23.5 -59t-23.5 -58
t-58.5 -23t-58 23t-23 58t23 59t58 24zM958 1725q35 0 59 -24t24 -59t-24 -58t-59 -23t-58 23t-23 58t23 59t58 24z" />
    <glyph glyph-name="Yacute" unicode="&#xdd;" horiz-adv-x="1263" 
d="M693 600v-600h-122v602l-559 798h146l475 -685l475 685h143zM502 1497l220 300h144l-251 -300h-113z" />
    <glyph glyph-name="Thorn" unicode="&#xde;" horiz-adv-x="1331" 
d="M331 1130h398q116 0 208 -28t155.5 -81.5t97.5 -130.5t34 -175t-34 -175.5t-97.5 -130.5t-155.5 -81t-208 -28h-398v-300h-122v1400h122v-270zM331 1015v-599h395q88 0 157 19t116.5 56.5t72.5 93.5t25 130t-25 130.5t-72.5 94t-116.5 56.5t-157 19h-395z" />
    <glyph glyph-name="germandbls" unicode="&#xdf;" horiz-adv-x="1216" 
d="M173 1020q0 94 29.5 174t86.5 138t140.5 90.5t192.5 32.5q93 0 174.5 -27t142 -76t95.5 -119t35 -155q0 -68 -18 -123.5t-49.5 -98t-74.5 -73t-92 -46.5q57 -15 107 -46.5t87 -77.5t58.5 -103.5t21.5 -124.5q0 -94 -32.5 -168.5t-88.5 -126t-130.5 -78.5t-158.5 -27
q-82 0 -139.5 13.5t-105.5 35.5l28 103q41 -21 89.5 -33.5t110.5 -12.5q67 0 124.5 19.5t98.5 57t64.5 93t23.5 128.5q0 70 -25.5 124t-72 90.5t-110.5 55.5t-142 19h-71v103h48q66 0 126.5 15t106 48.5t73 87t27.5 129.5q0 70 -26 124t-71.5 90t-106 54.5t-129.5 18.5
q-75 0 -136.5 -23t-105 -66.5t-67.5 -105.5t-24 -141v-1012h-114v1020z" />
    <glyph glyph-name="agrave" unicode="&#xe0;" horiz-adv-x="1244" 
d="M1063 0h-113v181q-57 -89 -150.5 -142.5t-222.5 -53.5q-99 0 -185 36.5t-149 101t-99.5 153.5t-36.5 194t36.5 194t99.5 154t149 101.5t185 36.5q129 0 222.5 -54t150.5 -142v181h113v-941zM590 849q-81 0 -148.5 -29.5t-116 -80.5t-75.5 -120t-27 -149t27 -149t76 -120
t116.5 -80t147.5 -29t147 28.5t116 79.5t76 120t27 150t-27 150.5t-76 120t-116 79.5t-147 29zM348 1382h144l220 -300h-113z" />
    <glyph glyph-name="aacute" unicode="&#xe1;" horiz-adv-x="1244" 
d="M1063 0h-113v181q-57 -89 -150.5 -142.5t-222.5 -53.5q-99 0 -185 36.5t-149 101t-99.5 153.5t-36.5 194t36.5 194t99.5 154t149 101.5t185 36.5q129 0 222.5 -54t150.5 -142v181h113v-941zM590 849q-81 0 -148.5 -29.5t-116 -80.5t-75.5 -120t-27 -149t27 -149t76 -120
t116.5 -80t147.5 -29t147 28.5t116 79.5t76 120t27 150t-27 150.5t-76 120t-116 79.5t-147 29zM488 1082l220 300h144l-251 -300h-113z" />
    <glyph glyph-name="acircumflex" unicode="&#xe2;" horiz-adv-x="1244" 
d="M1063 0h-113v181q-57 -89 -150.5 -142.5t-222.5 -53.5q-99 0 -185 36.5t-149 101t-99.5 153.5t-36.5 194t36.5 194t99.5 154t149 101.5t185 36.5q129 0 222.5 -54t150.5 -142v181h113v-941zM590 849q-81 0 -148.5 -29.5t-116 -80.5t-75.5 -120t-27 -149t27 -149t76 -120
t116.5 -80t147.5 -29t147 28.5t116 79.5t76 120t27 150t-27 150.5t-76 120t-116 79.5t-147 29zM806 1088l-200 205l-200 -205h-123l248 282h150l248 -282h-123z" />
    <glyph glyph-name="atilde" unicode="&#xe3;" horiz-adv-x="1244" 
d="M1063 0h-113v181q-57 -89 -150.5 -142.5t-222.5 -53.5q-99 0 -185 36.5t-149 101t-99.5 153.5t-36.5 194t36.5 194t99.5 154t149 101.5t185 36.5q129 0 222.5 -54t150.5 -142v181h113v-941zM590 849q-81 0 -148.5 -29.5t-116 -80.5t-75.5 -120t-27 -149t27 -149t76 -120
t116.5 -80t147.5 -29t147 28.5t116 79.5t76 120t27 150t-27 150.5t-76 120t-116 79.5t-147 29zM277 1217q42 55 89.5 82.5t116.5 27.5q51 0 85.5 -13.5t63 -29.5t55.5 -29.5t63 -13.5q42 0 74 19.5t64 57.5l69 -65q-42 -55 -90.5 -83t-116.5 -28q-50 0 -84.5 13.5t-63 30
t-56 30t-63.5 13.5q-42 0 -74 -19.5t-64 -57.5z" />
    <glyph glyph-name="adieresis" unicode="&#xe4;" horiz-adv-x="1244" 
d="M1063 0h-113v181q-57 -89 -150.5 -142.5t-222.5 -53.5q-99 0 -185 36.5t-149 101t-99.5 153.5t-36.5 194t36.5 194t99.5 154t149 101.5t185 36.5q129 0 222.5 -54t150.5 -142v181h113v-941zM590 849q-81 0 -148.5 -29.5t-116 -80.5t-75.5 -120t-27 -149t27 -149t76 -120
t116.5 -80t147.5 -29t147 28.5t116 79.5t76 120t27 150t-27 150.5t-76 120t-116 79.5t-147 29zM401 1310q35 0 58.5 -24t23.5 -59t-23.5 -58t-58.5 -23t-58 23t-23 58t23 59t58 24zM810 1310q35 0 59 -24t24 -59t-24 -58t-59 -23t-58 23t-23 58t23 59t58 24z" />
    <glyph glyph-name="aring" unicode="&#xe5;" horiz-adv-x="1244" 
d="M1063 0h-113v181q-57 -89 -150.5 -142.5t-222.5 -53.5q-99 0 -185 36.5t-149 101t-99.5 153.5t-36.5 194t36.5 194t99.5 154t149 101.5t185 36.5q129 0 222.5 -54t150.5 -142v181h113v-941zM590 849q-81 0 -148.5 -29.5t-116 -80.5t-75.5 -120t-27 -149t27 -149t76 -120
t116.5 -80t147.5 -29t147 28.5t116 79.5t76 120t27 150t-27 150.5t-76 120t-116 79.5t-147 29zM606 1066q-44 0 -83.5 16.5t-68.5 45.5t-46 68t-17 83t17 82.5t46 67.5t68.5 46t83.5 17t83 -17t68.5 -46t46.5 -67.5t17 -82.5t-17 -83t-46.5 -68t-68.5 -45.5t-83 -16.5z
M606 1139q28 0 53.5 11t44 30t29.5 44.5t11 54.5t-11 54.5t-29.5 44t-44 29.5t-53.5 11q-29 0 -54 -11t-43.5 -29.5t-29.5 -44t-11 -54.5t11 -54.5t29.5 -44.5t43.5 -30t54 -11z" />
    <glyph glyph-name="ae" unicode="&#xe6;" horiz-adv-x="1819" 
d="M1272 956q94 0 174 -35.5t139 -99.5t92.5 -152t34.5 -194q0 -12 -0.5 -23.5t-1.5 -22.5h-788q6 -82 36.5 -146t79 -108.5t112 -67.5t135.5 -23q100 0 178.5 36.5t139.5 96.5l61 -77q-44 -45 -91 -75t-95.5 -48t-98 -25t-100.5 -7q-129 0 -230.5 53t-163.5 147
q-33 -42 -76 -78.5t-95.5 -63.5t-113.5 -42.5t-130 -15.5q-84 0 -151 20t-114.5 56t-72.5 86t-25 111q0 60 25 109.5t74 85t122 55t169 19.5h309v29q0 78 -21 134t-60 92.5t-95 53.5t-125 17q-93 0 -164.5 -30t-123.5 -70l-54 85q74 57 162.5 87.5t193.5 30.5q67 0 125 -13
t105.5 -40.5t81.5 -71.5t53 -106q27 52 67.5 95t91 73t108.5 46.5t121 16.5zM487 85q51 0 101.5 13t96.5 37t86 58.5t70 77.5q-29 75 -35 161h-297q-75 0 -128.5 -13t-87 -36.5t-49 -55.5t-15.5 -69t17 -68.5t50 -55t81 -36.5t110 -13zM1270 854q-71 0 -131 -24t-105 -67.5
t-73 -103.5t-37 -132h672q-6 73 -33 133t-70 103t-100 67t-123 24z" />
    <glyph glyph-name="ccedilla" unicode="&#xe7;" horiz-adv-x="1023" 
d="M589 956q105 0 194.5 -37.5t152.5 -108.5l-74 -77q-55 55 -123.5 85.5t-152.5 30.5q-77 0 -143.5 -28.5t-115.5 -79t-76.5 -120t-27.5 -151.5t27.5 -151.5t76.5 -119.5t115.5 -78.5t143.5 -28.5q84 0 154.5 32t124.5 85l71 -78q-64 -71 -153 -108.5t-194 -37.5
q-106 0 -194.5 37t-152.5 102t-99.5 153.5t-35.5 192.5t35.5 193t99.5 154t152.5 102t194.5 37zM541 -323h-119l108 329l114 -1z" />
    <glyph glyph-name="egrave" unicode="&#xe8;" horiz-adv-x="1121" 
d="M573 956q94 0 174.5 -35.5t139 -99t92.5 -152t35 -193.5q0 -13 -0.5 -24.5t-1.5 -22.5h-789q6 -82 36.5 -146t79.5 -108.5t112.5 -67.5t135.5 -23q99 0 177 36t141 98l61 -78q-45 -45 -91.5 -75t-95 -48t-98.5 -25t-101 -7q-103 0 -190 35.5t-150 99.5t-98 153t-35 197
q0 106 35.5 195.5t98 154t148 100.5t184.5 36zM571 855q-72 0 -131.5 -24.5t-104.5 -68t-73.5 -103.5t-36.5 -132h673q-6 73 -33 133.5t-70.5 103.5t-100.5 67t-123 24zM313 1382h144l220 -300h-113z" />
    <glyph glyph-name="eacute" unicode="&#xe9;" horiz-adv-x="1121" 
d="M573 956q94 0 174.5 -35.5t139 -99t92.5 -152t35 -193.5q0 -13 -0.5 -24.5t-1.5 -22.5h-789q6 -82 36.5 -146t79.5 -108.5t112.5 -67.5t135.5 -23q99 0 177 36t141 98l61 -78q-45 -45 -91.5 -75t-95 -48t-98.5 -25t-101 -7q-103 0 -190 35.5t-150 99.5t-98 153t-35 197
q0 106 35.5 195.5t98 154t148 100.5t184.5 36zM571 855q-72 0 -131.5 -24.5t-104.5 -68t-73.5 -103.5t-36.5 -132h673q-6 73 -33 133.5t-70.5 103.5t-100.5 67t-123 24zM453 1082l220 300h144l-251 -300h-113z" />
    <glyph glyph-name="ecircumflex" unicode="&#xea;" horiz-adv-x="1121" 
d="M573 956q94 0 174.5 -35.5t139 -99t92.5 -152t35 -193.5q0 -13 -0.5 -24.5t-1.5 -22.5h-789q6 -82 36.5 -146t79.5 -108.5t112.5 -67.5t135.5 -23q99 0 177 36t141 98l61 -78q-45 -45 -91.5 -75t-95 -48t-98.5 -25t-101 -7q-103 0 -190 35.5t-150 99.5t-98 153t-35 197
q0 106 35.5 195.5t98 154t148 100.5t184.5 36zM571 855q-72 0 -131.5 -24.5t-104.5 -68t-73.5 -103.5t-36.5 -132h673q-6 73 -33 133.5t-70.5 103.5t-100.5 67t-123 24zM771 1088l-200 205l-200 -205h-123l248 282h150l248 -282h-123z" />
    <glyph glyph-name="edieresis" unicode="&#xeb;" horiz-adv-x="1121" 
d="M573 956q94 0 174.5 -35.5t139 -99t92.5 -152t35 -193.5q0 -13 -0.5 -24.5t-1.5 -22.5h-789q6 -82 36.5 -146t79.5 -108.5t112.5 -67.5t135.5 -23q99 0 177 36t141 98l61 -78q-45 -45 -91.5 -75t-95 -48t-98.5 -25t-101 -7q-103 0 -190 35.5t-150 99.5t-98 153t-35 197
q0 106 35.5 195.5t98 154t148 100.5t184.5 36zM571 855q-72 0 -131.5 -24.5t-104.5 -68t-73.5 -103.5t-36.5 -132h673q-6 73 -33 133.5t-70.5 103.5t-100.5 67t-123 24zM366 1310q35 0 58.5 -24t23.5 -59t-23.5 -58t-58.5 -23t-58 23t-23 58t23 59t58 24zM775 1310
q35 0 59 -24t24 -59t-24 -58t-59 -23t-58 23t-23 58t23 59t58 24z" />
    <glyph glyph-name="igrave" unicode="&#xec;" horiz-adv-x="477" 
d="M296 0h-114v941h114v-941zM-19 1382h144l220 -300h-113z" />
    <glyph glyph-name="iacute" unicode="&#xed;" horiz-adv-x="477" 
d="M296 0h-114v941h114v-941zM121 1082l220 300h144l-251 -300h-113z" />
    <glyph glyph-name="icircumflex" unicode="&#xee;" horiz-adv-x="477" 
d="M296 0h-114v941h114v-941zM439 1088l-200 205l-200 -205h-123l248 282h150l248 -282h-123z" />
    <glyph glyph-name="idieresis" unicode="&#xef;" horiz-adv-x="477" 
d="M296 0h-114v941h114v-941zM34 1310q35 0 58.5 -24t23.5 -59t-23.5 -58t-58.5 -23t-58 23t-23 58t23 59t58 24zM443 1310q35 0 59 -24t24 -59t-24 -58t-59 -23t-58 23t-23 58t23 59t58 24z" />
    <glyph glyph-name="eth" unicode="&#xf0;" horiz-adv-x="1189" 
d="M926 1356l-222 -129q78 -69 147 -153.5t120 -180.5t81 -201t30 -215q0 -105 -37.5 -195t-102.5 -156t-154.5 -103.5t-192.5 -37.5q-104 0 -193.5 36.5t-155 100.5t-102.5 151.5t-37 189.5q0 103 36 190.5t99 152t148 101t184 36.5q103 0 189 -39.5t145 -111.5
q-45 101 -120 197t-181 181l-259 -150l-42 69l230 135q-54 37 -112.5 70.5t-123.5 62.5l51 92q80 -35 151 -77t134 -90l247 143zM595 836q-79 0 -147 -28t-118 -77.5t-78.5 -118t-28.5 -149.5t28.5 -149t78.5 -117.5t118 -77t147 -27.5t147.5 27.5t118.5 77t78.5 117.5
t28.5 149t-28.5 149.5t-78.5 118t-118.5 77.5t-147.5 28z" />
    <glyph glyph-name="ntilde" unicode="&#xf1;" horiz-adv-x="1198" 
d="M631 956q88 0 161 -26.5t125.5 -75.5t81 -119.5t28.5 -157.5v-577h-114v542q0 71 -20 128t-59 96.5t-95 60.5t-128 21q-66 0 -123.5 -22.5t-100 -64t-67 -99t-24.5 -126.5v-536h-114v941h113v-165q28 47 65.5 81t81.5 56t92 32.5t97 10.5zM285 1217q42 55 89.5 82.5
t116.5 27.5q51 0 85.5 -13.5t63 -29.5t55.5 -29.5t63 -13.5q42 0 74 19.5t64 57.5l69 -65q-42 -55 -90.5 -83t-116.5 -28q-50 0 -84.5 13.5t-63 30t-56 30t-63.5 13.5q-42 0 -74 -19.5t-64 -57.5z" />
    <glyph glyph-name="ograve" unicode="&#xf2;" horiz-adv-x="1192" 
d="M595 956q105 0 194.5 -37t155 -102t103 -154t37.5 -193t-37.5 -192.5t-103 -153.5t-155 -102t-194.5 -37t-194 37t-154.5 102t-102.5 153.5t-37 192.5t37 193t102.5 154t154.5 102t194 37zM595 849q-79 0 -147 -28.5t-118 -79t-78.5 -120t-28.5 -151.5t28.5 -151.5
t78.5 -119.5t118 -78.5t147 -28.5t147.5 28.5t118.5 78.5t78.5 119.5t28.5 151.5t-28.5 151.5t-78.5 120t-118.5 79t-147.5 28.5zM338 1382h144l220 -300h-113z" />
    <glyph glyph-name="oacute" unicode="&#xf3;" horiz-adv-x="1192" 
d="M595 956q105 0 194.5 -37t155 -102t103 -154t37.5 -193t-37.5 -192.5t-103 -153.5t-155 -102t-194.5 -37t-194 37t-154.5 102t-102.5 153.5t-37 192.5t37 193t102.5 154t154.5 102t194 37zM595 849q-79 0 -147 -28.5t-118 -79t-78.5 -120t-28.5 -151.5t28.5 -151.5
t78.5 -119.5t118 -78.5t147 -28.5t147.5 28.5t118.5 78.5t78.5 119.5t28.5 151.5t-28.5 151.5t-78.5 120t-118.5 79t-147.5 28.5zM478 1082l220 300h144l-251 -300h-113z" />
    <glyph glyph-name="ocircumflex" unicode="&#xf4;" horiz-adv-x="1192" 
d="M595 956q105 0 194.5 -37t155 -102t103 -154t37.5 -193t-37.5 -192.5t-103 -153.5t-155 -102t-194.5 -37t-194 37t-154.5 102t-102.5 153.5t-37 192.5t37 193t102.5 154t154.5 102t194 37zM595 849q-79 0 -147 -28.5t-118 -79t-78.5 -120t-28.5 -151.5t28.5 -151.5
t78.5 -119.5t118 -78.5t147 -28.5t147.5 28.5t118.5 78.5t78.5 119.5t28.5 151.5t-28.5 151.5t-78.5 120t-118.5 79t-147.5 28.5zM796 1088l-200 205l-200 -205h-123l248 282h150l248 -282h-123z" />
    <glyph glyph-name="otilde" unicode="&#xf5;" horiz-adv-x="1192" 
d="M595 956q105 0 194.5 -37t155 -102t103 -154t37.5 -193t-37.5 -192.5t-103 -153.5t-155 -102t-194.5 -37t-194 37t-154.5 102t-102.5 153.5t-37 192.5t37 193t102.5 154t154.5 102t194 37zM595 849q-79 0 -147 -28.5t-118 -79t-78.5 -120t-28.5 -151.5t28.5 -151.5
t78.5 -119.5t118 -78.5t147 -28.5t147.5 28.5t118.5 78.5t78.5 119.5t28.5 151.5t-28.5 151.5t-78.5 120t-118.5 79t-147.5 28.5zM267 1217q42 55 89.5 82.5t116.5 27.5q51 0 85.5 -13.5t63 -29.5t55.5 -29.5t63 -13.5q42 0 74 19.5t64 57.5l69 -65q-42 -55 -90.5 -83
t-116.5 -28q-50 0 -84.5 13.5t-63 30t-56 30t-63.5 13.5q-42 0 -74 -19.5t-64 -57.5z" />
    <glyph glyph-name="odieresis" unicode="&#xf6;" horiz-adv-x="1192" 
d="M595 956q105 0 194.5 -37t155 -102t103 -154t37.5 -193t-37.5 -192.5t-103 -153.5t-155 -102t-194.5 -37t-194 37t-154.5 102t-102.5 153.5t-37 192.5t37 193t102.5 154t154.5 102t194 37zM595 849q-79 0 -147 -28.5t-118 -79t-78.5 -120t-28.5 -151.5t28.5 -151.5
t78.5 -119.5t118 -78.5t147 -28.5t147.5 28.5t118.5 78.5t78.5 119.5t28.5 151.5t-28.5 151.5t-78.5 120t-118.5 79t-147.5 28.5zM391 1310q35 0 58.5 -24t23.5 -59t-23.5 -58t-58.5 -23t-58 23t-23 58t23 59t58 24zM800 1310q35 0 59 -24t24 -59t-24 -58t-59 -23t-58 23
t-23 58t23 59t58 24z" />
    <glyph glyph-name="divide" unicode="&#xf7;" horiz-adv-x="1200" 
d="M1026 475h-852v103h852v-103zM601 918q16 0 30.5 -6.5t25.5 -17.5t17.5 -25.5t6.5 -30.5t-6.5 -30.5t-17.5 -26t-25.5 -18t-30.5 -6.5t-30.5 6.5t-26 18t-18 26t-6.5 30.5t6.5 30.5t18 25.5t26 17.5t30.5 6.5zM601 296q16 0 30.5 -6.5t25.5 -17t17.5 -25.5t6.5 -31
t-6.5 -30.5t-17.5 -25.5t-25.5 -17.5t-30.5 -6.5t-30.5 6.5t-26 17.5t-18 25.5t-6.5 30.5t6.5 31t18 25.5t26 17t30.5 6.5z" />
    <glyph glyph-name="oslash" unicode="&#xf8;" horiz-adv-x="1192" 
d="M595 956q91 0 170 -28t142 -78l116 116l70 -68l-117 -117q51 -63 80 -141.5t29 -169.5q0 -104 -37.5 -192.5t-103 -153.5t-155 -102t-194.5 -37q-91 0 -169.5 27t-141.5 77l-115 -115l-70 68l116 116q-51 63 -79.5 142t-28.5 170q0 104 37 193t102.5 154t154.5 102
t194 37zM595 849q-79 0 -147 -28.5t-118 -79t-78.5 -120t-28.5 -151.5q0 -68 19 -126t54 -105l532 532q-48 37 -107 57.5t-126 20.5zM968 470q0 67 -19 125t-53 106l-532 -532q48 -37 106 -57t125 -20q79 0 147.5 28.5t118.5 78.5t78.5 119.5t28.5 151.5z" />
    <glyph glyph-name="ugrave" unicode="&#xf9;" horiz-adv-x="1186" 
d="M1015 389q0 -100 -33.5 -175.5t-91 -126.5t-134 -76.5t-163.5 -25.5t-164 25.5t-134 76.5t-90.5 126.5t-33.5 175.5v552h114v-542q0 -76 22.5 -133.5t63.5 -96t97.5 -58t124.5 -19.5q67 0 124 19.5t97.5 58t63.5 96t23 133.5v542h114v-552zM335 1382h144l220 -300h-113z
" />
    <glyph glyph-name="uacute" unicode="&#xfa;" horiz-adv-x="1186" 
d="M1015 389q0 -100 -33.5 -175.5t-91 -126.5t-134 -76.5t-163.5 -25.5t-164 25.5t-134 76.5t-90.5 126.5t-33.5 175.5v552h114v-542q0 -76 22.5 -133.5t63.5 -96t97.5 -58t124.5 -19.5q67 0 124 19.5t97.5 58t63.5 96t23 133.5v542h114v-552zM475 1082l220 300h144
l-251 -300h-113z" />
    <glyph glyph-name="ucircumflex" unicode="&#xfb;" horiz-adv-x="1186" 
d="M1015 389q0 -100 -33.5 -175.5t-91 -126.5t-134 -76.5t-163.5 -25.5t-164 25.5t-134 76.5t-90.5 126.5t-33.5 175.5v552h114v-542q0 -76 22.5 -133.5t63.5 -96t97.5 -58t124.5 -19.5q67 0 124 19.5t97.5 58t63.5 96t23 133.5v542h114v-552zM793 1088l-200 205l-200 -205
h-123l248 282h150l248 -282h-123z" />
    <glyph glyph-name="udieresis" unicode="&#xfc;" horiz-adv-x="1186" 
d="M1015 389q0 -100 -33.5 -175.5t-91 -126.5t-134 -76.5t-163.5 -25.5t-164 25.5t-134 76.5t-90.5 126.5t-33.5 175.5v552h114v-542q0 -76 22.5 -133.5t63.5 -96t97.5 -58t124.5 -19.5q67 0 124 19.5t97.5 58t63.5 96t23 133.5v542h114v-552zM388 1310q35 0 58.5 -24
t23.5 -59t-23.5 -58t-58.5 -23t-58 23t-23 58t23 59t58 24zM797 1310q35 0 59 -24t24 -59t-24 -58t-59 -23t-58 23t-23 58t23 59t58 24z" />
    <glyph glyph-name="yacute" unicode="&#xfd;" horiz-adv-x="1028" 
d="M232 -403h-126l360 613l-442 731h128l379 -619l355 619h125zM401 1082l220 300h144l-251 -300h-113z" />
    <glyph glyph-name="thorn" unicode="&#xfe;" horiz-adv-x="1245" 
d="M667 956q99 0 185 -36.5t149.5 -101.5t100 -154t36.5 -194t-36.5 -194t-100 -153.5t-149.5 -101t-185 -36.5q-128 0 -221 53t-150 141v-579h-114v1840h114v-678q56 87 149.5 140.5t221.5 53.5zM654 849q-80 0 -147 -29t-115.5 -79.5t-76 -120t-27.5 -150.5t27.5 -150
t76 -120t115.5 -79.5t147 -28.5q81 0 148.5 29t116 80t75.5 120t27 149t-27.5 149t-76 120t-116 80.5t-147.5 29.5z" />
    <glyph glyph-name="ydieresis" unicode="&#xff;" horiz-adv-x="1028" 
d="M232 -403h-126l360 613l-442 731h128l379 -619l355 619h125zM314 1310q35 0 58.5 -24t23.5 -59t-23.5 -58t-58.5 -23t-58 23t-23 58t23 59t58 24zM723 1310q35 0 59 -24t24 -59t-24 -58t-59 -23t-58 23t-23 58t23 59t58 24z" />
    <glyph glyph-name="Amacron" unicode="&#x100;" horiz-adv-x="1406" 
d="M1366 0h-131l-170 409h-728l-170 -409h-127l588 1400h150zM386 525h630l-315 756zM411 1688h585v-93h-585v93z" />
    <glyph glyph-name="amacron" unicode="&#x101;" horiz-adv-x="1244" 
d="M1063 0h-113v181q-57 -89 -150.5 -142.5t-222.5 -53.5q-99 0 -185 36.5t-149 101t-99.5 153.5t-36.5 194t36.5 194t99.5 154t149 101.5t185 36.5q129 0 222.5 -54t150.5 -142v181h113v-941zM590 849q-81 0 -148.5 -29.5t-116 -80.5t-75.5 -120t-27 -149t27 -149t76 -120
t116.5 -80t147.5 -29t147 28.5t116 79.5t76 120t27 150t-27 150.5t-76 120t-116 79.5t-147 29zM314 1273h585v-93h-585v93z" />
    <glyph glyph-name="Abreve" unicode="&#x102;" horiz-adv-x="1406" 
d="M1366 0h-131l-170 409h-728l-170 -409h-127l588 1400h150zM386 525h630l-315 756zM470 1799q28 -101 87.5 -151t145.5 -50t145.5 50t87.5 151l93 -28q-36 -133 -120.5 -201.5t-205.5 -68.5t-205.5 68.5t-119.5 201.5z" />
    <glyph glyph-name="abreve" unicode="&#x103;" horiz-adv-x="1244" 
d="M1063 0h-113v181q-57 -89 -150.5 -142.5t-222.5 -53.5q-99 0 -185 36.5t-149 101t-99.5 153.5t-36.5 194t36.5 194t99.5 154t149 101.5t185 36.5q129 0 222.5 -54t150.5 -142v181h113v-941zM590 849q-81 0 -148.5 -29.5t-116 -80.5t-75.5 -120t-27 -149t27 -149t76 -120
t116.5 -80t147.5 -29t147 28.5t116 79.5t76 120t27 150t-27 150.5t-76 120t-116 79.5t-147 29zM373 1384q28 -101 87.5 -151t145.5 -50t145.5 50t87.5 151l93 -28q-36 -133 -120.5 -201.5t-205.5 -68.5t-205.5 68.5t-119.5 201.5z" />
    <glyph glyph-name="Aogonek" unicode="&#x104;" horiz-adv-x="1406" 
d="M1366 0h-131l-170 409h-728l-170 -409h-127l588 1400h150zM386 525h630l-315 756zM1373 -330q-41 -42 -87 -62t-99 -20q-44 0 -80.5 11.5t-63 33.5t-41.5 53t-15 69q0 46 21.5 85t62 74t100 67t134.5 65l28 -46q-120 -56 -179 -109t-59 -114q0 -42 28 -66.5t74 -24.5
q33 0 61.5 15t52.5 43z" />
    <glyph glyph-name="aogonek" unicode="&#x105;" horiz-adv-x="1244" 
d="M1063 0h-113v181q-57 -89 -150.5 -142.5t-222.5 -53.5q-99 0 -185 36.5t-149 101t-99.5 153.5t-36.5 194t36.5 194t99.5 154t149 101.5t185 36.5q129 0 222.5 -54t150.5 -142v181h113v-941zM590 849q-81 0 -148.5 -29.5t-116 -80.5t-75.5 -120t-27 -149t27 -149t76 -120
t116.5 -80t147.5 -29t147 28.5t116 79.5t76 120t27 150t-27 150.5t-76 120t-116 79.5t-147 29zM1103 -330q-41 -42 -87 -62t-99 -20q-44 0 -80.5 11.5t-63 33.5t-41.5 53t-15 69q0 46 21.5 85t62 74t100 67t134.5 65l28 -46q-120 -56 -179 -109t-59 -114q0 -42 28 -66.5
t74 -24.5q33 0 61.5 15t52.5 43z" />
    <glyph glyph-name="Cacute" unicode="&#x106;" horiz-adv-x="1528" 
d="M843 1416q90 0 174 -20t157.5 -57.5t133 -90.5t101.5 -120l-102 -68q-36 55 -85.5 99t-109 75t-128 47.5t-141.5 16.5q-125 0 -232.5 -43t-187 -122t-125 -189t-45.5 -244t45.5 -244t125 -189t187 -122t232.5 -43q73 0 141 16t127.5 47t109 75t85.5 100l100 -73
q-44 -66 -103.5 -118t-132 -89t-155.5 -56.5t-172 -19.5q-153 0 -284.5 53t-227.5 147.5t-150.5 226t-54.5 289.5q0 157 54.5 289t150.5 226.5t227.5 147.5t284.5 53zM707 1497l220 300h144l-251 -300h-113z" />
    <glyph glyph-name="cacute" unicode="&#x107;" horiz-adv-x="1023" 
d="M589 956q105 0 194.5 -37.5t152.5 -108.5l-74 -77q-55 55 -123.5 85.5t-152.5 30.5q-77 0 -143.5 -28.5t-115.5 -79t-76.5 -120t-27.5 -151.5t27.5 -151.5t76.5 -119.5t115.5 -78.5t143.5 -28.5q84 0 154.5 32t124.5 85l71 -78q-64 -71 -153 -108.5t-194 -37.5
q-106 0 -194.5 37t-152.5 102t-99.5 153.5t-35.5 192.5t35.5 193t99.5 154t152.5 102t194.5 37zM464 1082l220 300h144l-251 -300h-113z" />
    <glyph glyph-name="Ccircumflex" unicode="&#x108;" horiz-adv-x="1528" 
d="M843 1416q90 0 174 -20t157.5 -57.5t133 -90.5t101.5 -120l-102 -68q-36 55 -85.5 99t-109 75t-128 47.5t-141.5 16.5q-125 0 -232.5 -43t-187 -122t-125 -189t-45.5 -244t45.5 -244t125 -189t187 -122t232.5 -43q73 0 141 16t127.5 47t109 75t85.5 100l100 -73
q-44 -66 -103.5 -118t-132 -89t-155.5 -56.5t-172 -19.5q-153 0 -284.5 53t-227.5 147.5t-150.5 226t-54.5 289.5q0 157 54.5 289t150.5 226.5t227.5 147.5t284.5 53zM1038 1503l-200 205l-200 -205h-123l248 282h150l248 -282h-123z" />
    <glyph glyph-name="ccircumflex" unicode="&#x109;" horiz-adv-x="1023" 
d="M589 956q105 0 194.5 -37.5t152.5 -108.5l-74 -77q-55 55 -123.5 85.5t-152.5 30.5q-77 0 -143.5 -28.5t-115.5 -79t-76.5 -120t-27.5 -151.5t27.5 -151.5t76.5 -119.5t115.5 -78.5t143.5 -28.5q84 0 154.5 32t124.5 85l71 -78q-64 -71 -153 -108.5t-194 -37.5
q-106 0 -194.5 37t-152.5 102t-99.5 153.5t-35.5 192.5t35.5 193t99.5 154t152.5 102t194.5 37zM782 1088l-200 205l-200 -205h-123l248 282h150l248 -282h-123z" />
    <glyph glyph-name="Cdotaccent" unicode="&#x10a;" horiz-adv-x="1528" 
d="M843 1416q90 0 174 -20t157.5 -57.5t133 -90.5t101.5 -120l-102 -68q-36 55 -85.5 99t-109 75t-128 47.5t-141.5 16.5q-125 0 -232.5 -43t-187 -122t-125 -189t-45.5 -244t45.5 -244t125 -189t187 -122t232.5 -43q73 0 141 16t127.5 47t109 75t85.5 100l100 -73
q-44 -66 -103.5 -118t-132 -89t-155.5 -56.5t-172 -19.5q-153 0 -284.5 53t-227.5 147.5t-150.5 226t-54.5 289.5q0 157 54.5 289t150.5 226.5t227.5 147.5t284.5 53zM827.54 1730.33q35.9072 0 60.0176 -24.6221q24.1094 -24.623 24.1094 -60.5312
q0 -35.9072 -24.1094 -59.5039q-24.1104 -23.5967 -60.0176 -23.5967q-35.9082 0 -59.5049 23.5967t-23.5967 59.5039q0 35.9082 23.5967 60.5312q23.5967 24.6221 59.5049 24.6221z" />
    <glyph glyph-name="cdotaccent" unicode="&#x10b;" horiz-adv-x="1023" 
d="M589 956q105 0 194.5 -37.5t152.5 -108.5l-74 -77q-55 55 -123.5 85.5t-152.5 30.5q-77 0 -143.5 -28.5t-115.5 -79t-76.5 -120t-27.5 -151.5t27.5 -151.5t76.5 -119.5t115.5 -78.5t143.5 -28.5q84 0 154.5 32t124.5 85l71 -78q-64 -71 -153 -108.5t-194 -37.5
q-106 0 -194.5 37t-152.5 102t-99.5 153.5t-35.5 192.5t35.5 193t99.5 154t152.5 102t194.5 37zM582 1362q35 0 58.5 -24t23.5 -59t-23.5 -58t-58.5 -23t-58 23t-23 58t23 59t58 24z" />
    <glyph glyph-name="Ccaron" unicode="&#x10c;" horiz-adv-x="1528" 
d="M843 1416q90 0 174 -20t157.5 -57.5t133 -90.5t101.5 -120l-102 -68q-36 55 -85.5 99t-109 75t-128 47.5t-141.5 16.5q-125 0 -232.5 -43t-187 -122t-125 -189t-45.5 -244t45.5 -244t125 -189t187 -122t232.5 -43q73 0 141 16t127.5 47t109 75t85.5 100l100 -73
q-44 -66 -103.5 -118t-132 -89t-155.5 -56.5t-172 -19.5q-153 0 -284.5 53t-227.5 147.5t-150.5 226t-54.5 289.5q0 157 54.5 289t150.5 226.5t227.5 147.5t284.5 53zM638 1782l200 -204l200 204h123l-248 -281h-150l-248 281h123z" />
    <glyph glyph-name="ccaron" unicode="&#x10d;" horiz-adv-x="1023" 
d="M589 956q105 0 194.5 -37.5t152.5 -108.5l-74 -77q-55 55 -123.5 85.5t-152.5 30.5q-77 0 -143.5 -28.5t-115.5 -79t-76.5 -120t-27.5 -151.5t27.5 -151.5t76.5 -119.5t115.5 -78.5t143.5 -28.5q84 0 154.5 32t124.5 85l71 -78q-64 -71 -153 -108.5t-194 -37.5
q-106 0 -194.5 37t-152.5 102t-99.5 153.5t-35.5 192.5t35.5 193t99.5 154t152.5 102t194.5 37zM382 1367l200 -204l200 204h123l-248 -281h-150l-248 281h123z" />
    <glyph glyph-name="Dcaron" unicode="&#x10e;" horiz-adv-x="1602" 
d="M720 1400q175 0 315 -49t238 -140t151 -220.5t53 -290.5t-53 -290.5t-151 -220.5t-238 -140t-315 -49h-511v1400h511zM331 1284v-1168h389q153 0 270 41.5t197 117.5t121 184t41 241t-41 241t-121 184.5t-197 117.5t-270 41h-389zM536 1782l200 -204l200 204h123
l-248 -281h-150l-248 281h123z" />
    <glyph glyph-name="dcaron" unicode="&#x10f;" horiz-adv-x="1282" 
d="M577 956q129 0 222.5 -54t150.5 -142v680h113v-1440h-113v181q-57 -89 -150.5 -142.5t-222.5 -53.5q-99 0 -185 36.5t-149 101t-99.5 153.5t-36.5 194t36.5 194t99.5 154t149 101.5t185 36.5zM590 849q-81 0 -148.5 -29.5t-116 -80.5t-75.5 -120t-27 -149t27 -149
t76 -120t116.5 -80t147.5 -29t147 28.5t116 79.5t76 120t27 150t-27 150.5t-76 120t-116 79.5t-147 29zM1186 1051l11 389h117l-32 -389h-96z" />
    <glyph glyph-name="Dcroat" unicode="&#x110;" horiz-adv-x="1775" 
d="M893 1400q175 0 315 -49t238 -140t151 -220.5t53 -290.5t-53 -290.5t-151 -220.5t-238 -140t-315 -49h-511v647h-257v116h257v637h511zM924 647h-420v-531h389q153 0 270 41.5t197 117.5t121 184t41 241t-41 241t-121 184.5t-197 117.5t-270 41h-389v-521h420v-116z" />
    <glyph glyph-name="dcroat" unicode="&#x111;" horiz-adv-x="1244" 
d="M1225 1125h-162v-1125h-113v181q-57 -89 -150.5 -142.5t-222.5 -53.5q-99 0 -185 36.5t-149 101t-99.5 153.5t-36.5 194t36.5 194t99.5 154t149 101.5t185 36.5q129 0 222.5 -54t150.5 -142v365h-435v103h435v212h113v-212h162v-103zM590 849q-81 0 -148.5 -29.5
t-116 -80.5t-75.5 -120t-27 -149t27 -149t76 -120t116.5 -80t147.5 -29t147 28.5t116 79.5t76 120t27 150t-27 150.5t-76 120t-116 79.5t-147 29z" />
    <glyph glyph-name="Emacron" unicode="&#x112;" horiz-adv-x="1341" 
d="M1173 0h-964v1400h957v-115h-835v-523h811v-114h-811v-533h842v-115zM389 1688h585v-93h-585v93z" />
    <glyph glyph-name="emacron" unicode="&#x113;" horiz-adv-x="1121" 
d="M573 956q94 0 174.5 -35.5t139 -99t92.5 -152t35 -193.5q0 -13 -0.5 -24.5t-1.5 -22.5h-789q6 -82 36.5 -146t79.5 -108.5t112.5 -67.5t135.5 -23q99 0 177 36t141 98l61 -78q-45 -45 -91.5 -75t-95 -48t-98.5 -25t-101 -7q-103 0 -190 35.5t-150 99.5t-98 153t-35 197
q0 106 35.5 195.5t98 154t148 100.5t184.5 36zM571 855q-72 0 -131.5 -24.5t-104.5 -68t-73.5 -103.5t-36.5 -132h673q-6 73 -33 133.5t-70.5 103.5t-100.5 67t-123 24zM279 1273h585v-93h-585v93z" />
    <glyph glyph-name="Ebreve" unicode="&#x114;" horiz-adv-x="1341" 
d="M1173 0h-964v1400h957v-115h-835v-523h811v-114h-811v-533h842v-115zM448 1799q28 -101 87.5 -151t145.5 -50t145.5 50t87.5 151l93 -28q-36 -133 -120.5 -201.5t-205.5 -68.5t-205.5 68.5t-119.5 201.5z" />
    <glyph glyph-name="ebreve" unicode="&#x115;" horiz-adv-x="1121" 
d="M573 956q94 0 174.5 -35.5t139 -99t92.5 -152t35 -193.5q0 -13 -0.5 -24.5t-1.5 -22.5h-789q6 -82 36.5 -146t79.5 -108.5t112.5 -67.5t135.5 -23q99 0 177 36t141 98l61 -78q-45 -45 -91.5 -75t-95 -48t-98.5 -25t-101 -7q-103 0 -190 35.5t-150 99.5t-98 153t-35 197
q0 106 35.5 195.5t98 154t148 100.5t184.5 36zM571 855q-72 0 -131.5 -24.5t-104.5 -68t-73.5 -103.5t-36.5 -132h673q-6 73 -33 133.5t-70.5 103.5t-100.5 67t-123 24zM338 1384q28 -101 87.5 -151t145.5 -50t145.5 50t87.5 151l93 -28q-36 -133 -120.5 -201.5
t-205.5 -68.5t-205.5 68.5t-119.5 201.5z" />
    <glyph glyph-name="Edotaccent" unicode="&#x116;" horiz-adv-x="1341" 
d="M1173 0h-964v1400h957v-115h-835v-523h811v-114h-811v-533h842v-115zM670.54 1730.33q35.9072 0 60.0176 -24.6221q24.1094 -24.623 24.1094 -60.5312q0 -35.9072 -24.1094 -59.5039q-24.1104 -23.5967 -60.0176 -23.5967q-35.9082 0 -59.5049 23.5967t-23.5967 59.5039
q0 35.9082 23.5967 60.5312q23.5967 24.6221 59.5049 24.6221z" />
    <glyph glyph-name="edotaccent" unicode="&#x117;" horiz-adv-x="1121" 
d="M573 956q94 0 174.5 -35.5t139 -99t92.5 -152t35 -193.5q0 -13 -0.5 -24.5t-1.5 -22.5h-789q6 -82 36.5 -146t79.5 -108.5t112.5 -67.5t135.5 -23q99 0 177 36t141 98l61 -78q-45 -45 -91.5 -75t-95 -48t-98.5 -25t-101 -7q-103 0 -190 35.5t-150 99.5t-98 153t-35 197
q0 106 35.5 195.5t98 154t148 100.5t184.5 36zM571 855q-72 0 -131.5 -24.5t-104.5 -68t-73.5 -103.5t-36.5 -132h673q-6 73 -33 133.5t-70.5 103.5t-100.5 67t-123 24zM571 1362q35 0 58.5 -24t23.5 -59t-23.5 -58t-58.5 -23t-58 23t-23 58t23 59t58 24z" />
    <glyph glyph-name="Eogonek" unicode="&#x118;" horiz-adv-x="1341" 
d="M1173 0h-964v1400h957v-115h-835v-523h811v-114h-811v-533h842v-115zM1014 13q-90 -47 -136 -96t-46 -112q0 -54 38 -86.5t101 -32.5q88 0 154 63l61 -73q-45 -44 -102 -66t-120 -22q-54 0 -99 14.5t-77 41t-49.5 62.5t-17.5 79q0 48 18 86t53 70.5t85 60t115 53.5z" />
    <glyph glyph-name="eogonek" unicode="&#x119;" horiz-adv-x="1121" 
d="M573 956q94 0 174.5 -35.5t139 -99t92.5 -152t35 -193.5q0 -13 -0.5 -24.5t-1.5 -22.5h-789q6 -82 36.5 -146t79.5 -108.5t112.5 -67.5t135.5 -23q99 0 177 36t141 98l61 -78q-45 -45 -91.5 -75t-95 -48t-98.5 -25t-101 -7q-103 0 -190 35.5t-150 99.5t-98 153t-35 197
q0 106 35.5 195.5t98 154t148 100.5t184.5 36zM571 855q-72 0 -131.5 -24.5t-104.5 -68t-73.5 -103.5t-36.5 -132h673q-6 73 -33 133.5t-70.5 103.5t-100.5 67t-123 24zM955 -324q-45 -44 -102 -66t-120 -22q-54 0 -99 14.5t-77 41t-49.5 62.5t-17.5 79q0 54 23 96t65 77.5
t101 65.5t132 60l15 -45q-52 -27 -93.5 -53.5t-71 -54t-45 -58.5t-15.5 -68q0 -54 38 -86.5t101 -32.5q88 0 154 63z" />
    <glyph glyph-name="Ecaron" unicode="&#x11a;" horiz-adv-x="1341" 
d="M1173 0h-964v1400h957v-115h-835v-523h811v-114h-811v-533h842v-115zM481 1782l200 -204l200 204h123l-248 -281h-150l-248 281h123z" />
    <glyph glyph-name="ecaron" unicode="&#x11b;" horiz-adv-x="1121" 
d="M573 956q94 0 174.5 -35.5t139 -99t92.5 -152t35 -193.5q0 -13 -0.5 -24.5t-1.5 -22.5h-789q6 -82 36.5 -146t79.5 -108.5t112.5 -67.5t135.5 -23q99 0 177 36t141 98l61 -78q-45 -45 -91.5 -75t-95 -48t-98.5 -25t-101 -7q-103 0 -190 35.5t-150 99.5t-98 153t-35 197
q0 106 35.5 195.5t98 154t148 100.5t184.5 36zM571 855q-72 0 -131.5 -24.5t-104.5 -68t-73.5 -103.5t-36.5 -132h673q-6 73 -33 133.5t-70.5 103.5t-100.5 67t-123 24zM371 1367l200 -204l200 204h123l-248 -281h-150l-248 281h123z" />
    <glyph glyph-name="Gcircumflex" unicode="&#x11c;" horiz-adv-x="1637" 
d="M843 1416q166 0 305.5 -63.5t236.5 -175.5l-90 -87q-81 97 -197 152.5t-255 55.5q-125 0 -232.5 -43t-187 -122t-125 -189t-45.5 -244t45.5 -244t124.5 -189t185.5 -122t228.5 -43q120 0 217 36.5t166.5 104.5t110 164.5t47.5 216.5h-474v114h606q2 -10 2 -18v-15
q0 -154 -47 -286t-135 -228.5t-212.5 -151t-280.5 -54.5q-140 0 -268.5 49t-227 141.5t-157 225t-58.5 299.5q0 158 55 289.5t151 226.5t227 147.5t284 52.5zM1023 1503l-200 205l-200 -205h-123l248 282h150l248 -282h-123z" />
    <glyph glyph-name="gcircumflex" unicode="&#x11d;" horiz-adv-x="1236" 
d="M574 956q127 0 219.5 -54.5t147.5 -144.5v184h114v-877q0 -117 -38 -206t-105 -149t-157 -90.5t-194 -30.5q-58 0 -114 9.5t-107 27t-95.5 42.5t-79.5 57l58 83q67 -53 152.5 -84t185.5 -31q79 0 148.5 22.5t121 68.5t81 115t29.5 161v134q-55 -90 -147.5 -144
t-219.5 -54q-99 0 -184.5 35.5t-148.5 99t-98.5 152t-35.5 194.5q0 105 35.5 193.5t98.5 152t148.5 99t184.5 35.5zM586 849q-80 0 -147 -29t-115 -79.5t-74.5 -118.5t-26.5 -146q0 -79 26.5 -147t74.5 -118.5t115 -79.5t147 -29q79 0 146 28.5t115.5 78.5t75.5 118.5
t27 148.5q0 79 -27 147.5t-75.5 118.5t-115.5 78.5t-146 28.5zM800 1088l-200 205l-200 -205h-123l248 282h150l248 -282h-123z" />
    <glyph glyph-name="Gbreve" unicode="&#x11e;" horiz-adv-x="1637" 
d="M843 1416q166 0 305.5 -63.5t236.5 -175.5l-90 -87q-81 97 -197 152.5t-255 55.5q-125 0 -232.5 -43t-187 -122t-125 -189t-45.5 -244t45.5 -244t124.5 -189t185.5 -122t228.5 -43q120 0 217 36.5t166.5 104.5t110 164.5t47.5 216.5h-474v114h606q2 -10 2 -18v-15
q0 -154 -47 -286t-135 -228.5t-212.5 -151t-280.5 -54.5q-140 0 -268.5 49t-227 141.5t-157 225t-58.5 299.5q0 158 55 289.5t151 226.5t227 147.5t284 52.5zM590 1799q28 -101 87.5 -151t145.5 -50t145.5 50t87.5 151l93 -28q-36 -133 -120.5 -201.5t-205.5 -68.5
t-205.5 68.5t-119.5 201.5z" />
    <glyph glyph-name="gbreve" unicode="&#x11f;" horiz-adv-x="1236" 
d="M574 956q127 0 219.5 -54.5t147.5 -144.5v184h114v-877q0 -117 -38 -206t-105 -149t-157 -90.5t-194 -30.5q-58 0 -114 9.5t-107 27t-95.5 42.5t-79.5 57l58 83q67 -53 152.5 -84t185.5 -31q79 0 148.5 22.5t121 68.5t81 115t29.5 161v134q-55 -90 -147.5 -144
t-219.5 -54q-99 0 -184.5 35.5t-148.5 99t-98.5 152t-35.5 194.5q0 105 35.5 193.5t98.5 152t148.5 99t184.5 35.5zM586 849q-80 0 -147 -29t-115 -79.5t-74.5 -118.5t-26.5 -146q0 -79 26.5 -147t74.5 -118.5t115 -79.5t147 -29q79 0 146 28.5t115.5 78.5t75.5 118.5
t27 148.5q0 79 -27 147.5t-75.5 118.5t-115.5 78.5t-146 28.5zM367 1384q28 -101 87.5 -151t145.5 -50t145.5 50t87.5 151l93 -28q-36 -133 -120.5 -201.5t-205.5 -68.5t-205.5 68.5t-119.5 201.5z" />
    <glyph glyph-name="Gdotaccent" unicode="&#x120;" horiz-adv-x="1637" 
d="M843 1416q166 0 305.5 -63.5t236.5 -175.5l-90 -87q-81 97 -197 152.5t-255 55.5q-125 0 -232.5 -43t-187 -122t-125 -189t-45.5 -244t45.5 -244t124.5 -189t185.5 -122t228.5 -43q120 0 217 36.5t166.5 104.5t110 164.5t47.5 216.5h-474v114h606q2 -10 2 -18v-15
q0 -154 -47 -286t-135 -228.5t-212.5 -151t-280.5 -54.5q-140 0 -268.5 49t-227 141.5t-157 225t-58.5 299.5q0 158 55 289.5t151 226.5t227 147.5t284 52.5zM812.54 1730.33q35.9072 0 60.0176 -24.6221q24.1094 -24.623 24.1094 -60.5312q0 -35.9072 -24.1094 -59.5039
q-24.1104 -23.5967 -60.0176 -23.5967q-35.9082 0 -59.5049 23.5967t-23.5967 59.5039q0 35.9082 23.5967 60.5312q23.5967 24.6221 59.5049 24.6221z" />
    <glyph glyph-name="gdotaccent" unicode="&#x121;" horiz-adv-x="1236" 
d="M574 956q127 0 219.5 -54.5t147.5 -144.5v184h114v-877q0 -117 -38 -206t-105 -149t-157 -90.5t-194 -30.5q-58 0 -114 9.5t-107 27t-95.5 42.5t-79.5 57l58 83q67 -53 152.5 -84t185.5 -31q79 0 148.5 22.5t121 68.5t81 115t29.5 161v134q-55 -90 -147.5 -144
t-219.5 -54q-99 0 -184.5 35.5t-148.5 99t-98.5 152t-35.5 194.5q0 105 35.5 193.5t98.5 152t148.5 99t184.5 35.5zM586 849q-80 0 -147 -29t-115 -79.5t-74.5 -118.5t-26.5 -146q0 -79 26.5 -147t74.5 -118.5t115 -79.5t147 -29q79 0 146 28.5t115.5 78.5t75.5 118.5
t27 148.5q0 79 -27 147.5t-75.5 118.5t-115.5 78.5t-146 28.5zM600 1362q35 0 58.5 -24t23.5 -59t-23.5 -58t-58.5 -23t-58 23t-23 58t23 59t58 24z" />
    <glyph glyph-name="uni0122" unicode="&#x122;" horiz-adv-x="1637" 
d="M843 1416q166 0 305.5 -63.5t236.5 -175.5l-90 -87q-81 97 -197 152.5t-255 55.5q-125 0 -232.5 -43t-187 -122t-125 -189t-45.5 -244t45.5 -244t124.5 -189t185.5 -122t228.5 -43q120 0 217 36.5t166.5 104.5t110 164.5t47.5 216.5h-474v114h606q2 -10 2 -18v-15
q0 -154 -47 -286t-135 -228.5t-212.5 -151t-280.5 -54.5q-140 0 -268.5 49t-227 141.5t-157 225t-58.5 299.5q0 158 55 289.5t151 226.5t227 147.5t284 52.5zM904 -88l-68 -341h-101l44 341h125z" />
    <glyph glyph-name="uni0123" unicode="&#x123;" horiz-adv-x="1236" 
d="M574 956q127 0 219.5 -54.5t147.5 -144.5v184h114v-877q0 -117 -38 -206t-105 -149t-157 -90.5t-194 -30.5q-58 0 -114 9.5t-107 27t-95.5 42.5t-79.5 57l58 83q67 -53 152.5 -84t185.5 -31q79 0 148.5 22.5t121 68.5t81 115t29.5 161v134q-55 -90 -147.5 -144
t-219.5 -54q-99 0 -184.5 35.5t-148.5 99t-98.5 152t-35.5 194.5q0 105 35.5 193.5t98.5 152t148.5 99t184.5 35.5zM586 849q-80 0 -147 -29t-115 -79.5t-74.5 -118.5t-26.5 -146q0 -79 26.5 -147t74.5 -118.5t115 -79.5t147 -29q79 0 146 28.5t115.5 78.5t75.5 118.5
t27 148.5q0 79 -27 147.5t-75.5 118.5t-115.5 78.5t-146 28.5zM528 1082l68 340h101l-44 -340h-125z" />
    <glyph glyph-name="Hcircumflex" unicode="&#x124;" horiz-adv-x="1565" 
d="M331 763h902v637h122v-1400h-122v647h-902v-647h-122v1400h122v-637zM982 1503l-200 205l-200 -205h-123l248 282h150l248 -282h-123z" />
    <glyph glyph-name="hcircumflex" unicode="&#x125;" horiz-adv-x="1198" 
d="M296 778q28 46 65.5 80t81.5 55.5t92 32t96 10.5q88 0 161 -26.5t125.5 -75.5t81 -119.5t28.5 -157.5v-577h-114v542q0 71 -20 128t-59 96.5t-95 60.5t-128 21q-66 0 -123.5 -22.5t-100 -64t-67 -99t-24.5 -126.5v-536h-114v1440h114v-662zM807 1547l-200 205l-200 -205
h-123l248 282h150l248 -282h-123z" />
    <glyph glyph-name="Hbar" unicode="&#x126;" horiz-adv-x="1621" 
d="M1558 1022h-175v-1022h-122v647h-902v-647h-122v1022h-174v103h174v275h122v-275h902v275h122v-275h175v-103zM1261 763v259h-902v-259h902z" />
    <glyph glyph-name="hbar" unicode="&#x127;" horiz-adv-x="1198" 
d="M709 1125h-413v-347q28 46 65.5 80t81.5 55.5t92 32t96 10.5q88 0 161 -26.5t125.5 -75.5t81 -119.5t28.5 -157.5v-577h-114v542q0 71 -20 128t-59 96.5t-95 60.5t-128 21q-66 0 -123.5 -22.5t-100 -64t-67 -99t-24.5 -126.5v-536h-114v1125h-183v103h183v212h114v-212
h413v-103z" />
    <glyph glyph-name="Itilde" unicode="&#x128;" horiz-adv-x="541" 
d="M331 0h-122v1400h122v-1400zM-70 1632q42 55 89.5 82.5t116.5 27.5q51 0 85.5 -13.5t63 -29.5t55.5 -29.5t63 -13.5q42 0 74 19.5t64 57.5l69 -65q-42 -55 -90.5 -83t-116.5 -28q-50 0 -84.5 13.5t-63 30t-56 30t-63.5 13.5q-42 0 -74 -19.5t-64 -57.5z" />
    <glyph glyph-name="itilde" unicode="&#x129;" horiz-adv-x="477" 
d="M296 0h-114v941h114v-941zM-90 1217q42 55 89.5 82.5t116.5 27.5q51 0 85.5 -13.5t63 -29.5t55.5 -29.5t63 -13.5q42 0 74 19.5t64 57.5l69 -65q-42 -55 -90.5 -83t-116.5 -28q-50 0 -84.5 13.5t-63 30t-56 30t-63.5 13.5q-42 0 -74 -19.5t-64 -57.5z" />
    <glyph glyph-name="Imacron" unicode="&#x12a;" horiz-adv-x="541" 
d="M331 0h-122v1400h122v-1400zM-22 1688h585v-93h-585v93z" />
    <glyph glyph-name="imacron" unicode="&#x12b;" horiz-adv-x="477" 
d="M296 0h-114v941h114v-941zM-53 1273h585v-93h-585v93z" />
    <glyph glyph-name="Ibreve" unicode="&#x12c;" horiz-adv-x="541" 
d="M331 0h-122v1400h122v-1400zM37 1799q28 -101 87.5 -151t145.5 -50t145.5 50t87.5 151l93 -28q-36 -133 -120.5 -201.5t-205.5 -68.5t-205.5 68.5t-119.5 201.5z" />
    <glyph glyph-name="ibreve" unicode="&#x12d;" horiz-adv-x="477" 
d="M296 0h-114v941h114v-941zM6 1384q28 -101 87.5 -151t145.5 -50t145.5 50t87.5 151l93 -28q-36 -133 -120.5 -201.5t-205.5 -68.5t-205.5 68.5t-119.5 201.5z" />
    <glyph glyph-name="Iogonek" unicode="&#x12e;" horiz-adv-x="541" 
d="M331 0h-122v1400h122v-1400zM460 -330q-78 -82 -185 -82q-44 0 -80.5 11.5t-63 33.5t-41.5 53t-15 69q0 41 16 78.5t46 73t72 69.5t93 69l29 -45q-69 -60 -108.5 -116t-39.5 -107q0 -42 28 -66.5t74 -24.5q33 0 61.5 15t52.5 43z" />
    <glyph glyph-name="iogonek" unicode="&#x12f;" horiz-adv-x="477" 
d="M425 -330q-78 -82 -185 -82q-44 0 -80.5 11.5t-63 33.5t-41.5 53t-15 69q0 41 16 78.5t46 73t72 69.5t93 69l29 -45q-69 -60 -108.5 -116t-39.5 -107q0 -42 28 -66.5t74 -24.5q33 0 61.5 15t52.5 43zM296 0h-114v941h114v-941zM239 1362q35 0 58.5 -24t23.5 -59
t-23.5 -58t-58.5 -23t-58 23t-23 58t23 59t58 24z" />
    <glyph glyph-name="Idotaccent" unicode="&#x130;" horiz-adv-x="541" 
d="M331 0h-122v1400h122v-1400zM259.54 1730.33q35.9072 0 60.0176 -24.6221q24.1094 -24.623 24.1094 -60.5312q0 -35.9072 -24.1094 -59.5039q-24.1104 -23.5967 -60.0176 -23.5967q-35.9082 0 -59.5049 23.5967t-23.5967 59.5039q0 35.9082 23.5967 60.5312
q23.5967 24.6221 59.5049 24.6221z" />
    <glyph glyph-name="dotlessi" unicode="&#x131;" horiz-adv-x="477" 
d="M296 0h-114v941h114v-941z" />
    <glyph glyph-name="IJ" unicode="&#x132;" horiz-adv-x="1692" 
d="M331 0h-122v1400h122v-1400zM1493 502q0 -125 -37 -221.5t-102 -162t-154 -99.5t-192 -34q-79 0 -144 16.5t-116.5 43t-91.5 59.5t-70 67l82 84q26 -31 60.5 -58.5t76.5 -48.5t92.5 -33.5t109.5 -12.5q80 0 147 26.5t115 78t75 128.5t27 178v887h122v-898z" />
    <glyph glyph-name="ij" unicode="&#x133;" horiz-adv-x="958" 
d="M776 -178q0 -115 -55.5 -174.5t-154.5 -59.5q-36 0 -71 9.5t-59 23.5l28 98q19 -11 43 -17.5t50 -6.5q51 0 78 32t27 100v1114h114v-1119zM718 1362q35 0 58.5 -24t23.5 -59t-23.5 -58t-58.5 -23t-58 23t-23 58t23 59t58 24zM296 0h-114v941h114v-941zM239 1362
q35 0 58.5 -24t23.5 -59t-23.5 -58t-58.5 -23t-58 23t-23 58t23 59t58 24z" />
    <glyph glyph-name="Jcircumflex" unicode="&#x134;" horiz-adv-x="1151" 
d="M952 502q0 -125 -37 -221.5t-102 -162t-154 -99.5t-192 -34q-79 0 -144 16.5t-116.5 43t-91.5 59.5t-70 67l82 84q26 -31 60.5 -58.5t76.5 -48.5t92.5 -33.5t109.5 -12.5q80 0 147 26.5t115 78t75 128.5t27 178v887h122v-898zM1091 1503l-200 205l-200 -205h-123l248 282
h150l248 -282h-123z" />
    <glyph glyph-name="jcircumflex" unicode="&#x135;" horiz-adv-x="480" 
d="M299 -178q0 -115 -55.5 -174.5t-154.5 -59.5q-36 0 -71 9.5t-59 23.5l28 98q19 -11 43 -17.5t50 -6.5q51 0 78 32t27 100v1114h114v-1119zM441 1088l-200 205l-200 -205h-123l248 282h150l248 -282h-123z" />
    <glyph glyph-name="uni0136" unicode="&#x136;" horiz-adv-x="1367" 
d="M516 646h-185v-646h-122v1400h122v-638h187l615 638h158l-675 -689l717 -711h-166zM767 -88l-68 -341h-101l44 341h125z" />
    <glyph glyph-name="uni0137" unicode="&#x137;" horiz-adv-x="1042" 
d="M296 544h153l396 397h144l-448 -444l456 -497h-145l-403 441h-153v-441h-114v1440h114v-896zM631 -88l-68 -341h-101l44 341h125z" />
    <glyph glyph-name="kgreenlandic" unicode="&#x138;" horiz-adv-x="1027" 
d="M296 544h147l388 397h143l-439 -444l447 -497h-144l-395 441h-147v-441h-114v941h114v-397z" />
    <glyph glyph-name="Lacute" unicode="&#x139;" horiz-adv-x="1204" 
d="M1162 0h-953v1400h122v-1284h831v-116zM139 1497l220 300h144l-251 -300h-113z" />
    <glyph glyph-name="lacute" unicode="&#x13a;" horiz-adv-x="477" 
d="M296 0h-114v1440h114v-1440zM76 1546l220 300h144l-251 -300h-113z" />
    <glyph glyph-name="uni013B" unicode="&#x13b;" horiz-adv-x="1204" 
d="M1162 0h-953v1400h122v-1284h831v-116zM759 -88l-68 -341h-101l44 341h125z" />
    <glyph glyph-name="uni013C" unicode="&#x13c;" horiz-adv-x="477" 
d="M296 0h-114v1440h114v-1440zM317 -88l-68 -341h-101l44 341h125z" />
    <glyph glyph-name="Lcaron" unicode="&#x13d;" horiz-adv-x="1204" 
d="M1162 0h-953v1400h122v-1284h831v-116zM594 1012l11 389h117l-32 -389h-96z" />
    <glyph glyph-name="lcaron" unicode="&#x13e;" horiz-adv-x="510" 
d="M296 0h-114v1440h114v-1440zM409 1051l11 389h117l-32 -389h-96z" />
    <glyph glyph-name="Ldot" unicode="&#x13f;" horiz-adv-x="1204" 
d="M1162 0h-953v1400h122v-1284h831v-116zM845.54 790.33q35.9072 0 60.0176 -24.6221q24.1094 -24.623 24.1094 -60.5312q0 -35.9072 -24.1094 -59.5039q-24.1104 -23.5967 -60.0176 -23.5967q-35.9082 0 -59.5049 23.5967t-23.5967 59.5039q0 35.9082 23.5967 60.5312
q23.5967 24.6221 59.5049 24.6221z" />
    <glyph glyph-name="ldot" unicode="&#x140;" horiz-adv-x="567" 
d="M296 0h-114v1440h114v-1440zM518 814q35 0 58.5 -24t23.5 -59t-23.5 -58t-58.5 -23t-58 23t-23 58t23 59t58 24z" />
    <glyph glyph-name="Lslash" unicode="&#x141;" horiz-adv-x="1348" 
d="M1306 0h-953v530l-228 -128v130l228 128v740h122v-671l537 303v-130l-537 -303v-483h831v-116z" />
    <glyph glyph-name="lslash" unicode="&#x142;" horiz-adv-x="657" 
d="M385 852l217 159v-119l-217 -159v-733h-114v650l-216 -158v119l216 158v671h114v-588z" />
    <glyph glyph-name="Nacute" unicode="&#x143;" horiz-adv-x="1569" 
d="M1359 0h-110l-917 1190l-1 -1190h-122v1400h110l918 -1190v1190h122v-1400zM653 1497l220 300h144l-251 -300h-113z" />
    <glyph glyph-name="nacute" unicode="&#x144;" horiz-adv-x="1198" 
d="M631 956q88 0 161 -26.5t125.5 -75.5t81 -119.5t28.5 -157.5v-577h-114v542q0 71 -20 128t-59 96.5t-95 60.5t-128 21q-66 0 -123.5 -22.5t-100 -64t-67 -99t-24.5 -126.5v-536h-114v941h113v-165q28 47 65.5 81t81.5 56t92 32.5t97 10.5zM496 1082l220 300h144
l-251 -300h-113z" />
    <glyph glyph-name="uni0145" unicode="&#x145;" horiz-adv-x="1569" 
d="M1359 0h-110l-917 1190l-1 -1190h-122v1400h110l918 -1190v1190h122v-1400zM865 -88l-68 -341h-101l44 341h125z" />
    <glyph glyph-name="uni0146" unicode="&#x146;" horiz-adv-x="1198" 
d="M631 956q88 0 161 -26.5t125.5 -75.5t81 -119.5t28.5 -157.5v-577h-114v542q0 71 -20 128t-59 96.5t-95 60.5t-128 21q-66 0 -123.5 -22.5t-100 -64t-67 -99t-24.5 -126.5v-536h-114v941h113v-165q28 47 65.5 81t81.5 56t92 32.5t97 10.5zM681 -88l-68 -341h-101l44 341
h125z" />
    <glyph glyph-name="Ncaron" unicode="&#x147;" horiz-adv-x="1569" 
d="M1359 0h-110l-917 1190l-1 -1190h-122v1400h110l918 -1190v1190h122v-1400zM584 1782l200 -204l200 204h123l-248 -281h-150l-248 281h123z" />
    <glyph glyph-name="ncaron" unicode="&#x148;" horiz-adv-x="1198" 
d="M631 956q88 0 161 -26.5t125.5 -75.5t81 -119.5t28.5 -157.5v-577h-114v542q0 71 -20 128t-59 96.5t-95 60.5t-128 21q-66 0 -123.5 -22.5t-100 -64t-67 -99t-24.5 -126.5v-536h-114v941h113v-165q28 47 65.5 81t81.5 56t92 32.5t97 10.5zM414 1367l200 -204l200 204h123
l-248 -281h-150l-248 281h123z" />
    <glyph glyph-name="napostrophe" unicode="&#x149;" horiz-adv-x="1477" 
d="M338 1440l-96 -483h-99l62 483h133zM910 956q88 0 161 -26.5t125.5 -75.5t81 -119.5t28.5 -157.5v-577h-114v542q0 71 -20 128t-59 96.5t-95 60.5t-128 21q-66 0 -123.5 -22.5t-100 -64t-67 -99t-24.5 -126.5v-536h-114v941h113v-165q28 47 65.5 81t81.5 56t92 32.5
t97 10.5z" />
    <glyph glyph-name="Eng" unicode="&#x14a;" horiz-adv-x="1569" 
d="M1359 -39q0 -78 -18.5 -146.5t-58 -118.5t-102.5 -79t-151 -29q-79 0 -143 18.5t-113 46.5l45 106q39 -23 90.5 -38.5t107.5 -15.5q60 0 102 19.5t68.5 54t38.5 82.5t12 105v49l-905 1175l-1 -1190h-122v1400h110l918 -1190v1190h122v-1439z" />
    <glyph glyph-name="eng" unicode="&#x14b;" horiz-adv-x="1198" 
d="M631 956q88 0 161 -26.5t125.5 -75.5t81 -119.5t28.5 -157.5v-671q0 -114 -55 -174t-154 -60q-37 0 -72 9.5t-59 23.5l29 98q18 -10 41.5 -17t50.5 -7q51 0 78 32t27 101v630q0 71 -20 128t-59 96.5t-95 60.5t-128 21q-66 0 -123.5 -22.5t-100 -64t-67 -99t-24.5 -126.5
v-536h-114v941h113v-165q28 47 65.5 81t81.5 56t92 32.5t97 10.5z" />
    <glyph glyph-name="Omacron" unicode="&#x14c;" horiz-adv-x="1685" 
d="M843 1416q153 0 284.5 -53t227.5 -147.5t150.5 -226.5t54.5 -289q0 -158 -54.5 -289.5t-150.5 -226t-227.5 -147.5t-284.5 -53t-284.5 53t-227.5 147.5t-150.5 226t-54.5 289.5q0 157 54.5 289t150.5 226.5t227.5 147.5t284.5 53zM843 1298q-125 0 -232.5 -43t-187 -122
t-125 -189t-45.5 -244t45.5 -244t125 -189t187 -122t232.5 -43q124 0 231.5 43t187 122t125 189t45.5 244t-45.5 244t-125 189t-187 122t-231.5 43zM551 1688h585v-93h-585v93z" />
    <glyph glyph-name="omacron" unicode="&#x14d;" horiz-adv-x="1192" 
d="M595 956q105 0 194.5 -37t155 -102t103 -154t37.5 -193t-37.5 -192.5t-103 -153.5t-155 -102t-194.5 -37t-194 37t-154.5 102t-102.5 153.5t-37 192.5t37 193t102.5 154t154.5 102t194 37zM595 849q-79 0 -147 -28.5t-118 -79t-78.5 -120t-28.5 -151.5t28.5 -151.5
t78.5 -119.5t118 -78.5t147 -28.5t147.5 28.5t118.5 78.5t78.5 119.5t28.5 151.5t-28.5 151.5t-78.5 120t-118.5 79t-147.5 28.5zM304 1273h585v-93h-585v93z" />
    <glyph glyph-name="Obreve" unicode="&#x14e;" horiz-adv-x="1685" 
d="M843 1416q153 0 284.5 -53t227.5 -147.5t150.5 -226.5t54.5 -289q0 -158 -54.5 -289.5t-150.5 -226t-227.5 -147.5t-284.5 -53t-284.5 53t-227.5 147.5t-150.5 226t-54.5 289.5q0 157 54.5 289t150.5 226.5t227.5 147.5t284.5 53zM843 1298q-125 0 -232.5 -43t-187 -122
t-125 -189t-45.5 -244t45.5 -244t125 -189t187 -122t232.5 -43q124 0 231.5 43t187 122t125 189t45.5 244t-45.5 244t-125 189t-187 122t-231.5 43zM610 1799q28 -101 87.5 -151t145.5 -50t145.5 50t87.5 151l93 -28q-36 -133 -120.5 -201.5t-205.5 -68.5t-205.5 68.5
t-119.5 201.5z" />
    <glyph glyph-name="obreve" unicode="&#x14f;" horiz-adv-x="1192" 
d="M595 956q105 0 194.5 -37t155 -102t103 -154t37.5 -193t-37.5 -192.5t-103 -153.5t-155 -102t-194.5 -37t-194 37t-154.5 102t-102.5 153.5t-37 192.5t37 193t102.5 154t154.5 102t194 37zM595 849q-79 0 -147 -28.5t-118 -79t-78.5 -120t-28.5 -151.5t28.5 -151.5
t78.5 -119.5t118 -78.5t147 -28.5t147.5 28.5t118.5 78.5t78.5 119.5t28.5 151.5t-28.5 151.5t-78.5 120t-118.5 79t-147.5 28.5zM363 1384q28 -101 87.5 -151t145.5 -50t145.5 50t87.5 151l93 -28q-36 -133 -120.5 -201.5t-205.5 -68.5t-205.5 68.5t-119.5 201.5z" />
    <glyph glyph-name="Ohungarumlaut" unicode="&#x150;" horiz-adv-x="1685" 
d="M843 1416q153 0 284.5 -53t227.5 -147.5t150.5 -226.5t54.5 -289q0 -158 -54.5 -289.5t-150.5 -226t-227.5 -147.5t-284.5 -53t-284.5 53t-227.5 147.5t-150.5 226t-54.5 289.5q0 157 54.5 289t150.5 226.5t227.5 147.5t284.5 53zM843 1298q-125 0 -232.5 -43t-187 -122
t-125 -189t-45.5 -244t45.5 -244t125 -189t187 -122t232.5 -43q124 0 231.5 43t187 122t125 189t45.5 244t-45.5 244t-125 189t-187 122t-231.5 43zM927 1497l224 300h134l-243 -300h-115zM584 1497l213 300h130l-226 -300h-117z" />
    <glyph glyph-name="ohungarumlaut" unicode="&#x151;" horiz-adv-x="1192" 
d="M595 956q105 0 194.5 -37t155 -102t103 -154t37.5 -193t-37.5 -192.5t-103 -153.5t-155 -102t-194.5 -37t-194 37t-154.5 102t-102.5 153.5t-37 192.5t37 193t102.5 154t154.5 102t194 37zM595 849q-79 0 -147 -28.5t-118 -79t-78.5 -120t-28.5 -151.5t28.5 -151.5
t78.5 -119.5t118 -78.5t147 -28.5t147.5 28.5t118.5 78.5t78.5 119.5t28.5 151.5t-28.5 151.5t-78.5 120t-118.5 79t-147.5 28.5zM693 1082l224 300h134l-243 -300h-115zM350 1082l213 300h130l-226 -300h-117z" />
    <glyph glyph-name="OE" unicode="&#x152;" horiz-adv-x="2260" 
d="M2092 0h-1209q-175 0 -315 49t-238.5 139.5t-151 220t-52.5 291.5t52.5 291.5t151 220t238.5 139.5t315 49h1202v-115h-835v-523h811v-114h-811v-533h842v-115zM253 700q0 -134 41 -241.5t121 -184t197.5 -117.5t270.5 -41h245v1168h-245q-153 0 -270.5 -41.5
t-197.5 -117.5t-121 -184t-41 -241z" />
    <glyph glyph-name="oe" unicode="&#x153;" horiz-adv-x="1982" 
d="M1434 956q94 0 174 -35.5t139 -99t92.5 -152t35.5 -193.5q0 -26 -3 -47h-788q6 -82 36.5 -146t79.5 -108.5t112.5 -67.5t135.5 -23q99 0 177.5 36.5t140.5 96.5l61 -77q-45 -45 -91.5 -75t-95 -48t-98.5 -25t-101 -7q-73 0 -137.5 18t-118 51t-95.5 81t-69 108
q-29 -59 -72.5 -106.5t-98.5 -81t-119.5 -52t-135.5 -18.5q-105 0 -194 37t-154.5 102t-102.5 153.5t-37 192.5t37 193t102.5 154t154.5 102t194 37q72 0 136.5 -18.5t119 -53t98 -83t72.5 -107.5q28 60 70 108.5t95 82.5t116 52.5t132 18.5zM595 849q-79 0 -147 -28.5
t-118 -79t-78.5 -120t-28.5 -151.5t28.5 -151.5t78.5 -119.5t118 -78.5t147 -28.5t147 28.5t118.5 78.5t79 119.5t28.5 151.5t-28.5 151.5t-79 120t-118.5 79t-147 28.5zM1432 855q-72 0 -131.5 -24.5t-104.5 -68t-73.5 -103.5t-36.5 -132h672q-6 73 -33 133.5t-70 103.5
t-100 67t-123 24z" />
    <glyph glyph-name="Racute" unicode="&#x154;" horiz-adv-x="1341" 
d="M743 1400q116 0 206 -26t151.5 -75.5t93.5 -122t32 -165.5q0 -90 -33.5 -162.5t-96 -123t-151.5 -77.5t-201 -27h-55l530 -621h-152l-522 621h-214v-621h-122v1400h534zM331 1285v-553h411q175 0 266.5 71.5t91.5 207.5q0 135 -92 204.5t-266 69.5h-411zM530 1497
l220 300h144l-251 -300h-113z" />
    <glyph glyph-name="racute" unicode="&#x155;" horiz-adv-x="814" 
d="M584 957q51 0 94.5 -8.5t81.5 -27.5l-29 -111q-35 19 -79.5 28.5t-87.5 9.5q-59 0 -108.5 -23t-85 -64.5t-55.5 -100t-20 -129.5v-531h-113v941h112v-160q46 83 121 129.5t169 46.5zM348 1082l220 300h144l-251 -300h-113z" />
    <glyph glyph-name="uni0156" unicode="&#x156;" horiz-adv-x="1341" 
d="M743 1400q116 0 206 -26t151.5 -75.5t93.5 -122t32 -165.5q0 -90 -33.5 -162.5t-96 -123t-151.5 -77.5t-201 -27h-55l530 -621h-152l-522 621h-214v-621h-122v1400h534zM331 1285v-553h411q175 0 266.5 71.5t91.5 207.5q0 135 -92 204.5t-266 69.5h-411zM745 -88
l-68 -341h-101l44 341h125z" />
    <glyph glyph-name="uni0157" unicode="&#x157;" horiz-adv-x="814" 
d="M584 957q51 0 94.5 -8.5t81.5 -27.5l-29 -111q-35 19 -79.5 28.5t-87.5 9.5q-59 0 -108.5 -23t-85 -64.5t-55.5 -100t-20 -129.5v-531h-113v941h112v-160q46 83 121 129.5t169 46.5zM318 -88l-68 -341h-101l44 341h125z" />
    <glyph glyph-name="Rcaron" unicode="&#x158;" horiz-adv-x="1341" 
d="M743 1400q116 0 206 -26t151.5 -75.5t93.5 -122t32 -165.5q0 -90 -33.5 -162.5t-96 -123t-151.5 -77.5t-201 -27h-55l530 -621h-152l-522 621h-214v-621h-122v1400h534zM331 1285v-553h411q175 0 266.5 71.5t91.5 207.5q0 135 -92 204.5t-266 69.5h-411zM461 1782
l200 -204l200 204h123l-248 -281h-150l-248 281h123z" />
    <glyph glyph-name="rcaron" unicode="&#x159;" horiz-adv-x="814" 
d="M584 957q51 0 94.5 -8.5t81.5 -27.5l-29 -111q-35 19 -79.5 28.5t-87.5 9.5q-59 0 -108.5 -23t-85 -64.5t-55.5 -100t-20 -129.5v-531h-113v941h112v-160q46 83 121 129.5t169 46.5zM266 1367l200 -204l200 204h123l-248 -281h-150l-248 281h123z" />
    <glyph glyph-name="Sacute" unicode="&#x15a;" horiz-adv-x="1343" 
d="M1120 1162q-82 58 -191 97.5t-247 39.5q-84 0 -155.5 -19t-123.5 -55t-81.5 -87.5t-29.5 -117.5q0 -104 81.5 -167.5t260.5 -83.5l153 -17q93 -11 172 -35.5t136.5 -67t89.5 -106t32 -150.5q0 -102 -43.5 -178.5t-118.5 -127.5t-175 -76.5t-213 -25.5q-79 0 -156 13.5
t-147.5 37t-131.5 55.5t-107 69l67 97q37 -29 88 -57t112.5 -50t131 -35.5t142.5 -13.5q89 0 166.5 17.5t134.5 52.5t90 88t33 124q0 114 -90 173t-265 79l-159 18q-96 11 -172 38t-129.5 71.5t-81.5 106.5t-28 143q0 97 40.5 172t110.5 126.5t164.5 78t202.5 26.5
q81 0 152.5 -12t133.5 -33t115.5 -49t98.5 -60zM572 1497l220 300h144l-251 -300h-113z" />
    <glyph glyph-name="sacute" unicode="&#x15b;" horiz-adv-x="974" 
d="M809 762q-24 17 -58.5 33.5t-75.5 30t-88.5 22t-96.5 8.5q-55 0 -101 -11.5t-79 -33.5t-51.5 -53.5t-18.5 -71.5q0 -66 52.5 -102.5t161.5 -49.5l120 -14q148 -17 228.5 -79t80.5 -174q0 -67 -29.5 -119.5t-82.5 -88.5t-127.5 -55t-165.5 -19q-103 0 -204 28.5t-183 91.5
l53 85q27 -21 60 -40.5t74 -34t90.5 -23t110.5 -8.5q64 0 116.5 11t90.5 33t59 55t21 77q0 132 -217 156l-121 13q-80 9 -137.5 30.5t-95 53.5t-55 74.5t-17.5 92.5q0 65 26.5 116t75 86.5t116 54.5t148.5 19q112 0 208.5 -30t160.5 -76zM385 1082l220 300h144l-251 -300
h-113z" />
    <glyph glyph-name="Scircumflex" unicode="&#x15c;" horiz-adv-x="1343" 
d="M1120 1162q-82 58 -191 97.5t-247 39.5q-84 0 -155.5 -19t-123.5 -55t-81.5 -87.5t-29.5 -117.5q0 -104 81.5 -167.5t260.5 -83.5l153 -17q93 -11 172 -35.5t136.5 -67t89.5 -106t32 -150.5q0 -102 -43.5 -178.5t-118.5 -127.5t-175 -76.5t-213 -25.5q-79 0 -156 13.5
t-147.5 37t-131.5 55.5t-107 69l67 97q37 -29 88 -57t112.5 -50t131 -35.5t142.5 -13.5q89 0 166.5 17.5t134.5 52.5t90 88t33 124q0 114 -90 173t-265 79l-159 18q-96 11 -172 38t-129.5 71.5t-81.5 106.5t-28 143q0 97 40.5 172t110.5 126.5t164.5 78t202.5 26.5
q81 0 152.5 -12t133.5 -33t115.5 -49t98.5 -60zM903 1503l-200 205l-200 -205h-123l248 282h150l248 -282h-123z" />
    <glyph glyph-name="scircumflex" unicode="&#x15d;" horiz-adv-x="974" 
d="M809 762q-24 17 -58.5 33.5t-75.5 30t-88.5 22t-96.5 8.5q-55 0 -101 -11.5t-79 -33.5t-51.5 -53.5t-18.5 -71.5q0 -66 52.5 -102.5t161.5 -49.5l120 -14q148 -17 228.5 -79t80.5 -174q0 -67 -29.5 -119.5t-82.5 -88.5t-127.5 -55t-165.5 -19q-103 0 -204 28.5t-183 91.5
l53 85q27 -21 60 -40.5t74 -34t90.5 -23t110.5 -8.5q64 0 116.5 11t90.5 33t59 55t21 77q0 132 -217 156l-121 13q-80 9 -137.5 30.5t-95 53.5t-55 74.5t-17.5 92.5q0 65 26.5 116t75 86.5t116 54.5t148.5 19q112 0 208.5 -30t160.5 -76zM703 1088l-200 205l-200 -205h-123
l248 282h150l248 -282h-123z" />
    <glyph glyph-name="Scedilla" unicode="&#x15e;" horiz-adv-x="1343" 
d="M1120 1162q-82 58 -191 97.5t-247 39.5q-84 0 -155.5 -19t-123.5 -55t-81.5 -87.5t-29.5 -117.5q0 -104 81.5 -167.5t260.5 -83.5l153 -17q93 -11 172 -35.5t136.5 -67t89.5 -106t32 -150.5q0 -102 -43.5 -178.5t-118.5 -127.5t-175 -76.5t-213 -25.5q-79 0 -156 13.5
t-147.5 37t-131.5 55.5t-107 69l67 97q37 -29 88 -57t112.5 -50t131 -35.5t142.5 -13.5q89 0 166.5 17.5t134.5 52.5t90 88t33 124q0 114 -90 173t-265 79l-159 18q-96 11 -172 38t-129.5 71.5t-81.5 106.5t-28 143q0 97 40.5 172t110.5 126.5t164.5 78t202.5 26.5
q81 0 152.5 -12t133.5 -33t115.5 -49t98.5 -60zM656 -323h-124l109 329l118 -1z" />
    <glyph glyph-name="scedilla" unicode="&#x15f;" horiz-adv-x="974" 
d="M809 762q-24 17 -58.5 33.5t-75.5 30t-88.5 22t-96.5 8.5q-55 0 -101 -11.5t-79 -33.5t-51.5 -53.5t-18.5 -71.5q0 -66 52.5 -102.5t161.5 -49.5l120 -14q148 -17 228.5 -79t80.5 -174q0 -67 -29.5 -119.5t-82.5 -88.5t-127.5 -55t-165.5 -19q-103 0 -204 28.5t-183 91.5
l53 85q27 -21 60 -40.5t74 -34t90.5 -23t110.5 -8.5q64 0 116.5 11t90.5 33t59 55t21 77q0 132 -217 156l-121 13q-80 9 -137.5 30.5t-95 53.5t-55 74.5t-17.5 92.5q0 65 26.5 116t75 86.5t116 54.5t148.5 19q112 0 208.5 -30t160.5 -76zM469 -323h-119l108 329l114 -1z" />
    <glyph glyph-name="Scaron" unicode="&#x160;" horiz-adv-x="1343" 
d="M1120 1162q-82 58 -191 97.5t-247 39.5q-84 0 -155.5 -19t-123.5 -55t-81.5 -87.5t-29.5 -117.5q0 -104 81.5 -167.5t260.5 -83.5l153 -17q93 -11 172 -35.5t136.5 -67t89.5 -106t32 -150.5q0 -102 -43.5 -178.5t-118.5 -127.5t-175 -76.5t-213 -25.5q-79 0 -156 13.5
t-147.5 37t-131.5 55.5t-107 69l67 97q37 -29 88 -57t112.5 -50t131 -35.5t142.5 -13.5q89 0 166.5 17.5t134.5 52.5t90 88t33 124q0 114 -90 173t-265 79l-159 18q-96 11 -172 38t-129.5 71.5t-81.5 106.5t-28 143q0 97 40.5 172t110.5 126.5t164.5 78t202.5 26.5
q81 0 152.5 -12t133.5 -33t115.5 -49t98.5 -60zM503 1782l200 -204l200 204h123l-248 -281h-150l-248 281h123z" />
    <glyph glyph-name="scaron" unicode="&#x161;" horiz-adv-x="974" 
d="M809 762q-24 17 -58.5 33.5t-75.5 30t-88.5 22t-96.5 8.5q-55 0 -101 -11.5t-79 -33.5t-51.5 -53.5t-18.5 -71.5q0 -66 52.5 -102.5t161.5 -49.5l120 -14q148 -17 228.5 -79t80.5 -174q0 -67 -29.5 -119.5t-82.5 -88.5t-127.5 -55t-165.5 -19q-103 0 -204 28.5t-183 91.5
l53 85q27 -21 60 -40.5t74 -34t90.5 -23t110.5 -8.5q64 0 116.5 11t90.5 33t59 55t21 77q0 132 -217 156l-121 13q-80 9 -137.5 30.5t-95 53.5t-55 74.5t-17.5 92.5q0 65 26.5 116t75 86.5t116 54.5t148.5 19q112 0 208.5 -30t160.5 -76zM303 1367l200 -204l200 204h123
l-248 -281h-150l-248 281h123z" />
    <glyph glyph-name="uni0162" unicode="&#x162;" horiz-adv-x="1215" 
d="M1173 1284h-505v-1284h-122v1284h-504v116h1131v-116zM564 -323h-124l109 329l118 -1z" />
    <glyph glyph-name="uni0163" unicode="&#x163;" horiz-adv-x="904" 
d="M819 837h-434v-513q0 -60 15 -103.5t42.5 -72t66 -42.5t85.5 -14q61 0 114.5 19.5t95.5 52.5l54 -85q-51 -42 -119.5 -68t-153.5 -26q-147 0 -230.5 83t-83.5 254v515h-216v104h216v307h114v-307h434v-104zM527 -323h-119l108 329l114 -1z" />
    <glyph glyph-name="Tcaron" unicode="&#x164;" horiz-adv-x="1215" 
d="M1173 1284h-505v-1284h-122v1284h-504v116h1131v-116zM407 1782l200 -204l200 204h123l-248 -281h-150l-248 281h123z" />
    <glyph glyph-name="tcaron" unicode="&#x165;" horiz-adv-x="904" 
d="M819 837h-434v-513q0 -60 15 -103.5t42.5 -72t66 -42.5t85.5 -14q61 0 114.5 19.5t95.5 52.5l54 -85q-51 -42 -119.5 -68t-153.5 -26q-147 0 -230.5 83t-83.5 254v515h-216v104h216v307h114v-307h434v-104zM530 1051l11 389h117l-32 -389h-96z" />
    <glyph glyph-name="Tbar" unicode="&#x166;" horiz-adv-x="1215" 
d="M1007 647h-339v-647h-122v647h-338v116h338v521h-504v116h1131v-116h-505v-521h339v-116z" />
    <glyph glyph-name="tbar" unicode="&#x167;" horiz-adv-x="904" 
d="M819 837h-434v-259h325v-103h-325v-151q0 -60 15 -103.5t42.5 -72t66 -42.5t85.5 -14q61 0 114.5 19.5t95.5 52.5l54 -85q-51 -42 -119.5 -68t-153.5 -26q-147 0 -230.5 83t-83.5 254v153h-207v103h207v259h-216v104h216v307h114v-307h434v-104z" />
    <glyph glyph-name="Utilde" unicode="&#x168;" horiz-adv-x="1510" 
d="M1321 545q0 -140 -44.5 -245t-121.5 -175t-180 -105t-221 -35t-221 35t-179.5 105t-121 175t-44.5 245v855h122v-846q0 -116 34 -201t93.5 -140.5t140.5 -83t176 -27.5t176 27.5t140.5 83t93.5 140.5t34 201v846h123v-855zM414 1632q42 55 89.5 82.5t116.5 27.5
q51 0 85.5 -13.5t63 -29.5t55.5 -29.5t63 -13.5q42 0 74 19.5t64 57.5l69 -65q-42 -55 -90.5 -83t-116.5 -28q-50 0 -84.5 13.5t-63 30t-56 30t-63.5 13.5q-42 0 -74 -19.5t-64 -57.5z" />
    <glyph glyph-name="utilde" unicode="&#x169;" horiz-adv-x="1186" 
d="M1015 389q0 -100 -33.5 -175.5t-91 -126.5t-134 -76.5t-163.5 -25.5t-164 25.5t-134 76.5t-90.5 126.5t-33.5 175.5v552h114v-542q0 -76 22.5 -133.5t63.5 -96t97.5 -58t124.5 -19.5q67 0 124 19.5t97.5 58t63.5 96t23 133.5v542h114v-552zM264 1217q42 55 89.5 82.5
t116.5 27.5q51 0 85.5 -13.5t63 -29.5t55.5 -29.5t63 -13.5q42 0 74 19.5t64 57.5l69 -65q-42 -55 -90.5 -83t-116.5 -28q-50 0 -84.5 13.5t-63 30t-56 30t-63.5 13.5q-42 0 -74 -19.5t-64 -57.5z" />
    <glyph glyph-name="Umacron" unicode="&#x16a;" horiz-adv-x="1510" 
d="M1321 545q0 -140 -44.5 -245t-121.5 -175t-180 -105t-221 -35t-221 35t-179.5 105t-121 175t-44.5 245v855h122v-846q0 -116 34 -201t93.5 -140.5t140.5 -83t176 -27.5t176 27.5t140.5 83t93.5 140.5t34 201v846h123v-855zM462 1688h585v-93h-585v93z" />
    <glyph glyph-name="umacron" unicode="&#x16b;" horiz-adv-x="1186" 
d="M1015 389q0 -100 -33.5 -175.5t-91 -126.5t-134 -76.5t-163.5 -25.5t-164 25.5t-134 76.5t-90.5 126.5t-33.5 175.5v552h114v-542q0 -76 22.5 -133.5t63.5 -96t97.5 -58t124.5 -19.5q67 0 124 19.5t97.5 58t63.5 96t23 133.5v542h114v-552zM301 1273h585v-93h-585v93z
" />
    <glyph glyph-name="Ubreve" unicode="&#x16c;" horiz-adv-x="1510" 
d="M1321 545q0 -140 -44.5 -245t-121.5 -175t-180 -105t-221 -35t-221 35t-179.5 105t-121 175t-44.5 245v855h122v-846q0 -116 34 -201t93.5 -140.5t140.5 -83t176 -27.5t176 27.5t140.5 83t93.5 140.5t34 201v846h123v-855zM521 1799q28 -101 87.5 -151t145.5 -50
t145.5 50t87.5 151l93 -28q-36 -133 -120.5 -201.5t-205.5 -68.5t-205.5 68.5t-119.5 201.5z" />
    <glyph glyph-name="ubreve" unicode="&#x16d;" horiz-adv-x="1186" 
d="M1015 389q0 -100 -33.5 -175.5t-91 -126.5t-134 -76.5t-163.5 -25.5t-164 25.5t-134 76.5t-90.5 126.5t-33.5 175.5v552h114v-542q0 -76 22.5 -133.5t63.5 -96t97.5 -58t124.5 -19.5q67 0 124 19.5t97.5 58t63.5 96t23 133.5v542h114v-552zM360 1384q28 -101 87.5 -151
t145.5 -50t145.5 50t87.5 151l93 -28q-36 -133 -120.5 -201.5t-205.5 -68.5t-205.5 68.5t-119.5 201.5z" />
    <glyph glyph-name="Uring" unicode="&#x16e;" horiz-adv-x="1510" 
d="M1321 545q0 -140 -44.5 -245t-121.5 -175t-180 -105t-221 -35t-221 35t-179.5 105t-121 175t-44.5 245v855h122v-846q0 -116 34 -201t93.5 -140.5t140.5 -83t176 -27.5t176 27.5t140.5 83t93.5 140.5t34 201v846h123v-855zM754 1481q-44 0 -83.5 16.5t-68.5 45.5t-46 68
t-17 83t17 82.5t46 67.5t68.5 46t83.5 17t83 -17t68.5 -46t46.5 -67.5t17 -82.5t-17 -83t-46.5 -68t-68.5 -45.5t-83 -16.5zM754 1554q28 0 53.5 11t44 30t29.5 44.5t11 54.5t-11 54.5t-29.5 44t-44 29.5t-53.5 11q-29 0 -54 -11t-43.5 -29.5t-29.5 -44t-11 -54.5t11 -54.5
t29.5 -44.5t43.5 -30t54 -11z" />
    <glyph glyph-name="uring" unicode="&#x16f;" horiz-adv-x="1186" 
d="M1015 389q0 -100 -33.5 -175.5t-91 -126.5t-134 -76.5t-163.5 -25.5t-164 25.5t-134 76.5t-90.5 126.5t-33.5 175.5v552h114v-542q0 -76 22.5 -133.5t63.5 -96t97.5 -58t124.5 -19.5q67 0 124 19.5t97.5 58t63.5 96t23 133.5v542h114v-552zM593 1066q-44 0 -83.5 16.5
t-68.5 45.5t-46 68t-17 83t17 82.5t46 67.5t68.5 46t83.5 17t83 -17t68.5 -46t46.5 -67.5t17 -82.5t-17 -83t-46.5 -68t-68.5 -45.5t-83 -16.5zM593 1139q28 0 53.5 11t44 30t29.5 44.5t11 54.5t-11 54.5t-29.5 44t-44 29.5t-53.5 11q-29 0 -54 -11t-43.5 -29.5t-29.5 -44
t-11 -54.5t11 -54.5t29.5 -44.5t43.5 -30t54 -11z" />
    <glyph glyph-name="Uhungarumlaut" unicode="&#x170;" horiz-adv-x="1510" 
d="M1321 545q0 -140 -44.5 -245t-121.5 -175t-180 -105t-221 -35t-221 35t-179.5 105t-121 175t-44.5 245v855h122v-846q0 -116 34 -201t93.5 -140.5t140.5 -83t176 -27.5t176 27.5t140.5 83t93.5 140.5t34 201v846h123v-855zM838 1497l224 300h134l-243 -300h-115z
M495 1497l213 300h130l-226 -300h-117z" />
    <glyph glyph-name="uhungarumlaut" unicode="&#x171;" horiz-adv-x="1186" 
d="M1015 389q0 -100 -33.5 -175.5t-91 -126.5t-134 -76.5t-163.5 -25.5t-164 25.5t-134 76.5t-90.5 126.5t-33.5 175.5v552h114v-542q0 -76 22.5 -133.5t63.5 -96t97.5 -58t124.5 -19.5q67 0 124 19.5t97.5 58t63.5 96t23 133.5v542h114v-552zM690 1082l224 300h134
l-243 -300h-115zM347 1082l213 300h130l-226 -300h-117z" />
    <glyph glyph-name="Uogonek" unicode="&#x172;" horiz-adv-x="1510" 
d="M1321 545q0 -140 -44.5 -245t-121.5 -175t-180 -105t-221 -35t-221 35t-179.5 105t-121 175t-44.5 245v855h122v-846q0 -116 34 -201t93.5 -140.5t140.5 -83t176 -27.5t176 27.5t140.5 83t93.5 140.5t34 201v846h123v-855zM1178 -324q-45 -44 -102 -66t-120 -22
q-54 0 -99 14.5t-77 41t-49.5 62.5t-17.5 79q0 54 23 96t65 77.5t101 65.5t132 60l12 -35q-51 -29 -92.5 -56t-70 -56.5t-44 -61.5t-15.5 -70q0 -54 38 -86.5t101 -32.5q88 0 154 63z" />
    <glyph glyph-name="uogonek" unicode="&#x173;" horiz-adv-x="1186" 
d="M1015 389q0 -100 -33.5 -175.5t-91 -126.5t-134 -76.5t-163.5 -25.5t-164 25.5t-134 76.5t-90.5 126.5t-33.5 175.5v552h114v-542q0 -76 22.5 -133.5t63.5 -96t97.5 -58t124.5 -19.5q67 0 124 19.5t97.5 58t63.5 96t23 133.5v542h114v-552zM972 -324q-45 -44 -102 -66
t-120 -22q-54 0 -99 14.5t-77 41t-49.5 62.5t-17.5 79q0 54 23 96t65 77.5t101 65.5t132 60l12 -35q-51 -29 -92.5 -56t-70 -56.5t-44 -61.5t-15.5 -70q0 -54 38 -86.5t101 -32.5q88 0 154 63z" />
    <glyph glyph-name="Wcircumflex" unicode="&#x174;" horiz-adv-x="2208" 
d="M1672 0h-149l-419 1241l-419 -1241h-149l-472 1400h129l419 -1265l425 1265h137l424 -1263l420 1263h126zM1304 1503l-200 205l-200 -205h-123l248 282h150l248 -282h-123z" />
    <glyph glyph-name="wcircumflex" unicode="&#x175;" horiz-adv-x="1725" 
d="M1237 116l319 825h118l-369 -941h-134l-310 822l-308 -822h-133l-369 941h121l318 -824l309 824h128zM1063 1088l-200 205l-200 -205h-123l248 282h150l248 -282h-123z" />
    <glyph glyph-name="Ycircumflex" unicode="&#x176;" horiz-adv-x="1263" 
d="M693 600v-600h-122v602l-559 798h146l475 -685l475 685h143zM833 1503l-200 205l-200 -205h-123l248 282h150l248 -282h-123z" />
    <glyph glyph-name="ycircumflex" unicode="&#x177;" horiz-adv-x="1028" 
d="M232 -403h-126l360 613l-442 731h128l379 -619l355 619h125zM719 1088l-200 205l-200 -205h-123l248 282h150l248 -282h-123z" />
    <glyph glyph-name="Ydieresis" unicode="&#x178;" horiz-adv-x="1263" 
d="M693 600v-600h-122v602l-559 798h146l475 -685l475 685h143zM428 1725q35 0 58.5 -24t23.5 -59t-23.5 -58t-58.5 -23t-58 23t-23 58t23 59t58 24zM837 1725q35 0 59 -24t24 -59t-24 -58t-59 -23t-58 23t-23 58t23 59t58 24z" />
    <glyph glyph-name="Zacute" unicode="&#x179;" horiz-adv-x="1327" 
d="M1197 1306l-910 -1190h914v-116h-1076v95l909 1189h-894v116h1057v-94zM537 1497l220 300h144l-251 -300h-113z" />
    <glyph glyph-name="zacute" unicode="&#x17a;" horiz-adv-x="1066" 
d="M931 857l-652 -754h660v-103h-812v83l657 754h-637v104h784v-84zM421 1082l220 300h144l-251 -300h-113z" />
    <glyph glyph-name="Zdotaccent" unicode="&#x17b;" horiz-adv-x="1327" 
d="M1197 1306l-910 -1190h914v-116h-1076v95l909 1189h-894v116h1057v-94zM657.54 1730.33q35.9072 0 60.0176 -24.6221q24.1094 -24.623 24.1094 -60.5312q0 -35.9072 -24.1094 -59.5039q-24.1104 -23.5967 -60.0176 -23.5967q-35.9082 0 -59.5049 23.5967
t-23.5967 59.5039q0 35.9082 23.5967 60.5312q23.5967 24.6221 59.5049 24.6221z" />
    <glyph glyph-name="zdotaccent" unicode="&#x17c;" horiz-adv-x="1066" 
d="M931 857l-652 -754h660v-103h-812v83l657 754h-637v104h784v-84zM539 1362q35 0 58.5 -24t23.5 -59t-23.5 -58t-58.5 -23t-58 23t-23 58t23 59t58 24z" />
    <glyph glyph-name="Zcaron" unicode="&#x17d;" horiz-adv-x="1327" 
d="M1197 1306l-910 -1190h914v-116h-1076v95l909 1189h-894v116h1057v-94zM468 1782l200 -204l200 204h123l-248 -281h-150l-248 281h123z" />
    <glyph glyph-name="zcaron" unicode="&#x17e;" horiz-adv-x="1066" 
d="M931 857l-652 -754h660v-103h-812v83l657 754h-637v104h784v-84zM339 1367l200 -204l200 204h123l-248 -281h-150l-248 281h123z" />
    <glyph glyph-name="longs" unicode="&#x17f;" horiz-adv-x="652" 
d="M484 1455q78 0 141.5 -20t112.5 -50l-42 -95q-39 24 -93 41t-112 17q-55 0 -93.5 -16.5t-63 -48t-36 -77t-11.5 -103.5v-1103h-114v1103q0 78 17 142.5t54.5 111t96.5 72.5t143 26z" />
    <glyph glyph-name="uni018F" unicode="&#x18f;" horiz-adv-x="1625" 
d="M795 1415q148 0 276.5 -53t224 -148t150 -226t54.5 -288t-53.5 -288t-146.5 -226t-218.5 -148t-270.5 -53q-150 0 -275.5 52.5t-216.5 146t-142 223.5t-51 286q0 16 0.5 32t1.5 32h1243q-10 120 -58 219.5t-125 171t-178 111t-215 39.5q-150 0 -269.5 -61t-207.5 -165
l-86 84q52 60 114 107.5t132.5 81.5t149.5 52t167 18zM812 102q111 0 208.5 39t172.5 110.5t122 171t56 219.5h-1112q4 -119 47.5 -218t117 -170.5t173 -111.5t215.5 -40z" />
    <glyph glyph-name="florin" unicode="&#x192;" horiz-adv-x="1400" 
d="M1078 673h-324l-36 -370q-7 -71 -27 -129.5t-54 -100.5t-83.5 -65t-115.5 -23q-69 0 -125.5 19t-99.5 47l40 92q34 -23 80.5 -39t96.5 -16q41 0 72 15t52.5 43t34.5 68t18 89l37 370h-276v104h286l32 320q7 71 27 129.5t54 100.5t83.5 65t115.5 23q69 0 125 -19t99 -47
l-40 -92q-34 23 -80.5 39t-96.5 16q-41 0 -72 -15t-52.5 -43t-34.5 -68t-18 -89l-32 -320h314v-104z" />
    <glyph glyph-name="uni01B5" unicode="&#x1b5;" horiz-adv-x="1327" 
d="M1063 644h-373l-403 -528h914v-116h-1076v95l422 553h-284v112h370l401 524h-894v116h1057v-94l-420 -549h286v-113z" />
    <glyph glyph-name="uni01B6" unicode="&#x1b6;" horiz-adv-x="1066" 
d="M854 433h-290l-285 -330h660v-103h-812v83l308 354h-213v88h289l273 312h-637v104h784v-84l-290 -336h213v-88z" />
    <glyph glyph-name="uni01CD" unicode="&#x1cd;" horiz-adv-x="1406" 
d="M1366 0h-131l-170 409h-728l-170 -409h-127l588 1400h150zM386 525h630l-315 756zM503 1782l200 -204l200 204h123l-248 -281h-150l-248 281h123z" />
    <glyph glyph-name="uni01CE" unicode="&#x1ce;" horiz-adv-x="1244" 
d="M1063 0h-113v181q-57 -89 -150.5 -142.5t-222.5 -53.5q-99 0 -185 36.5t-149 101t-99.5 153.5t-36.5 194t36.5 194t99.5 154t149 101.5t185 36.5q129 0 222.5 -54t150.5 -142v181h113v-941zM590 849q-81 0 -148.5 -29.5t-116 -80.5t-75.5 -120t-27 -149t27 -149t76 -120
t116.5 -80t147.5 -29t147 28.5t116 79.5t76 120t27 150t-27 150.5t-76 120t-116 79.5t-147 29zM406 1367l200 -204l200 204h123l-248 -281h-150l-248 281h123z" />
    <glyph glyph-name="uni01CF" unicode="&#x1cf;" horiz-adv-x="541" 
d="M331 0h-122v1400h122v-1400zM70 1782l200 -204l200 204h123l-248 -281h-150l-248 281h123z" />
    <glyph glyph-name="uni01D0" unicode="&#x1d0;" horiz-adv-x="477" 
d="M296 0h-114v941h114v-941zM39 1367l200 -204l200 204h123l-248 -281h-150l-248 281h123z" />
    <glyph glyph-name="uni01D1" unicode="&#x1d1;" horiz-adv-x="1685" 
d="M843 1416q153 0 284.5 -53t227.5 -147.5t150.5 -226.5t54.5 -289q0 -158 -54.5 -289.5t-150.5 -226t-227.5 -147.5t-284.5 -53t-284.5 53t-227.5 147.5t-150.5 226t-54.5 289.5q0 157 54.5 289t150.5 226.5t227.5 147.5t284.5 53zM843 1298q-125 0 -232.5 -43t-187 -122
t-125 -189t-45.5 -244t45.5 -244t125 -189t187 -122t232.5 -43q124 0 231.5 43t187 122t125 189t45.5 244t-45.5 244t-125 189t-187 122t-231.5 43zM643 1782l200 -204l200 204h123l-248 -281h-150l-248 281h123z" />
    <glyph glyph-name="uni01D2" unicode="&#x1d2;" horiz-adv-x="1192" 
d="M595 956q105 0 194.5 -37t155 -102t103 -154t37.5 -193t-37.5 -192.5t-103 -153.5t-155 -102t-194.5 -37t-194 37t-154.5 102t-102.5 153.5t-37 192.5t37 193t102.5 154t154.5 102t194 37zM595 849q-79 0 -147 -28.5t-118 -79t-78.5 -120t-28.5 -151.5t28.5 -151.5
t78.5 -119.5t118 -78.5t147 -28.5t147.5 28.5t118.5 78.5t78.5 119.5t28.5 151.5t-28.5 151.5t-78.5 120t-118.5 79t-147.5 28.5zM396 1367l200 -204l200 204h123l-248 -281h-150l-248 281h123z" />
    <glyph glyph-name="uni01D3" unicode="&#x1d3;" horiz-adv-x="1510" 
d="M1321 545q0 -140 -44.5 -245t-121.5 -175t-180 -105t-221 -35t-221 35t-179.5 105t-121 175t-44.5 245v855h122v-846q0 -116 34 -201t93.5 -140.5t140.5 -83t176 -27.5t176 27.5t140.5 83t93.5 140.5t34 201v846h123v-855zM554 1782l200 -204l200 204h123l-248 -281h-150
l-248 281h123z" />
    <glyph glyph-name="uni01D4" unicode="&#x1d4;" horiz-adv-x="1186" 
d="M1015 389q0 -100 -33.5 -175.5t-91 -126.5t-134 -76.5t-163.5 -25.5t-164 25.5t-134 76.5t-90.5 126.5t-33.5 175.5v552h114v-542q0 -76 22.5 -133.5t63.5 -96t97.5 -58t124.5 -19.5q67 0 124 19.5t97.5 58t63.5 96t23 133.5v542h114v-552zM393 1367l200 -204l200 204
h123l-248 -281h-150l-248 281h123z" />
    <glyph glyph-name="uni01D5" unicode="&#x1d5;" horiz-adv-x="1510" 
d="M1321 545q0 -140 -44.5 -245t-121.5 -175t-180 -105t-221 -35t-221 35t-179.5 105t-121 175t-44.5 245v855h122v-846q0 -116 34 -201t93.5 -140.5t140.5 -83t176 -27.5t176 27.5t140.5 83t93.5 140.5t34 201v846h123v-855zM462 2020h585v-93h-585v93zM549 1725
q35 0 58.5 -24t23.5 -59t-23.5 -58t-58.5 -23t-58 23t-23 58t23 59t58 24zM958 1725q35 0 59 -24t24 -59t-24 -58t-59 -23t-58 23t-23 58t23 59t58 24z" />
    <glyph glyph-name="uni01D6" unicode="&#x1d6;" horiz-adv-x="1186" 
d="M1015 389q0 -100 -33.5 -175.5t-91 -126.5t-134 -76.5t-163.5 -25.5t-164 25.5t-134 76.5t-90.5 126.5t-33.5 175.5v552h114v-542q0 -76 22.5 -133.5t63.5 -96t97.5 -58t124.5 -19.5q67 0 124 19.5t97.5 58t63.5 96t23 133.5v542h114v-552zM388 1310q35 0 58.5 -24
t23.5 -59t-23.5 -58t-58.5 -23t-58 23t-23 58t23 59t58 24zM797 1310q35 0 59 -24t24 -59t-24 -58t-59 -23t-58 23t-23 58t23 59t58 24zM301 1598h585v-93h-585v93z" />
    <glyph glyph-name="uni01D7" unicode="&#x1d7;" horiz-adv-x="1510" 
d="M1321 545q0 -140 -44.5 -245t-121.5 -175t-180 -105t-221 -35t-221 35t-179.5 105t-121 175t-44.5 245v855h122v-846q0 -116 34 -201t93.5 -140.5t140.5 -83t176 -27.5t176 27.5t140.5 83t93.5 140.5t34 201v846h123v-855zM623 1903l220 300h144l-251 -300h-113z
M549 1725q35 0 58.5 -24t23.5 -59t-23.5 -58t-58.5 -23t-58 23t-23 58t23 59t58 24zM958 1725q35 0 59 -24t24 -59t-24 -58t-59 -23t-58 23t-23 58t23 59t58 24z" />
    <glyph glyph-name="uni01D8" unicode="&#x1d8;" horiz-adv-x="1186" 
d="M1015 389q0 -100 -33.5 -175.5t-91 -126.5t-134 -76.5t-163.5 -25.5t-164 25.5t-134 76.5t-90.5 126.5t-33.5 175.5v552h114v-542q0 -76 22.5 -133.5t63.5 -96t97.5 -58t124.5 -19.5q67 0 124 19.5t97.5 58t63.5 96t23 133.5v542h114v-552zM388 1310q35 0 58.5 -24
t23.5 -59t-23.5 -58t-58.5 -23t-58 23t-23 58t23 59t58 24zM797 1310q35 0 59 -24t24 -59t-24 -58t-59 -23t-58 23t-23 58t23 59t58 24zM462 1481l220 300h144l-251 -300h-113z" />
    <glyph glyph-name="uni01D9" unicode="&#x1d9;" horiz-adv-x="1510" 
d="M1321 545q0 -140 -44.5 -245t-121.5 -175t-180 -105t-221 -35t-221 35t-179.5 105t-121 175t-44.5 245v855h122v-846q0 -116 34 -201t93.5 -140.5t140.5 -83t176 -27.5t176 27.5t140.5 83t93.5 140.5t34 201v846h123v-855zM554 2188l200 -204l200 204h123l-248 -281h-150
l-248 281h123zM549 1725q35 0 58.5 -24t23.5 -59t-23.5 -58t-58.5 -23t-58 23t-23 58t23 59t58 24zM958 1725q35 0 59 -24t24 -59t-24 -58t-59 -23t-58 23t-23 58t23 59t58 24z" />
    <glyph glyph-name="uni01DA" unicode="&#x1da;" horiz-adv-x="1186" 
d="M1015 389q0 -100 -33.5 -175.5t-91 -126.5t-134 -76.5t-163.5 -25.5t-164 25.5t-134 76.5t-90.5 126.5t-33.5 175.5v552h114v-542q0 -76 22.5 -133.5t63.5 -96t97.5 -58t124.5 -19.5q67 0 124 19.5t97.5 58t63.5 96t23 133.5v542h114v-552zM388 1310q35 0 58.5 -24
t23.5 -59t-23.5 -58t-58.5 -23t-58 23t-23 58t23 59t58 24zM797 1310q35 0 59 -24t24 -59t-24 -58t-59 -23t-58 23t-23 58t23 59t58 24zM393 1766l200 -204l200 204h123l-248 -281h-150l-248 281h123z" />
    <glyph glyph-name="uni01DB" unicode="&#x1db;" horiz-adv-x="1510" 
d="M1321 545q0 -140 -44.5 -245t-121.5 -175t-180 -105t-221 -35t-221 35t-179.5 105t-121 175t-44.5 245v855h122v-846q0 -116 34 -201t93.5 -140.5t140.5 -83t176 -27.5t176 27.5t140.5 83t93.5 140.5t34 201v846h123v-855zM513 2203h144l220 -300h-113zM549 1725
q35 0 58.5 -24t23.5 -59t-23.5 -58t-58.5 -23t-58 23t-23 58t23 59t58 24zM958 1725q35 0 59 -24t24 -59t-24 -58t-59 -23t-58 23t-23 58t23 59t58 24z" />
    <glyph glyph-name="uni01DC" unicode="&#x1dc;" horiz-adv-x="1186" 
d="M1015 389q0 -100 -33.5 -175.5t-91 -126.5t-134 -76.5t-163.5 -25.5t-164 25.5t-134 76.5t-90.5 126.5t-33.5 175.5v552h114v-542q0 -76 22.5 -133.5t63.5 -96t97.5 -58t124.5 -19.5q67 0 124 19.5t97.5 58t63.5 96t23 133.5v542h114v-552zM388 1310q35 0 58.5 -24
t23.5 -59t-23.5 -58t-58.5 -23t-58 23t-23 58t23 59t58 24zM797 1310q35 0 59 -24t24 -59t-24 -58t-59 -23t-58 23t-23 58t23 59t58 24zM352 1781h144l220 -300h-113z" />
    <glyph glyph-name="uni01E2" unicode="&#x1e2;" horiz-adv-x="2265" 
d="M2097 0h-964v390h-658l-296 -390h-147l1067 1400h991v-115h-835v-523h811v-114h-811v-533h842v-115zM1133 506v748l-569 -748h569zM1223 1688h585v-93h-585v93z" />
    <glyph glyph-name="uni01E3" unicode="&#x1e3;" horiz-adv-x="1819" 
d="M1272 956q94 0 174 -35.5t139 -99.5t92.5 -152t34.5 -194q0 -12 -0.5 -23.5t-1.5 -22.5h-788q6 -82 36.5 -146t79 -108.5t112 -67.5t135.5 -23q100 0 178.5 36.5t139.5 96.5l61 -77q-44 -45 -91 -75t-95.5 -48t-98 -25t-100.5 -7q-129 0 -230.5 53t-163.5 147
q-33 -42 -76 -78.5t-95.5 -63.5t-113.5 -42.5t-130 -15.5q-84 0 -151 20t-114.5 56t-72.5 86t-25 111q0 60 25 109.5t74 85t122 55t169 19.5h309v29q0 78 -21 134t-60 92.5t-95 53.5t-125 17q-93 0 -164.5 -30t-123.5 -70l-54 85q74 57 162.5 87.5t193.5 30.5q67 0 125 -13
t105.5 -40.5t81.5 -71.5t53 -106q27 52 67.5 95t91 73t108.5 46.5t121 16.5zM487 85q51 0 101.5 13t96.5 37t86 58.5t70 77.5q-29 75 -35 161h-297q-75 0 -128.5 -13t-87 -36.5t-49 -55.5t-15.5 -69t17 -68.5t50 -55t81 -36.5t110 -13zM1270 854q-71 0 -131 -24t-105 -67.5
t-73 -103.5t-37 -132h672q-6 73 -33 133t-70 103t-100 67t-123 24zM608 1273h585v-93h-585v93z" />
    <glyph glyph-name="Gcaron" unicode="&#x1e6;" horiz-adv-x="1637" 
d="M843 1416q166 0 305.5 -63.5t236.5 -175.5l-90 -87q-81 97 -197 152.5t-255 55.5q-125 0 -232.5 -43t-187 -122t-125 -189t-45.5 -244t45.5 -244t124.5 -189t185.5 -122t228.5 -43q120 0 217 36.5t166.5 104.5t110 164.5t47.5 216.5h-474v114h606q2 -10 2 -18v-15
q0 -154 -47 -286t-135 -228.5t-212.5 -151t-280.5 -54.5q-140 0 -268.5 49t-227 141.5t-157 225t-58.5 299.5q0 158 55 289.5t151 226.5t227 147.5t284 52.5zM623 1782l200 -204l200 204h123l-248 -281h-150l-248 281h123z" />
    <glyph glyph-name="gcaron" unicode="&#x1e7;" horiz-adv-x="1236" 
d="M574 956q127 0 219.5 -54.5t147.5 -144.5v184h114v-877q0 -117 -38 -206t-105 -149t-157 -90.5t-194 -30.5q-58 0 -114 9.5t-107 27t-95.5 42.5t-79.5 57l58 83q67 -53 152.5 -84t185.5 -31q79 0 148.5 22.5t121 68.5t81 115t29.5 161v134q-55 -90 -147.5 -144
t-219.5 -54q-99 0 -184.5 35.5t-148.5 99t-98.5 152t-35.5 194.5q0 105 35.5 193.5t98.5 152t148.5 99t184.5 35.5zM586 849q-80 0 -147 -29t-115 -79.5t-74.5 -118.5t-26.5 -146q0 -79 26.5 -147t74.5 -118.5t115 -79.5t147 -29q79 0 146 28.5t115.5 78.5t75.5 118.5
t27 148.5q0 79 -27 147.5t-75.5 118.5t-115.5 78.5t-146 28.5zM400 1367l200 -204l200 204h123l-248 -281h-150l-248 281h123z" />
    <glyph glyph-name="Aringacute" unicode="&#x1fa;" horiz-adv-x="1406" 
d="M1366 0h-131l-170 409h-728l-170 -409h-127l588 1400h150zM386 525h630l-315 756zM570 1817l220 300h144l-251 -300h-113zM701 1336q-44 0 -83.5 16.5t-68.5 45.5t-46 68t-17 83t17 82.5t46 67.5t68.5 46t83.5 17t83 -17t68.5 -46t46.5 -67.5t17 -82.5t-17 -83t-46.5 -68
t-68.5 -45.5t-83 -16.5zM701 1409q28 0 53.5 11t44 30t29.5 44.5t11 54.5t-11 54.5t-29.5 44t-44 29.5t-53.5 11q-29 0 -54 -11t-43.5 -29.5t-29.5 -44t-11 -54.5t11 -54.5t29.5 -44.5t43.5 -30t54 -11z" />
    <glyph glyph-name="aringacute" unicode="&#x1fb;" horiz-adv-x="1244" 
d="M1063 0h-113v181q-57 -89 -150.5 -142.5t-222.5 -53.5q-99 0 -185 36.5t-149 101t-99.5 153.5t-36.5 194t36.5 194t99.5 154t149 101.5t185 36.5q129 0 222.5 -54t150.5 -142v181h113v-941zM590 849q-81 0 -148.5 -29.5t-116 -80.5t-75.5 -120t-27 -149t27 -149t76 -120
t116.5 -80t147.5 -29t147 28.5t116 79.5t76 120t27 150t-27 150.5t-76 120t-116 79.5t-147 29zM584 1037q-44 0 -83.5 16.5t-68.5 45.5t-46 68t-17 83t17 82.5t46 67.5t68.5 46t83.5 17t83 -17t68.5 -46t46.5 -67.5t17 -82.5t-17 -83t-46.5 -68t-68.5 -45.5t-83 -16.5z
M584 1110q28 0 53.5 11t44 30t29.5 44.5t11 54.5t-11 54.5t-29.5 44t-44 29.5t-53.5 11q-29 0 -54 -11t-43.5 -29.5t-29.5 -44t-11 -54.5t11 -54.5t29.5 -44.5t43.5 -30t54 -11zM453 1521l220 300h144l-251 -300h-113z" />
    <glyph glyph-name="AEacute" unicode="&#x1fc;" horiz-adv-x="2265" 
d="M2097 0h-964v390h-658l-296 -390h-147l1067 1400h991v-115h-835v-523h811v-114h-811v-533h842v-115zM1133 506v748l-569 -748h569zM1384 1497l220 300h144l-251 -300h-113z" />
    <glyph glyph-name="aeacute" unicode="&#x1fd;" horiz-adv-x="1819" 
d="M1272 956q94 0 174 -35.5t139 -99.5t92.5 -152t34.5 -194q0 -12 -0.5 -23.5t-1.5 -22.5h-788q6 -82 36.5 -146t79 -108.5t112 -67.5t135.5 -23q100 0 178.5 36.5t139.5 96.5l61 -77q-44 -45 -91 -75t-95.5 -48t-98 -25t-100.5 -7q-129 0 -230.5 53t-163.5 147
q-33 -42 -76 -78.5t-95.5 -63.5t-113.5 -42.5t-130 -15.5q-84 0 -151 20t-114.5 56t-72.5 86t-25 111q0 60 25 109.5t74 85t122 55t169 19.5h309v29q0 78 -21 134t-60 92.5t-95 53.5t-125 17q-93 0 -164.5 -30t-123.5 -70l-54 85q74 57 162.5 87.5t193.5 30.5q67 0 125 -13
t105.5 -40.5t81.5 -71.5t53 -106q27 52 67.5 95t91 73t108.5 46.5t121 16.5zM487 85q51 0 101.5 13t96.5 37t86 58.5t70 77.5q-29 75 -35 161h-297q-75 0 -128.5 -13t-87 -36.5t-49 -55.5t-15.5 -69t17 -68.5t50 -55t81 -36.5t110 -13zM1270 854q-71 0 -131 -24t-105 -67.5
t-73 -103.5t-37 -132h672q-6 73 -33 133t-70 103t-100 67t-123 24zM782 1082l220 300h144l-251 -300h-113z" />
    <glyph glyph-name="Oslashacute" unicode="&#x1fe;" horiz-adv-x="1685" 
d="M843 1416q139 0 258 -43t213 -121l163 163l81 -81l-163 -163q78 -92 121.5 -211t43.5 -260q0 -158 -54.5 -289.5t-150.5 -226t-227.5 -147.5t-284.5 -53q-139 0 -258.5 43t-213.5 121l-162 -162l-81 80l162 162q-78 93 -121 212t-43 260q0 157 54.5 289t150.5 226.5
t227.5 147.5t284.5 53zM843 1298q-125 0 -232.5 -43t-187 -122t-125 -189t-45.5 -244q0 -115 33 -211.5t93 -171.5l847 847q-77 64 -174 99t-209 35zM1432 700q0 114 -33 210.5t-93 171.5l-848 -847q78 -64 175.5 -98.5t209.5 -34.5q124 0 231.5 43t187 122t125 189
t45.5 244zM712 1497l220 300h144l-251 -300h-113z" />
    <glyph glyph-name="oslashacute" unicode="&#x1ff;" horiz-adv-x="1192" 
d="M595 956q91 0 170 -28t142 -78l116 116l70 -68l-117 -117q51 -63 80 -141.5t29 -169.5q0 -104 -37.5 -192.5t-103 -153.5t-155 -102t-194.5 -37q-91 0 -169.5 27t-141.5 77l-115 -115l-70 68l116 116q-51 63 -79.5 142t-28.5 170q0 104 37 193t102.5 154t154.5 102
t194 37zM595 849q-79 0 -147 -28.5t-118 -79t-78.5 -120t-28.5 -151.5q0 -68 19 -126t54 -105l532 532q-48 37 -107 57.5t-126 20.5zM968 470q0 67 -19 125t-53 106l-532 -532q48 -37 106 -57t125 -20q79 0 147.5 28.5t118.5 78.5t78.5 119.5t28.5 151.5zM477 1082l220 300
h144l-251 -300h-113z" />
    <glyph glyph-name="uni0218" unicode="&#x218;" horiz-adv-x="1343" 
d="M1120 1162q-82 58 -191 97.5t-247 39.5q-84 0 -155.5 -19t-123.5 -55t-81.5 -87.5t-29.5 -117.5q0 -104 81.5 -167.5t260.5 -83.5l153 -17q93 -11 172 -35.5t136.5 -67t89.5 -106t32 -150.5q0 -102 -43.5 -178.5t-118.5 -127.5t-175 -76.5t-213 -25.5q-79 0 -156 13.5
t-147.5 37t-131.5 55.5t-107 69l67 97q37 -29 88 -57t112.5 -50t131 -35.5t142.5 -13.5q89 0 166.5 17.5t134.5 52.5t90 88t33 124q0 114 -90 173t-265 79l-159 18q-96 11 -172 38t-129.5 71.5t-81.5 106.5t-28 143q0 97 40.5 172t110.5 126.5t164.5 78t202.5 26.5
q81 0 152.5 -12t133.5 -33t115.5 -49t98.5 -60zM784 -88l-68 -341h-101l44 341h125z" />
    <glyph glyph-name="uni0219" unicode="&#x219;" horiz-adv-x="974" 
d="M809 762q-24 17 -58.5 33.5t-75.5 30t-88.5 22t-96.5 8.5q-55 0 -101 -11.5t-79 -33.5t-51.5 -53.5t-18.5 -71.5q0 -66 52.5 -102.5t161.5 -49.5l120 -14q148 -17 228.5 -79t80.5 -174q0 -67 -29.5 -119.5t-82.5 -88.5t-127.5 -55t-165.5 -19q-103 0 -204 28.5t-183 91.5
l53 85q27 -21 60 -40.5t74 -34t90.5 -23t110.5 -8.5q64 0 116.5 11t90.5 33t59 55t21 77q0 132 -217 156l-121 13q-80 9 -137.5 30.5t-95 53.5t-55 74.5t-17.5 92.5q0 65 26.5 116t75 86.5t116 54.5t148.5 19q112 0 208.5 -30t160.5 -76zM573 -88l-68 -341h-101l44 341h125z
" />
    <glyph glyph-name="uni021A" unicode="&#x21a;" horiz-adv-x="1215" 
d="M1173 1284h-505v-1284h-122v1284h-504v116h1131v-116zM692 -88l-68 -341h-101l44 341h125z" />
    <glyph glyph-name="uni021B" unicode="&#x21b;" horiz-adv-x="904" 
d="M819 837h-434v-513q0 -60 15 -103.5t42.5 -72t66 -42.5t85.5 -14q61 0 114.5 19.5t95.5 52.5l54 -85q-51 -42 -119.5 -68t-153.5 -26q-147 0 -230.5 83t-83.5 254v515h-216v104h216v307h114v-307h434v-104zM631 -88l-68 -341h-101l44 341h125z" />
    <glyph glyph-name="uni0232" unicode="&#x232;" horiz-adv-x="1263" 
d="M693 600v-600h-122v602l-559 798h146l475 -685l475 685h143zM341 1688h585v-93h-585v93z" />
    <glyph glyph-name="uni0233" unicode="&#x233;" horiz-adv-x="1028" 
d="M232 -403h-126l360 613l-442 731h128l379 -619l355 619h125zM227 1273h585v-93h-585v93z" />
    <glyph glyph-name="uni0237" unicode="&#x237;" horiz-adv-x="480" 
d="M299 -178q0 -115 -55.5 -174.5t-154.5 -59.5q-36 0 -71 9.5t-59 23.5l28 98q19 -11 43 -17.5t50 -6.5q51 0 78 32t27 100v1114h114v-1119z" />
    <glyph glyph-name="uni0259" unicode="&#x259;" horiz-adv-x="1121" 
d="M548 -15q-94 0 -174.5 35.5t-139 99t-92.5 152t-35 193.5q0 13 0.5 24.5t1.5 22.5h789q-6 82 -36.5 146t-79.5 108.5t-112.5 67.5t-135.5 23q-100 0 -179.5 -37t-142.5 -100l-57 81q45 45 91.5 75t95 48t98.5 25t101 7q103 0 190 -35.5t150 -99.5t98 -153t35 -197
q0 -107 -35.5 -196t-98 -153.5t-148 -100.5t-184.5 -36zM550 86q72 0 131.5 24.5t104.5 68t73.5 103.5t36.5 132h-673q6 -73 33 -133.5t70.5 -103.5t100.5 -67t123 -24z" />
    <glyph glyph-name="uni02BB" unicode="&#x2bb;" horiz-adv-x="488" 
d="M150 957l96 483h99l-62 -483h-133z" />
    <glyph glyph-name="uni02BC" unicode="&#x2bc;" horiz-adv-x="488" 
d="M338 1440l-96 -483h-99l62 483h133z" />
    <glyph glyph-name="uni02BE" unicode="&#x2be;" horiz-adv-x="533" 
d="M147 881q46 0 87 18t72 49.5t48.5 74t17.5 90.5q0 49 -17.5 91t-48.5 73.5t-72 49.5t-87 18v105q69 0 130.5 -26.5t107 -72t72 -107t26.5 -131.5t-26.5 -131.5t-72 -107t-107 -72t-130.5 -26.5v105z" />
    <glyph glyph-name="uni02BF" unicode="&#x2bf;" horiz-adv-x="533" 
d="M386 1346q-47 0 -87.5 -18.5t-71.5 -50t-48.5 -73.5t-17.5 -90q0 -49 17.5 -91t48.5 -73.5t71.5 -49.5t87.5 -18v-105q-69 0 -130.5 26.5t-107 72t-72 107t-26.5 131.5t26.5 131t72 107t107 72.5t130.5 26.5v-105z" />
    <glyph glyph-name="circumflex" unicode="&#x2c6;" horiz-adv-x="904" 
d="M652 1089l-200 204l-200 -204h-123l248 281h150l248 -281h-123z" />
    <glyph glyph-name="caron" unicode="&#x2c7;" horiz-adv-x="904" 
d="M252 1367l200 -204l200 204h123l-248 -281h-150l-248 281h123z" />
    <glyph glyph-name="breve" unicode="&#x2d8;" horiz-adv-x="904" 
d="M219 1384q28 -101 87.5 -151t145.5 -50t145.5 50t87.5 151l92 -28q-35 -133 -119.5 -201.5t-205.5 -68.5t-205.5 68.5t-119.5 201.5z" />
    <glyph glyph-name="dotaccent" unicode="&#x2d9;" horiz-adv-x="526" 
d="M263 1362q35 0 58.5 -24t23.5 -59t-23.5 -58t-58.5 -23t-58 23t-23 58t23 59t58 24z" />
    <glyph glyph-name="ring" unicode="&#x2da;" horiz-adv-x="904" 
d="M452 1066q-44 0 -83.5 16.5t-68.5 45.5t-46 68t-17 83t17 82.5t46 67.5t68.5 46t83.5 17t83 -17t68.5 -46t46.5 -67.5t17 -82.5t-17 -83t-46.5 -68t-68.5 -45.5t-83 -16.5zM452 1139q28 0 53.5 11t44 30t29.5 44.5t11 54.5t-11 54.5t-29.5 44t-44 29.5t-53.5 11
q-29 0 -54 -11t-43.5 -29.5t-29.5 -44t-11 -54.5t11 -54.5t29.5 -44.5t43.5 -30t54 -11z" />
    <glyph glyph-name="ogonek" unicode="&#x2db;" horiz-adv-x="1076" 
d="M892 -324q-45 -44 -102 -66t-120 -22q-54 0 -98 15t-75.5 42t-49 65t-17.5 84q0 51 21.5 92.5t60 76.5t92 65.5t118.5 59.5l51 -65q-113 -51 -174 -100.5t-61 -117.5q0 -54 38 -86.5t101 -32.5q88 0 154 63z" />
    <glyph glyph-name="tilde" unicode="&#x2dc;" horiz-adv-x="904" 
d="M113 1217q42 55 89.5 82.5t116.5 27.5q51 0 85.5 -13.5t63 -29.5t55.5 -29.5t63 -13.5q42 0 74 19.5t64 57.5l69 -65q-42 -55 -90.5 -83t-116.5 -28q-50 0 -84.5 13.5t-63 30t-56 30t-63.5 13.5q-42 0 -74 -19.5t-64 -57.5z" />
    <glyph glyph-name="hungarumlaut" unicode="&#x2dd;" horiz-adv-x="904" 
d="M456 1082l220 300h144l-251 -300h-113zM85 1082l220 300h144l-251 -300h-113z" />
    <glyph glyph-name="gravecomb" unicode="&#x300;" 
d="M-854 1382h144l220 -300h-113z" />
    <glyph glyph-name="acutecomb" unicode="&#x301;" 
d="M-714 1082l220 300h144l-251 -300h-113z" />
    <glyph glyph-name="uni0302" unicode="&#x302;" 
d="M-396 1088l-200 205l-200 -205h-123l248 282h150l248 -282h-123z" />
    <glyph glyph-name="tildecomb" unicode="&#x303;" 
d="M-925 1217q42 55 89.5 82.5t116.5 27.5q51 0 85.5 -13.5t63 -29.5t55.5 -29.5t63 -13.5q42 0 74 19.5t64 57.5l69 -65q-42 -55 -90.5 -83t-116.5 -28q-50 0 -84.5 13.5t-63 30t-56 30t-63.5 13.5q-42 0 -74 -19.5t-64 -57.5z" />
    <glyph glyph-name="uni0304" unicode="&#x304;" 
d="M-888 1273h585v-93h-585v93z" />
    <glyph glyph-name="uni0306" unicode="&#x306;" 
d="M-829 1384q28 -101 87.5 -151t145.5 -50t145.5 50t87.5 151l93 -28q-36 -133 -120.5 -201.5t-205.5 -68.5t-205.5 68.5t-119.5 201.5z" />
    <glyph glyph-name="uni0307" unicode="&#x307;" 
d="M-596 1362q35 0 58.5 -24t23.5 -59t-23.5 -58t-58.5 -23t-58 23t-23 58t23 59t58 24z" />
    <glyph glyph-name="uni0308" unicode="&#x308;" 
d="M-801 1310q35 0 58.5 -24t23.5 -59t-23.5 -58t-58.5 -23t-58 23t-23 58t23 59t58 24zM-392 1310q35 0 59 -24t24 -59t-24 -58t-59 -23t-58 23t-23 58t23 59t58 24z" />
    <glyph glyph-name="uni030A" unicode="&#x30a;" 
d="M-596 1066q-44 0 -83.5 16.5t-68.5 45.5t-46 68t-17 83t17 82.5t46 67.5t68.5 46t83.5 17t83 -17t68.5 -46t46.5 -67.5t17 -82.5t-17 -83t-46.5 -68t-68.5 -45.5t-83 -16.5zM-596 1139q28 0 53.5 11t44 30t29.5 44.5t11 54.5t-11 54.5t-29.5 44t-44 29.5t-53.5 11
q-29 0 -54 -11t-43.5 -29.5t-29.5 -44t-11 -54.5t11 -54.5t29.5 -44.5t43.5 -30t54 -11z" />
    <glyph glyph-name="uni030B" unicode="&#x30b;" 
d="M-499 1082l224 300h134l-243 -300h-115zM-842 1082l213 300h130l-226 -300h-117z" />
    <glyph glyph-name="uni030C" unicode="&#x30c;" 
d="M-796 1367l200 -204l200 204h123l-248 -281h-150l-248 281h123z" />
    <glyph glyph-name="uni0312" unicode="&#x312;" 
d="M-668 1082l68 340h101l-44 -340h-125z" />
    <glyph glyph-name="dotbelowcomb" unicode="&#x323;" 
d="M-595 -178q35 0 58.5 -24t23.5 -59t-23.5 -58t-58.5 -23t-58 23t-23 58t23 59t58 24z" />
    <glyph glyph-name="uni0326" unicode="&#x326;" 
d="M-517 -88l-68 -341h-101l44 341h125z" />
    <glyph glyph-name="uni0327" unicode="&#x327;" 
d="M-587 -323h-119l108 329l114 -1z" />
    <glyph glyph-name="uni0328" unicode="&#x328;" 
d="M-362 -324q-45 -44 -102 -66t-120 -22q-54 0 -99 14.5t-77 41t-49.5 62.5t-17.5 79q0 54 23 96t65 77.5t101 65.5t132 60l12 -35q-51 -29 -92.5 -56t-70 -56.5t-44 -61.5t-15.5 -70q0 -54 38 -86.5t101 -32.5q88 0 154 63z" />
    <glyph glyph-name="uni032E" unicode="&#x32e;" 
d="M-828 -111q27 -101 87 -151t146 -50t145.5 50t87.5 151l92 -27q-35 -133 -120 -201.5t-205 -68.5t-205 68.5t-120 201.5z" />
    <glyph glyph-name="uni0331" unicode="&#x331;" 
d="M-887 -215h585v-93h-585v93z" />
    <glyph glyph-name="uni0335" unicode="&#x335;" 
d="M-241 475h-710v103h710v-103z" />
    <glyph glyph-name="uni0336" unicode="&#x336;" 
d="M152 475h-1495v103h1495v-103z" />
    <glyph glyph-name="uni0394" unicode="&#x394;" horiz-adv-x="1419" 
d="M1335 95v-95h-1251v95l551 1307h149zM221 116h976l-487 1161z" />
    <glyph glyph-name="uni03A9" unicode="&#x3a9;" horiz-adv-x="1718" 
d="M469 116q-74 41 -134 99.5t-103 132t-66.5 160.5t-23.5 185q0 159 54.5 292t151 228.5t227.5 149t284 53.5t284 -53.5t227.5 -149t151 -228.5t54.5 -292q0 -98 -23.5 -185t-66.5 -160.5t-103.5 -132t-133.5 -99.5h385v-116h-588v99q89 28 163 82t127 129.5t82.5 171
t29.5 206.5q0 137 -45.5 249.5t-124.5 192.5t-187 124t-232 44q-125 0 -232.5 -44t-186.5 -124t-124.5 -192.5t-45.5 -249.5q0 -111 29.5 -206.5t83 -171t127 -129.5t162.5 -82v-99h-588v116h385z" />
    <glyph glyph-name="uni03BC" unicode="&#x3bc;" horiz-adv-x="1197" 
d="M171 -400v1341h114v-542q0 -71 20 -128t59 -96.5t95 -60.5t128 -21q66 0 123.5 22.5t100 64t67 99t24.5 126.5v536h114v-941h-113v165q-28 -47 -65.5 -81t-81.5 -56t-92 -32.5t-97 -10.5q-88 0 -159.5 26.5t-123.5 80.5v-492h-113z" />
    <glyph glyph-name="pi" unicode="&#x3c0;" horiz-adv-x="1198" 
d="M1027 0h-114v837h-617v-837h-114v941h845v-941z" />
    <glyph glyph-name="uni1E0C" unicode="&#x1e0c;" horiz-adv-x="1602" 
d="M720 1400q175 0 315 -49t238 -140t151 -220.5t53 -290.5t-53 -290.5t-151 -220.5t-238 -140t-315 -49h-511v1400h511zM331 1284v-1168h389q153 0 270 41.5t197 117.5t121 184t41 241t-41 241t-121 184.5t-197 117.5t-270 41h-389zM758 -178q35 0 58.5 -24t23.5 -59
t-23.5 -58t-58.5 -23t-58 23t-23 58t23 59t58 24z" />
    <glyph glyph-name="uni1E0D" unicode="&#x1e0d;" horiz-adv-x="1244" 
d="M577 956q129 0 222.5 -54t150.5 -142v680h113v-1440h-113v181q-57 -89 -150.5 -142.5t-222.5 -53.5q-99 0 -185 36.5t-149 101t-99.5 153.5t-36.5 194t36.5 194t99.5 154t149 101.5t185 36.5zM590 849q-81 0 -148.5 -29.5t-116 -80.5t-75.5 -120t-27 -149t27 -149
t76 -120t116.5 -80t147.5 -29t147 28.5t116 79.5t76 120t27 150t-27 150.5t-76 120t-116 79.5t-147 29zM612 -178q35 0 58.5 -24t23.5 -59t-23.5 -58t-58.5 -23t-58 23t-23 58t23 59t58 24z" />
    <glyph glyph-name="uni1E0E" unicode="&#x1e0e;" horiz-adv-x="1602" 
d="M720 1400q175 0 315 -49t238 -140t151 -220.5t53 -290.5t-53 -290.5t-151 -220.5t-238 -140t-315 -49h-511v1400h511zM331 1284v-1168h389q153 0 270 41.5t197 117.5t121 184t41 241t-41 241t-121 184.5t-197 117.5t-270 41h-389zM466 -215h585v-93h-585v93z" />
    <glyph glyph-name="uni1E0F" unicode="&#x1e0f;" horiz-adv-x="1244" 
d="M577 956q129 0 222.5 -54t150.5 -142v680h113v-1440h-113v181q-57 -89 -150.5 -142.5t-222.5 -53.5q-99 0 -185 36.5t-149 101t-99.5 153.5t-36.5 194t36.5 194t99.5 154t149 101.5t185 36.5zM590 849q-81 0 -148.5 -29.5t-116 -80.5t-75.5 -120t-27 -149t27 -149
t76 -120t116.5 -80t147.5 -29t147 28.5t116 79.5t76 120t27 150t-27 150.5t-76 120t-116 79.5t-147 29zM319 -215h585v-93h-585v93z" />
    <glyph glyph-name="uni1E24" unicode="&#x1e24;" horiz-adv-x="1565" 
d="M331 763h902v637h122v-1400h-122v647h-902v-647h-122v1400h122v-637zM782 -178q35 0 58.5 -24t23.5 -59t-23.5 -58t-58.5 -23t-58 23t-23 58t23 59t58 24z" />
    <glyph glyph-name="uni1E25" unicode="&#x1e25;" horiz-adv-x="1198" 
d="M296 778q28 46 65.5 80t81.5 55.5t92 32t96 10.5q88 0 161 -26.5t125.5 -75.5t81 -119.5t28.5 -157.5v-577h-114v542q0 71 -20 128t-59 96.5t-95 60.5t-128 21q-66 0 -123.5 -22.5t-100 -64t-67 -99t-24.5 -126.5v-536h-114v1440h114v-662zM606 -178q35 0 58.5 -24
t23.5 -59t-23.5 -58t-58.5 -23t-58 23t-23 58t23 59t58 24z" />
    <glyph glyph-name="uni1E28" unicode="&#x1e28;" horiz-adv-x="1565" 
d="M331 763h902v637h122v-1400h-122v647h-902v-647h-122v1400h122v-637zM227 -323h-124l109 329l118 -1z" />
    <glyph glyph-name="uni1E29" unicode="&#x1e29;" horiz-adv-x="1198" 
d="M296 778q28 46 65.5 80t81.5 55.5t92 32t96 10.5q88 0 161 -26.5t125.5 -75.5t81 -119.5t28.5 -157.5v-577h-114v542q0 71 -20 128t-59 96.5t-95 60.5t-128 21q-66 0 -123.5 -22.5t-100 -64t-67 -99t-24.5 -126.5v-536h-114v1440h114v-662zM193 -323h-119l108 329l114 -1
z" />
    <glyph glyph-name="uni1E2A" unicode="&#x1e2a;" horiz-adv-x="1565" 
d="M331 763h902v637h122v-1400h-122v647h-902v-647h-122v1400h122v-637zM549 -111q27 -101 87 -151t146 -50t145.5 50t87.5 151l92 -27q-35 -133 -120 -201.5t-205 -68.5t-205 68.5t-120 201.5z" />
    <glyph glyph-name="uni1E2B" unicode="&#x1e2b;" horiz-adv-x="1198" 
d="M296 778q28 46 65.5 80t81.5 55.5t92 32t96 10.5q88 0 161 -26.5t125.5 -75.5t81 -119.5t28.5 -157.5v-577h-114v542q0 71 -20 128t-59 96.5t-95 60.5t-128 21q-66 0 -123.5 -22.5t-100 -64t-67 -99t-24.5 -126.5v-536h-114v1440h114v-662zM372 -111q27 -101 87 -151
t146 -50t145.5 50t87.5 151l92 -27q-35 -133 -120 -201.5t-205 -68.5t-205 68.5t-120 201.5z" />
    <glyph glyph-name="uni1E32" unicode="&#x1e32;" horiz-adv-x="1367" 
d="M516 646h-185v-646h-122v1400h122v-638h187l615 638h158l-675 -689l717 -711h-166zM682 -178q35 0 58.5 -24t23.5 -59t-23.5 -58t-58.5 -23t-58 23t-23 58t23 59t58 24z" />
    <glyph glyph-name="uni1E33" unicode="&#x1e33;" horiz-adv-x="1042" 
d="M296 544h153l396 397h144l-448 -444l456 -497h-145l-403 441h-153v-441h-114v1440h114v-896zM554 -178q35 0 58.5 -24t23.5 -59t-23.5 -58t-58.5 -23t-58 23t-23 58t23 59t58 24z" />
    <glyph glyph-name="uni1E36" unicode="&#x1e36;" horiz-adv-x="1204" 
d="M1162 0h-953v1400h122v-1284h831v-116zM674 -178q35 0 58.5 -24t23.5 -59t-23.5 -58t-58.5 -23t-58 23t-23 58t23 59t58 24z" />
    <glyph glyph-name="uni1E37" unicode="&#x1e37;" horiz-adv-x="477" 
d="M296 0h-114v1440h114v-1440zM240 -178q35 0 58.5 -24t23.5 -59t-23.5 -58t-58.5 -23t-58 23t-23 58t23 59t58 24z" />
    <glyph glyph-name="uni1E38" unicode="&#x1e38;" horiz-adv-x="1204" 
d="M1162 0h-953v1400h122v-1284h831v-116zM674 -178q35 0 58.5 -24t23.5 -59t-23.5 -58t-58.5 -23t-58 23t-23 58t23 59t58 24zM-22 1688h585v-93h-585v93z" />
    <glyph glyph-name="uni1E39" unicode="&#x1e39;" horiz-adv-x="477" 
d="M296 0h-114v1440h114v-1440zM-74 1704h585v-93h-585v93zM240 -178q35 0 58.5 -24t23.5 -59t-23.5 -58t-58.5 -23t-58 23t-23 58t23 59t58 24z" />
    <glyph glyph-name="uni1E3A" unicode="&#x1e3a;" horiz-adv-x="1204" 
d="M1162 0h-953v1400h122v-1284h831v-116zM382 -215h585v-93h-585v93z" />
    <glyph glyph-name="uni1E3B" unicode="&#x1e3b;" horiz-adv-x="477" 
d="M296 0h-114v1440h114v-1440zM-53 -215h585v-93h-585v93z" />
    <glyph glyph-name="uni1E40" unicode="&#x1e40;" horiz-adv-x="1860" 
d="M1650 0h-122v1261l-534 -1095h-129l-534 1089v-1255h-122v1400h184l537 -1091l536 1091h184v-1400zM919.54 1730.33q35.9072 0 60.0176 -24.6221q24.1094 -24.623 24.1094 -60.5312q0 -35.9072 -24.1094 -59.5039q-24.1104 -23.5967 -60.0176 -23.5967
q-35.9082 0 -59.5049 23.5967t-23.5967 59.5039q0 35.9082 23.5967 60.5312q23.5967 24.6221 59.5049 24.6221z" />
    <glyph glyph-name="uni1E41" unicode="&#x1e41;" horiz-adv-x="1930" 
d="M1362 956q88 0 161.5 -26.5t125.5 -75.5t81 -119.5t29 -157.5v-577h-114v542q0 71 -20.5 128t-59 96.5t-95 60.5t-128.5 21q-66 0 -123.5 -22.5t-100 -64t-67 -99t-24.5 -126.5v-536h-114v542q0 71 -20 128t-59 96.5t-95 60.5t-128 21q-66 0 -123.5 -22.5t-100 -64
t-67 -99t-24.5 -126.5v-536h-114v941h113v-165q28 47 65.5 81t81.5 56t92 32.5t97 10.5q66 0 123.5 -15t104.5 -43t82 -68.5t56 -92.5q26 58 66 99.5t88 68t102 39t109 12.5zM970 1379q35 0 58.5 -24t23.5 -59t-23.5 -58t-58.5 -23t-58 23t-23 58t23 59t58 24z" />
    <glyph glyph-name="uni1E42" unicode="&#x1e42;" horiz-adv-x="1860" 
d="M1650 0h-122v1261l-534 -1095h-129l-534 1089v-1255h-122v1400h184l537 -1091l536 1091h184v-1400zM930 -178q35 0 58.5 -24t23.5 -59t-23.5 -58t-58.5 -23t-58 23t-23 58t23 59t58 24z" />
    <glyph glyph-name="uni1E43" unicode="&#x1e43;" horiz-adv-x="1930" 
d="M1362 956q88 0 161.5 -26.5t125.5 -75.5t81 -119.5t29 -157.5v-577h-114v542q0 71 -20.5 128t-59 96.5t-95 60.5t-128.5 21q-66 0 -123.5 -22.5t-100 -64t-67 -99t-24.5 -126.5v-536h-114v542q0 71 -20 128t-59 96.5t-95 60.5t-128 21q-66 0 -123.5 -22.5t-100 -64
t-67 -99t-24.5 -126.5v-536h-114v941h113v-165q28 47 65.5 81t81.5 56t92 32.5t97 10.5q66 0 123.5 -15t104.5 -43t82 -68.5t56 -92.5q26 58 66 99.5t88 68t102 39t109 12.5zM971 -178q35 0 58.5 -24t23.5 -59t-23.5 -58t-58.5 -23t-58 23t-23 58t23 59t58 24z" />
    <glyph glyph-name="uni1E44" unicode="&#x1e44;" horiz-adv-x="1569" 
d="M1359 0h-110l-917 1190l-1 -1190h-122v1400h110l918 -1190v1190h122v-1400zM773.54 1730.33q35.9072 0 60.0176 -24.6221q24.1094 -24.623 24.1094 -60.5312q0 -35.9072 -24.1094 -59.5039q-24.1104 -23.5967 -60.0176 -23.5967q-35.9082 0 -59.5049 23.5967
t-23.5967 59.5039q0 35.9082 23.5967 60.5312q23.5967 24.6221 59.5049 24.6221z" />
    <glyph glyph-name="uni1E45" unicode="&#x1e45;" horiz-adv-x="1198" 
d="M631 956q88 0 161 -26.5t125.5 -75.5t81 -119.5t28.5 -157.5v-577h-114v542q0 71 -20 128t-59 96.5t-95 60.5t-128 21q-66 0 -123.5 -22.5t-100 -64t-67 -99t-24.5 -126.5v-536h-114v941h113v-165q28 47 65.5 81t81.5 56t92 32.5t97 10.5zM614 1362q35 0 58.5 -24
t23.5 -59t-23.5 -58t-58.5 -23t-58 23t-23 58t23 59t58 24z" />
    <glyph glyph-name="uni1E46" unicode="&#x1e46;" horiz-adv-x="1569" 
d="M1359 0h-110l-917 1190l-1 -1190h-122v1400h110l918 -1190v1190h122v-1400zM780 -178q35 0 58.5 -24t23.5 -59t-23.5 -58t-58.5 -23t-58 23t-23 58t23 59t58 24z" />
    <glyph glyph-name="uni1E47" unicode="&#x1e47;" horiz-adv-x="1198" 
d="M631 956q88 0 161 -26.5t125.5 -75.5t81 -119.5t28.5 -157.5v-577h-114v542q0 71 -20 128t-59 96.5t-95 60.5t-128 21q-66 0 -123.5 -22.5t-100 -64t-67 -99t-24.5 -126.5v-536h-114v941h113v-165q28 47 65.5 81t81.5 56t92 32.5t97 10.5zM604 -178q35 0 58.5 -24
t23.5 -59t-23.5 -58t-58.5 -23t-58 23t-23 58t23 59t58 24z" />
    <glyph glyph-name="uni1E48" unicode="&#x1e48;" horiz-adv-x="1569" 
d="M1359 0h-110l-917 1190l-1 -1190h-122v1400h110l918 -1190v1190h122v-1400zM488 -215h585v-93h-585v93z" />
    <glyph glyph-name="uni1E49" unicode="&#x1e49;" horiz-adv-x="1198" 
d="M631 956q88 0 161 -26.5t125.5 -75.5t81 -119.5t28.5 -157.5v-577h-114v542q0 71 -20 128t-59 96.5t-95 60.5t-128 21q-66 0 -123.5 -22.5t-100 -64t-67 -99t-24.5 -126.5v-536h-114v941h113v-165q28 47 65.5 81t81.5 56t92 32.5t97 10.5zM311 -215h585v-93h-585v93z" />
    <glyph glyph-name="uni1E58" unicode="&#x1e58;" horiz-adv-x="1341" 
d="M743 1400q116 0 206 -26t151.5 -75.5t93.5 -122t32 -165.5q0 -90 -33.5 -162.5t-96 -123t-151.5 -77.5t-201 -27h-55l530 -621h-152l-522 621h-214v-621h-122v1400h534zM331 1285v-553h411q175 0 266.5 71.5t91.5 207.5q0 135 -92 204.5t-266 69.5h-411zM650.54 1730.33
q35.9072 0 60.0176 -24.6221q24.1094 -24.623 24.1094 -60.5312q0 -35.9072 -24.1094 -59.5039q-24.1104 -23.5967 -60.0176 -23.5967q-35.9082 0 -59.5049 23.5967t-23.5967 59.5039q0 35.9082 23.5967 60.5312q23.5967 24.6221 59.5049 24.6221z" />
    <glyph glyph-name="uni1E59" unicode="&#x1e59;" horiz-adv-x="814" 
d="M584 957q51 0 94.5 -8.5t81.5 -27.5l-29 -111q-35 19 -79.5 28.5t-87.5 9.5q-59 0 -108.5 -23t-85 -64.5t-55.5 -100t-20 -129.5v-531h-113v941h112v-160q46 83 121 129.5t169 46.5zM466 1362q35 0 58.5 -24t23.5 -59t-23.5 -58t-58.5 -23t-58 23t-23 58t23 59t58 24z
" />
    <glyph glyph-name="uni1E5A" unicode="&#x1e5a;" horiz-adv-x="1341" 
d="M743 1400q116 0 206 -26t151.5 -75.5t93.5 -122t32 -165.5q0 -90 -33.5 -162.5t-96 -123t-151.5 -77.5t-201 -27h-55l530 -621h-152l-522 621h-214v-621h-122v1400h534zM331 1285v-553h411q175 0 266.5 71.5t91.5 207.5q0 135 -92 204.5t-266 69.5h-411zM660 -178
q35 0 58.5 -24t23.5 -59t-23.5 -58t-58.5 -23t-58 23t-23 58t23 59t58 24z" />
    <glyph glyph-name="uni1E5B" unicode="&#x1e5b;" horiz-adv-x="814" 
d="M584 957q51 0 94.5 -8.5t81.5 -27.5l-29 -111q-35 19 -79.5 28.5t-87.5 9.5q-59 0 -108.5 -23t-85 -64.5t-55.5 -100t-20 -129.5v-531h-113v941h112v-160q46 83 121 129.5t169 46.5zM241 -178q35 0 58.5 -24t23.5 -59t-23.5 -58t-58.5 -23t-58 23t-23 58t23 59t58 24z
" />
    <glyph glyph-name="uni1E5C" unicode="&#x1e5c;" horiz-adv-x="1341" 
d="M743 1400q116 0 206 -26t151.5 -75.5t93.5 -122t32 -165.5q0 -90 -33.5 -162.5t-96 -123t-151.5 -77.5t-201 -27h-55l530 -621h-152l-522 621h-214v-621h-122v1400h534zM331 1285v-553h411q175 0 266.5 71.5t91.5 207.5q0 135 -92 204.5t-266 69.5h-411zM660 -178
q35 0 58.5 -24t23.5 -59t-23.5 -58t-58.5 -23t-58 23t-23 58t23 59t58 24zM369 1688h585v-93h-585v93z" />
    <glyph glyph-name="uni1E5D" unicode="&#x1e5d;" horiz-adv-x="814" 
d="M584 957q51 0 94.5 -8.5t81.5 -27.5l-29 -111q-35 19 -79.5 28.5t-87.5 9.5q-59 0 -108.5 -23t-85 -64.5t-55.5 -100t-20 -129.5v-531h-113v941h112v-160q46 83 121 129.5t169 46.5zM174 1273h585v-93h-585v93zM241 -178q35 0 58.5 -24t23.5 -59t-23.5 -58t-58.5 -23
t-58 23t-23 58t23 59t58 24z" />
    <glyph glyph-name="uni1E5E" unicode="&#x1e5e;" horiz-adv-x="1341" 
d="M743 1400q116 0 206 -26t151.5 -75.5t93.5 -122t32 -165.5q0 -90 -33.5 -162.5t-96 -123t-151.5 -77.5t-201 -27h-55l530 -621h-152l-522 621h-214v-621h-122v1400h534zM331 1285v-553h411q175 0 266.5 71.5t91.5 207.5q0 135 -92 204.5t-266 69.5h-411zM368 -215h585
v-93h-585v93z" />
    <glyph glyph-name="uni1E5F" unicode="&#x1e5f;" horiz-adv-x="814" 
d="M584 957q51 0 94.5 -8.5t81.5 -27.5l-29 -111q-35 19 -79.5 28.5t-87.5 9.5q-59 0 -108.5 -23t-85 -64.5t-55.5 -100t-20 -129.5v-531h-113v941h112v-160q46 83 121 129.5t169 46.5zM-52 -215h585v-93h-585v93z" />
    <glyph glyph-name="uni1E62" unicode="&#x1e62;" horiz-adv-x="1343" 
d="M1120 1162q-82 58 -191 97.5t-247 39.5q-84 0 -155.5 -19t-123.5 -55t-81.5 -87.5t-29.5 -117.5q0 -104 81.5 -167.5t260.5 -83.5l153 -17q93 -11 172 -35.5t136.5 -67t89.5 -106t32 -150.5q0 -102 -43.5 -178.5t-118.5 -127.5t-175 -76.5t-213 -25.5q-79 0 -156 13.5
t-147.5 37t-131.5 55.5t-107 69l67 97q37 -29 88 -57t112.5 -50t131 -35.5t142.5 -13.5q89 0 166.5 17.5t134.5 52.5t90 88t33 124q0 114 -90 173t-265 79l-159 18q-96 11 -172 38t-129.5 71.5t-81.5 106.5t-28 143q0 97 40.5 172t110.5 126.5t164.5 78t202.5 26.5
q81 0 152.5 -12t133.5 -33t115.5 -49t98.5 -60zM699 -178q35 0 58.5 -24t23.5 -59t-23.5 -58t-58.5 -23t-58 23t-23 58t23 59t58 24z" />
    <glyph glyph-name="uni1E63" unicode="&#x1e63;" horiz-adv-x="974" 
d="M809 762q-24 17 -58.5 33.5t-75.5 30t-88.5 22t-96.5 8.5q-55 0 -101 -11.5t-79 -33.5t-51.5 -53.5t-18.5 -71.5q0 -66 52.5 -102.5t161.5 -49.5l120 -14q148 -17 228.5 -79t80.5 -174q0 -67 -29.5 -119.5t-82.5 -88.5t-127.5 -55t-165.5 -19q-103 0 -204 28.5t-183 91.5
l53 85q27 -21 60 -40.5t74 -34t90.5 -23t110.5 -8.5q64 0 116.5 11t90.5 33t59 55t21 77q0 132 -217 156l-121 13q-80 9 -137.5 30.5t-95 53.5t-55 74.5t-17.5 92.5q0 65 26.5 116t75 86.5t116 54.5t148.5 19q112 0 208.5 -30t160.5 -76zM496 -178q35 0 58.5 -24t23.5 -59
t-23.5 -58t-58.5 -23t-58 23t-23 58t23 59t58 24z" />
    <glyph glyph-name="uni1E6C" unicode="&#x1e6c;" horiz-adv-x="1215" 
d="M1173 1284h-505v-1284h-122v1284h-504v116h1131v-116zM607 -178q35 0 58.5 -24t23.5 -59t-23.5 -58t-58.5 -23t-58 23t-23 58t23 59t58 24z" />
    <glyph glyph-name="uni1E6D" unicode="&#x1e6d;" horiz-adv-x="904" 
d="M819 837h-434v-513q0 -60 15 -103.5t42.5 -72t66 -42.5t85.5 -14q61 0 114.5 19.5t95.5 52.5l54 -85q-51 -42 -119.5 -68t-153.5 -26q-147 0 -230.5 83t-83.5 254v515h-216v104h216v307h114v-307h434v-104zM554 -178q35 0 58.5 -24t23.5 -59t-23.5 -58t-58.5 -23t-58 23
t-23 58t23 59t58 24z" />
    <glyph glyph-name="uni1E6E" unicode="&#x1e6e;" horiz-adv-x="1215" 
d="M1173 1284h-505v-1284h-122v1284h-504v116h1131v-116zM315 -215h585v-93h-585v93z" />
    <glyph glyph-name="uni1E6F" unicode="&#x1e6f;" horiz-adv-x="904" 
d="M819 837h-434v-513q0 -60 15 -103.5t42.5 -72t66 -42.5t85.5 -14q61 0 114.5 19.5t95.5 52.5l54 -85q-51 -42 -119.5 -68t-153.5 -26q-147 0 -230.5 83t-83.5 254v515h-216v104h216v307h114v-307h434v-104zM261 -215h585v-93h-585v93z" />
    <glyph glyph-name="Wgrave" unicode="&#x1e80;" horiz-adv-x="2208" 
d="M1672 0h-149l-419 1241l-419 -1241h-149l-472 1400h129l419 -1265l425 1265h137l424 -1263l420 1263h126zM863 1797h144l220 -300h-113z" />
    <glyph glyph-name="wgrave" unicode="&#x1e81;" horiz-adv-x="1725" 
d="M1237 116l319 825h118l-369 -941h-134l-310 822l-308 -822h-133l-369 941h121l318 -824l309 824h128zM605 1382h144l220 -300h-113z" />
    <glyph glyph-name="Wacute" unicode="&#x1e82;" horiz-adv-x="2208" 
d="M1672 0h-149l-419 1241l-419 -1241h-149l-472 1400h129l419 -1265l425 1265h137l424 -1263l420 1263h126zM973 1497l220 300h144l-251 -300h-113z" />
    <glyph glyph-name="wacute" unicode="&#x1e83;" horiz-adv-x="1725" 
d="M1237 116l319 825h118l-369 -941h-134l-310 822l-308 -822h-133l-369 941h121l318 -824l309 824h128zM745 1082l220 300h144l-251 -300h-113z" />
    <glyph glyph-name="Wdieresis" unicode="&#x1e84;" horiz-adv-x="2208" 
d="M1672 0h-149l-419 1241l-419 -1241h-149l-472 1400h129l419 -1265l425 1265h137l424 -1263l420 1263h126zM899 1725q35 0 58.5 -24t23.5 -59t-23.5 -58t-58.5 -23t-58 23t-23 58t23 59t58 24zM1308 1725q35 0 59 -24t24 -59t-24 -58t-59 -23t-58 23t-23 58t23 59t58 24z
" />
    <glyph glyph-name="wdieresis" unicode="&#x1e85;" horiz-adv-x="1725" 
d="M1237 116l319 825h118l-369 -941h-134l-310 822l-308 -822h-133l-369 941h121l318 -824l309 824h128zM658 1310q35 0 58.5 -24t23.5 -59t-23.5 -58t-58.5 -23t-58 23t-23 58t23 59t58 24zM1067 1310q35 0 59 -24t24 -59t-24 -58t-59 -23t-58 23t-23 58t23 59t58 24z" />
    <glyph glyph-name="uni1E88" unicode="&#x1e88;" horiz-adv-x="2208" 
d="M1672 0h-149l-419 1241l-419 -1241h-149l-472 1400h129l419 -1265l425 1265h137l424 -1263l420 1263h126zM1105 -178q35 0 58.5 -24t23.5 -59t-23.5 -58t-58.5 -23t-58 23t-23 58t23 59t58 24z" />
    <glyph glyph-name="uni1E89" unicode="&#x1e89;" horiz-adv-x="1725" 
d="M1237 116l319 825h118l-369 -941h-134l-310 822l-308 -822h-133l-369 941h121l318 -824l309 824h128zM863 -178q35 0 58.5 -24t23.5 -59t-23.5 -58t-58.5 -23t-58 23t-23 58t23 59t58 24z" />
    <glyph glyph-name="uni1E92" unicode="&#x1e92;" horiz-adv-x="1327" 
d="M1197 1306l-910 -1190h914v-116h-1076v95l909 1189h-894v116h1057v-94zM663 -178q35 0 58.5 -24t23.5 -59t-23.5 -58t-58.5 -23t-58 23t-23 58t23 59t58 24z" />
    <glyph glyph-name="uni1E93" unicode="&#x1e93;" horiz-adv-x="1066" 
d="M931 857l-652 -754h660v-103h-812v83l657 754h-637v104h784v-84zM535 -178q35 0 58.5 -24t23.5 -59t-23.5 -58t-58.5 -23t-58 23t-23 58t23 59t58 24z" />
    <glyph glyph-name="uni1E94" unicode="&#x1e94;" horiz-adv-x="1327" 
d="M1197 1306l-910 -1190h914v-116h-1076v95l909 1189h-894v116h1057v-94zM371 -215h585v-93h-585v93z" />
    <glyph glyph-name="uni1E95" unicode="&#x1e95;" horiz-adv-x="1066" 
d="M931 857l-652 -754h660v-103h-812v83l657 754h-637v104h784v-84zM242 -215h585v-93h-585v93z" />
    <glyph glyph-name="uni1E96" unicode="&#x1e96;" horiz-adv-x="1198" 
d="M296 778q28 46 65.5 80t81.5 55.5t92 32t96 10.5q88 0 161 -26.5t125.5 -75.5t81 -119.5t28.5 -157.5v-577h-114v542q0 71 -20 128t-59 96.5t-95 60.5t-128 21q-66 0 -123.5 -22.5t-100 -64t-67 -99t-24.5 -126.5v-536h-114v1440h114v-662zM313 -215h585v-93h-585v93z
" />
    <glyph glyph-name="uni1E9E" unicode="&#x1e9e;" horiz-adv-x="1464" 
d="M732 739l383 417q-27 30 -61.5 56t-80.5 45t-104 30t-131 11q-96 0 -175 -25.5t-134.5 -74.5t-86 -119t-30.5 -159v-920h-123v927q0 107 36.5 196.5t107 154.5t173.5 101t235 36q105 0 187.5 -18t147.5 -50t115 -76.5t90 -97.5l-387 -419q95 -8 176.5 -38t141 -79.5
t93.5 -117t34 -149.5q0 -89 -39.5 -160.5t-107.5 -121.5t-159 -76.5t-193 -26.5q-53 0 -96.5 4t-81 10.5t-69 16t-60.5 20.5l31 116q49 -20 111.5 -34.5t146.5 -14.5q86 0 157.5 18t122.5 52.5t79.5 84t28.5 112.5q0 64 -29 115.5t-82.5 87.5t-128.5 55.5t-168 19.5h-70v91z
" />
    <glyph glyph-name="Ygrave" unicode="&#x1ef2;" horiz-adv-x="1263" 
d="M693 600v-600h-122v602l-559 798h146l475 -685l475 685h143zM392 1797h144l220 -300h-113z" />
    <glyph glyph-name="ygrave" unicode="&#x1ef3;" horiz-adv-x="1028" 
d="M232 -403h-126l360 613l-442 731h128l379 -619l355 619h125zM261 1382h144l220 -300h-113z" />
    <glyph glyph-name="uni1EF4" unicode="&#x1ef4;" horiz-adv-x="1263" 
d="M693 600v-600h-122v602l-559 798h146l475 -685l475 685h143zM632 -178q35 0 58.5 -24t23.5 -59t-23.5 -58t-58.5 -23t-58 23t-23 58t23 59t58 24z" />
    <glyph glyph-name="uni1EF5" unicode="&#x1ef5;" horiz-adv-x="1028" 
d="M232 -403h-126l360 613l-442 731h128l379 -619l355 619h125zM734 -178q35 0 58.5 -24t23.5 -59t-23.5 -58t-58.5 -23t-58 23t-23 58t23 59t58 24z" />
    <glyph glyph-name="uni2007" unicode="&#x2007;" horiz-adv-x="1417" 
 />
    <glyph glyph-name="uni2008" unicode="&#x2008;" horiz-adv-x="520" 
 />
    <glyph glyph-name="uni2009" unicode="&#x2009;" horiz-adv-x="177" 
 />
    <glyph glyph-name="uni200B" unicode="&#x200b;" horiz-adv-x="0" 
 />
    <glyph glyph-name="uni2010" unicode="&#x2010;" horiz-adv-x="835" 
d="M689 475h-542v103h542v-103z" />
    <glyph glyph-name="uni2011" unicode="&#x2011;" horiz-adv-x="835" 
d="M689 475h-542v103h542v-103z" />
    <glyph glyph-name="figuredash" unicode="&#x2012;" horiz-adv-x="1200" 
d="M1076 475h-950v103h950v-103z" />
    <glyph glyph-name="endash" unicode="&#x2013;" horiz-adv-x="1201" 
d="M1076 475h-950v103h950v-103z" />
    <glyph glyph-name="emdash" unicode="&#x2014;" horiz-adv-x="1626" 
d="M1563 475h-1500v103h1500v-103z" />
    <glyph glyph-name="quoteleft" unicode="&#x2018;" horiz-adv-x="488" 
d="M150 957l96 483h99l-62 -483h-133z" />
    <glyph glyph-name="quoteright" unicode="&#x2019;" horiz-adv-x="488" 
d="M338 1440l-96 -483h-99l62 483h133z" />
    <glyph glyph-name="quotesinglbase" unicode="&#x201a;" horiz-adv-x="488" 
d="M338 234l-96 -483h-99l62 483h133z" />
    <glyph glyph-name="quotedblleft" unicode="&#x201c;" horiz-adv-x="821" 
d="M150 957l96 483h99l-62 -483h-133zM483 957l96 483h99l-62 -483h-133z" />
    <glyph glyph-name="quotedblright" unicode="&#x201d;" horiz-adv-x="821" 
d="M671 1440l-96 -483h-99l62 483h133zM338 1440l-96 -483h-99l62 483h133z" />
    <glyph glyph-name="quotedblbase" unicode="&#x201e;" horiz-adv-x="821" 
d="M671 234l-96 -483h-99l62 483h133zM338 234l-96 -483h-99l62 483h133z" />
    <glyph glyph-name="dagger" unicode="&#x2020;" horiz-adv-x="713" 
d="M309 701v442h-204v93h204v204h95v-204h204v-93h-204v-442h-95z" />
    <glyph glyph-name="daggerdbl" unicode="&#x2021;" horiz-adv-x="713" 
d="M404 1256h204v-92h-204v-187h204v-93h-204v-183h-95v183h-204v93h204v187h-204v92h204v184h95v-184z" />
    <glyph glyph-name="bullet" unicode="&#x2022;" horiz-adv-x="874" 
d="M437 718q39 0 73.5 -15t61 -41t41.5 -60.5t15 -74.5q0 -39 -15 -74t-41.5 -61t-61 -41t-73.5 -15q-40 0 -75 15t-60.5 41t-40.5 61t-15 74q0 40 15 74.5t40.5 60.5t60.5 41t75 15z" />
    <glyph glyph-name="uni2023" unicode="&#x2023;" horiz-adv-x="991" 
d="M279 217v621l536 -310z" />
    <glyph glyph-name="ellipsis" unicode="&#x2026;" horiz-adv-x="1409" 
d="M260 178q19 0 36.5 -7.5t31 -20.5t21 -30.5t7.5 -36.5q0 -20 -7.5 -37.5t-21 -30.5t-31 -21t-36.5 -8t-36.5 8t-30.5 21t-21 30.5t-8 37.5q0 19 8 36.5t21 30.5t30.5 20.5t36.5 7.5zM705 178q19 0 36.5 -7.5t30.5 -20.5t20.5 -30.5t7.5 -36.5q0 -20 -7.5 -37.5
t-20.5 -30.5t-30.5 -21t-36.5 -8q-20 0 -37 8t-30.5 21t-21 30.5t-7.5 37.5q0 19 7.5 36.5t21 30.5t30.5 20.5t37 7.5zM1149 178q19 0 36.5 -7.5t30.5 -20.5t21 -30.5t8 -36.5q0 -20 -8 -37.5t-21 -30.5t-30.5 -21t-36.5 -8t-36.5 8t-30.5 21t-21 30.5t-8 37.5q0 19 8 36.5
t21 30.5t30.5 20.5t36.5 7.5z" />
    <glyph glyph-name="perthousand" unicode="&#x2030;" horiz-adv-x="2743" 
d="M456 1415q76 0 141.5 -27t113.5 -74t75.5 -112t27.5 -140q0 -76 -27.5 -140.5t-75.5 -112t-113.5 -74.5t-141.5 -27q-75 0 -140 27t-113 74.5t-75 112t-27 140.5q0 75 27 140t75 112t113 74t140 27zM456 1315q-53 0 -98.5 -19t-78.5 -52.5t-52 -80t-19 -101.5t19 -101.5
t52 -80t78.5 -52.5t98.5 -19q54 0 100 19t79.5 52.5t52.5 80t19 101.5t-19 101.5t-52.5 80t-79.5 52.5t-100 19zM575 0h-120l883 1400h120zM1453 692q76 0 142 -27.5t114 -75t75.5 -112t27.5 -139.5q0 -76 -27.5 -140.5t-75.5 -112t-114 -74t-142 -26.5q-75 0 -140 26.5
t-112.5 74t-74.5 112t-27 140.5q0 75 27 140t74.5 112.5t112.5 74.5t140 27zM1453 591q-53 0 -98 -19t-78 -52.5t-52 -80t-19 -101.5t19 -101.5t52 -80t78 -52.5t98 -19q54 0 100 19t80 52.5t53 80t19 101.5t-19 101.5t-53 80t-80 52.5t-100 19zM2285 692q76 0 141.5 -27
t113.5 -74.5t75.5 -112.5t27.5 -140q0 -76 -27.5 -140.5t-75.5 -112t-113.5 -74t-141.5 -26.5q-75 0 -140 26.5t-113 74t-75 112t-27 140.5q0 75 27 140t75 112.5t113 74.5t140 27zM2285 591q-53 0 -98.5 -19t-78.5 -52.5t-52 -80t-19 -101.5t19 -101.5t52 -80t78.5 -52.5
t98.5 -19q54 0 100 19t79.5 52.5t52.5 80t19 101.5t-19 101.5t-52.5 80t-79.5 52.5t-100 19z" />
    <glyph glyph-name="minute" unicode="&#x2032;" horiz-adv-x="533" 
d="M383 1400l-131 -616h-109l131 616h109z" />
    <glyph glyph-name="second" unicode="&#x2033;" horiz-adv-x="830" 
d="M680 1400l-131 -616h-109l131 616h109zM383 1400l-131 -616h-109l131 616h109z" />
    <glyph glyph-name="uni2034" unicode="&#x2034;" horiz-adv-x="1077" 
d="M655 1400l-131 -616h-109l131 616h109zM927 1400l-131 -616h-109l131 616h109zM383 1400l-131 -616h-109l131 616h109z" />
    <glyph glyph-name="guilsinglleft" unicode="&#x2039;" horiz-adv-x="619" 
d="M455 163h-123l-193 364l193 364h123l-194 -364z" />
    <glyph glyph-name="guilsinglright" unicode="&#x203a;" horiz-adv-x="619" 
d="M164 891h123l193 -364l-193 -364h-123l194 364z" />
    <glyph glyph-name="fraction" unicode="&#x2044;" horiz-adv-x="420" 
d="M-174 0h-115l883 1400h115z" />
    <glyph glyph-name="uni2070" unicode="&#x2070;" horiz-adv-x="848" 
d="M424 1408q67 0 125.5 -27t102 -77.5t69 -123t25.5 -164.5t-25.5 -164.5t-69 -122.5t-102 -77t-125.5 -27t-125.5 27t-102 77t-69 122.5t-25.5 164.5t25.5 164.5t69 123t102 77.5t125.5 27zM424 1317q-46 0 -87 -20t-71.5 -58t-48 -94.5t-17.5 -128.5t17.5 -128t48 -94
t71.5 -58t87 -20t87 20t71.5 58t48 94t17.5 128t-17.5 128.5t-48 94.5t-71.5 58t-87 20z" />
    <glyph glyph-name="uni2071" unicode="&#x2071;" horiz-adv-x="360" 
d="M227 634h-94v653h94v-653zM180 1573q27 0 45.5 -18.5t18.5 -45.5t-18.5 -45t-45.5 -18t-45.5 18t-18.5 45t18.5 45.5t45.5 18.5z" />
    <glyph glyph-name="uni2074" unicode="&#x2074;" horiz-adv-x="670" 
d="M501 878h128v-87h-128v-157h-95v157h-365v69l274 538h104l-266 -520h253v217h95v-217z" />
    <glyph glyph-name="uni2075" unicode="&#x2075;" horiz-adv-x="691" 
d="M563 1312h-341l-7 -217h103q69 0 121.5 -16.5t88 -46.5t53.5 -71t18 -90q0 -57 -20.5 -102.5t-56.5 -77.5t-85.5 -49t-107.5 -17q-83 0 -149 28.5t-114 82.5l57 63q38 -41 91 -64t114 -23q82 0 127.5 42t45.5 110q0 31 -11.5 58t-36.5 47t-63 31t-92 11h-170l12 388h423
v-87z" />
    <glyph glyph-name="uni2076" unicode="&#x2076;" horiz-adv-x="686" 
d="M263 1107q40 17 91 17q59 0 108 -19t84 -52.5t54.5 -78.5t19.5 -97q0 -54 -21 -100.5t-58 -80t-88.5 -52.5t-111.5 -19t-111.5 19t-89 52.5t-58.5 79t-21 99.5q0 45 15 85t41 82l226 357h114zM341 1044q-39 0 -72.5 -12.5t-57.5 -35t-37.5 -53.5t-13.5 -67t13.5 -66.5
t37.5 -53t57.5 -35t72.5 -12.5t72 12.5t57 34.5t37.5 53t13.5 67t-13.5 67t-37.5 53.5t-57 35t-72 12.5z" />
    <glyph glyph-name="uni2077" unicode="&#x2077;" horiz-adv-x="645" 
d="M594 1325l-344 -691h-111l343 676h-421v89h533v-74z" />
    <glyph glyph-name="uni2078" unicode="&#x2078;" horiz-adv-x="753" 
d="M377 1408q55 0 104.5 -14t86 -40t58 -65t21.5 -88q0 -36 -11 -64.5t-30 -50.5t-44.5 -38.5t-55.5 -26.5q33 -10 62.5 -26t51 -39t34 -52.5t12.5 -66.5q0 -51 -23 -90.5t-62.5 -66.5t-92 -41t-111.5 -14q-60 0 -113 14t-92 41t-62 66.5t-23 90.5q0 37 12.5 66.5t34 52.5
t51 39t62.5 26q-30 10 -55.5 26.5t-44.5 38.5t-30 50.5t-11 64.5q0 49 21.5 88t58 65t86 40t105.5 14zM377 983q-39 0 -73 -9t-59.5 -26t-40.5 -43t-15 -59q0 -35 15 -61t40.5 -43.5t59.5 -26.5t73 -9q38 0 72 9t59.5 26.5t40.5 43.5t15 61q0 33 -15 59t-40.5 43t-59.5 26
t-72 9zM377 1325q-35 0 -66 -8.5t-54 -25t-36.5 -41.5t-13.5 -57q0 -33 13.5 -58t36.5 -41.5t54 -25t66 -8.5t66 8.5t54 25t36.5 41.5t13.5 58q0 32 -13.5 57t-36.5 41.5t-54 25t-66 8.5z" />
    <glyph glyph-name="uni2079" unicode="&#x2079;" horiz-adv-x="686" 
d="M422 925q-20 -8 -41.5 -12t-47.5 -4q-59 0 -108 19t-84 52.5t-54.5 78.5t-19.5 97q0 54 21 100.5t58.5 80t88.5 52.5t111 19t111.5 -19t89 -52.5t58.5 -79t21 -99.5q0 -44 -15 -85t-41 -83l-226 -356h-114zM346 989q39 0 72 12.5t57 35t38 53.5t14 67t-13.5 66.5
t-37.5 53t-57.5 35t-72.5 12.5t-72 -12.5t-57 -34.5t-37.5 -53t-13.5 -67t13.5 -67t37.5 -53.5t57 -35t72 -12.5z" />
    <glyph glyph-name="uni207F" unicode="&#x207f;" horiz-adv-x="850" 
d="M456 1298q59 0 108.5 -18.5t85 -52t55 -82t19.5 -108.5v-403h-95v374q0 94 -51 147.5t-147 53.5q-42 0 -79 -14.5t-65 -41t-44 -64.5t-16 -85v-370h-94v653h92v-125q35 70 96.5 103t134.5 33z" />
    <glyph glyph-name="uni2080" unicode="&#x2080;" horiz-adv-x="848" 
d="M424 412q67 0 125.5 -27t102 -77.5t69 -123t25.5 -164.5t-25.5 -164.5t-69 -122.5t-102 -77t-125.5 -27t-125.5 27t-102 77t-69 122.5t-25.5 164.5t25.5 164.5t69 123t102 77.5t125.5 27zM424 321q-46 0 -87 -20t-71.5 -58t-48 -94.5t-17.5 -128.5t17.5 -128t48 -94
t71.5 -58t87 -20t87 20t71.5 58t48 94t17.5 128t-17.5 128.5t-48 94.5t-71.5 58t-87 20z" />
    <glyph glyph-name="uni2081" unicode="&#x2081;" horiz-adv-x="541" 
d="M378 -362h-95v641l-232 -95v94l327 133v-773z" />
    <glyph glyph-name="uni2082" unicode="&#x2082;" horiz-adv-x="657" 
d="M66 283q15 22 37 45t52 41.5t68.5 30.5t88.5 12q59 0 105 -17.5t77.5 -49t48 -74.5t16.5 -93q0 -69 -30.5 -122.5t-79.5 -102.5l-224 -227h361v-88h-496v74l292 295q35 35 57.5 75t22.5 89q0 31 -10.5 58.5t-31 48t-50 32t-66.5 11.5q-33 0 -59 -8t-47.5 -21.5t-38.5 -31
t-31 -36.5z" />
    <glyph glyph-name="uni2083" unicode="&#x2083;" horiz-adv-x="658" 
d="M293 412q58 0 106 -15t82.5 -42.5t53.5 -65.5t19 -84q0 -69 -36.5 -114.5t-96.5 -66.5q68 -20 108.5 -67t40.5 -114q0 -54 -23 -94.5t-60.5 -67t-86.5 -39.5t-101 -13q-80 0 -142 26t-106 72l55 63q36 -35 84 -55t105 -20q35 0 67 8t56.5 25t39 42.5t14.5 60.5
q0 31 -14.5 55.5t-39 41t-57.5 25.5t-70 9h-103v84h103q35 0 65 8.5t52.5 25t35 41.5t12.5 57q0 29 -12.5 52.5t-34.5 40.5t-52.5 26t-67.5 9q-60 0 -104 -24.5t-73 -59.5l-58 60q38 47 97 78.5t142 31.5z" />
    <glyph glyph-name="uni2084" unicode="&#x2084;" horiz-adv-x="670" 
d="M501 -118h128v-87h-128v-157h-95v157h-365v69l274 538h104l-266 -520h253v217h95v-217z" />
    <glyph glyph-name="uni2085" unicode="&#x2085;" horiz-adv-x="691" 
d="M563 316h-341l-7 -217h103q69 0 121.5 -16.5t88 -46.5t53.5 -71t18 -90q0 -57 -20.5 -102.5t-56.5 -77.5t-85.5 -49t-107.5 -17q-83 0 -149 28.5t-114 82.5l57 63q38 -41 91 -64t114 -23q82 0 127.5 42t45.5 110q0 31 -11.5 58t-36.5 47t-63 31t-92 11h-170l12 388h423
v-87z" />
    <glyph glyph-name="uni2086" unicode="&#x2086;" horiz-adv-x="686" 
d="M263 111q40 17 91 17q59 0 108 -19t84 -52.5t54.5 -78.5t19.5 -97q0 -54 -21 -100.5t-58 -80t-88.5 -52.5t-111.5 -19t-111.5 19t-89 52.5t-58.5 79t-21 99.5q0 45 15 85t41 82l226 357h114zM341 48q-39 0 -72.5 -12.5t-57.5 -35t-37.5 -53.5t-13.5 -67t13.5 -66.5
t37.5 -53t57.5 -35t72.5 -12.5t72 12.5t57 34.5t37.5 53t13.5 67t-13.5 67t-37.5 53.5t-57 35t-72 12.5z" />
    <glyph glyph-name="uni2087" unicode="&#x2087;" horiz-adv-x="645" 
d="M594 329l-344 -691h-111l343 676h-421v89h533v-74z" />
    <glyph glyph-name="uni2088" unicode="&#x2088;" horiz-adv-x="753" 
d="M377 412q55 0 104.5 -14t86 -40t58 -65t21.5 -88q0 -36 -11 -64.5t-30 -50.5t-44.5 -38.5t-55.5 -26.5q33 -10 62.5 -26t51 -39t34 -52.5t12.5 -66.5q0 -51 -23 -90.5t-62.5 -66.5t-92 -41t-111.5 -14q-60 0 -113 14t-92 41t-62 66.5t-23 90.5q0 37 12.5 66.5t34 52.5
t51 39t62.5 26q-30 10 -55.5 26.5t-44.5 38.5t-30 50.5t-11 64.5q0 49 21.5 88t58 65t86 40t105.5 14zM377 -13q-39 0 -73 -9t-59.5 -26t-40.5 -43t-15 -59q0 -35 15 -61t40.5 -43.5t59.5 -26.5t73 -9q38 0 72 9t59.5 26.5t40.5 43.5t15 61q0 33 -15 59t-40.5 43t-59.5 26
t-72 9zM377 329q-35 0 -66 -8.5t-54 -25t-36.5 -41.5t-13.5 -57q0 -33 13.5 -58t36.5 -41.5t54 -25t66 -8.5t66 8.5t54 25t36.5 41.5t13.5 58q0 32 -13.5 57t-36.5 41.5t-54 25t-66 8.5z" />
    <glyph glyph-name="uni2089" unicode="&#x2089;" horiz-adv-x="686" 
d="M422 -71q-20 -8 -41.5 -12t-47.5 -4q-59 0 -108 19t-84 52.5t-54.5 78.5t-19.5 97q0 54 21 100.5t58.5 80t88.5 52.5t111 19t111.5 -19t89 -52.5t58.5 -79t21 -99.5q0 -44 -15 -85t-41 -83l-226 -356h-114zM346 -7q39 0 72 12.5t57 35t38 53.5t14 67t-13.5 66.5t-37.5 53
t-57.5 35t-72.5 12.5t-72 -12.5t-57 -34.5t-37.5 -53t-13.5 -67t13.5 -67t37.5 -53.5t57 -35t72 -12.5z" />
    <glyph glyph-name="Euro" unicode="&#x20ac;" horiz-adv-x="1400" 
d="M1046 495h-673q21 -93 62 -167.5t100.5 -126t136 -79.5t169.5 -28q69 0 129 16t110.5 45t91 70t71.5 91l75 -78q-75 -118 -194.5 -185.5t-282.5 -67.5q-119 0 -217 36t-173 102t-125.5 160.5t-74.5 211.5h-172v95h158q-2 26 -3.5 53.5t-1.5 56.5t1.5 56t3.5 54h-158v95
h172q24 117 74.5 211.5t125.5 160.5t173 102t217 36q162 0 283.5 -67t196.5 -182l-80 -82q-30 50 -70.5 91t-90.5 70t-110 45t-130 16q-93 0 -169.5 -28t-136 -79.5t-100 -126t-61.5 -167.5h673v-95h-688q-6 -53 -6 -110q0 -58 6 -110h688v-95z" />
    <glyph glyph-name="uni20BA" unicode="&#x20ba;" horiz-adv-x="1400" 
d="M995 687l-535 -254v-321h259q75 0 140 16.5t121 52.5t105.5 93t94.5 138l101 -56q-54 -96 -114 -164t-129.5 -110.5t-150.5 -62t-177 -19.5h-367v378l-201 -95v101l201 95v218l-201 -95v101l201 95v602h117v-547l535 254v-101l-535 -254v-218l535 254v-101z" />
    <glyph glyph-name="uni2100" unicode="&#x2100;" horiz-adv-x="1856" 
d="M470 1416q64 0 116 -16t89.5 -49.5t58 -84.5t20.5 -121v-393h-93v100q-42 -46 -103.5 -78.5t-143.5 -32.5q-53 0 -96 14.5t-73 40.5t-46.5 62t-16.5 80q0 87 69.5 138.5t201.5 51.5h206v8q0 103 -53.5 149.5t-145.5 46.5q-67 0 -117.5 -22.5t-86.5 -52.5l-38 73
q48 38 111 62t141 24zM435 819q71 0 128.5 32t96.5 78v132h-193q-49 0 -84.5 -9.5t-58 -26t-33 -38.5t-10.5 -47t10.5 -47t30 -38.5t48.5 -26t65 -9.5zM595 0h-115l883 1400h115zM1426 661q76 0 139.5 -28.5t108.5 -80.5l-67 -59q-36 38 -81.5 59t-101.5 21
q-50 0 -93.5 -18.5t-75.5 -51.5t-50.5 -79t-18.5 -100q0 -55 18 -100.5t50 -78.5t75.5 -51.5t94.5 -18.5q55 0 102 21.5t82 57.5l66 -59q-45 -52 -108.5 -80.5t-139.5 -28.5q-74 0 -136 25.5t-106.5 71t-69.5 107.5t-25 134t25 134t69.5 107t106.5 70.5t136 25.5z" />
    <glyph glyph-name="uni2101" unicode="&#x2101;" horiz-adv-x="1856" 
d="M473 1416q64 0 116 -16t89.5 -49.5t58 -84.5t20.5 -121v-393h-93v100q-42 -46 -103.5 -78.5t-143.5 -32.5q-53 0 -96 14.5t-73 40.5t-46.5 62t-16.5 80q0 87 69.5 138.5t201.5 51.5h206v8q0 103 -53.5 149.5t-145.5 46.5q-67 0 -117.5 -22.5t-86.5 -52.5l-38 73
q48 38 111 62t141 24zM438 819q71 0 128.5 32t96.5 78v132h-193q-49 0 -84.5 -9.5t-58 -26t-33 -38.5t-10.5 -47t10.5 -47t30 -38.5t48.5 -26t65 -9.5zM597 0h-115l883 1400h115zM1615 517q-18 12 -43 23.5t-54 20.5t-61 14.5t-65 5.5q-73 0 -117.5 -29t-44.5 -81
q0 -83 146 -99l78 -9q102 -12 157.5 -55.5t55.5 -121.5q0 -48 -20.5 -85t-57.5 -62.5t-89 -39t-116 -13.5q-77 0 -148 20t-125 60l40 72q41 -30 96.5 -50.5t137.5 -20.5q84 0 135 27.5t51 84.5q0 86 -148 102l-75 8q-113 12 -164.5 59t-51.5 119q0 46 18.5 82t52.5 61
t81.5 38t105.5 13q78 0 143.5 -19.5t116.5 -50.5z" />
    <glyph glyph-name="uni2105" unicode="&#x2105;" horiz-adv-x="1856" 
d="M485 1416q76 0 139.5 -28.5t108.5 -80.5l-67 -59q-36 38 -81.5 59t-101.5 21q-50 0 -93.5 -18.5t-75.5 -51.5t-50.5 -79t-18.5 -100q0 -55 18 -100.5t50 -78.5t75.5 -51.5t94.5 -18.5q55 0 102 21.5t82 57.5l66 -59q-45 -52 -108.5 -80.5t-139.5 -28.5q-74 0 -136 25.5
t-106.5 71t-69.5 107.5t-25 134t25 134t69.5 107t106.5 70.5t136 25.5zM538 0h-115l883 1400h115zM1368 661q73 0 135.5 -25.5t108 -70.5t71.5 -107t26 -134t-26 -134t-71.5 -107.5t-108 -71t-135.5 -25.5t-135 25.5t-107.5 71t-71.5 107.5t-26 134t26 134t71.5 107
t107.5 70.5t135 25.5zM1368 573q-52 0 -96.5 -19t-77 -52t-51 -78.5t-18.5 -99.5t18.5 -99.5t51 -79t77 -52t96.5 -18.5t97 18.5t78 52t51.5 79t18.5 99.5t-18.5 99.5t-51.5 78.5t-78 52t-97 19z" />
    <glyph glyph-name="uni2106" unicode="&#x2106;" horiz-adv-x="1856" 
d="M482 1416q76 0 139.5 -28.5t108.5 -80.5l-67 -59q-36 38 -81.5 59t-101.5 21q-50 0 -93.5 -18.5t-75.5 -51.5t-50.5 -79t-18.5 -100q0 -55 18 -100.5t50 -78.5t75.5 -51.5t94.5 -18.5q55 0 102 21.5t82 57.5l66 -59q-45 -52 -108.5 -80.5t-139.5 -28.5q-74 0 -136 25.5
t-106.5 71t-69.5 107.5t-25 134t25 134t69.5 107t106.5 70.5t136 25.5zM535 0h-115l883 1400h115zM1711 268q0 -69 -23 -122t-63 -88.5t-94 -53.5t-116 -18t-115.5 18t-93.5 53.5t-63 88.5t-23 122v382h94v-374q0 -49 15 -86.5t41.5 -63t63.5 -38.5t81 -13q45 0 82 13
t63.5 38.5t41.5 63t15 86.5v374h94v-382z" />
    <glyph glyph-name="uni2113" unicode="&#x2113;" horiz-adv-x="1081" 
d="M156 483q44 18 85.5 38.5t81.5 42.5l1 529q0 79 20.5 145.5t58 114.5t91 75t119.5 27q63 0 114.5 -21.5t88.5 -60.5t57.5 -93.5t20.5 -119.5q0 -100 -34.5 -191.5t-96 -173.5t-145 -154t-181.5 -133v-184q0 -60 14 -104t40 -72.5t62.5 -42.5t80.5 -14q60 0 112.5 21
t93.5 55l46 -90q-49 -41 -114 -67t-147 -26q-142 0 -222 83.5t-80 253.5v123q-31 -16 -62 -30.5t-63 -28.5zM437 635q77 53 139.5 113t107 126t69 138t24.5 148q0 88 -43.5 138.5t-120.5 50.5q-39 0 -71 -18t-55 -51t-36 -80.5t-13 -106.5z" />
    <glyph glyph-name="uni2116" unicode="&#x2116;" horiz-adv-x="2413" 
d="M2316 472h-650v103h650v-103zM1991 1412q72 0 134 -25.5t107.5 -70.5t71 -106.5t25.5 -133.5t-25.5 -133t-71 -105.5t-107.5 -70t-134 -25.5t-134 25.5t-107 70t-70.5 105.5t-25.5 133t25.5 133.5t70.5 106.5t107 70.5t134 25.5zM1990 1324q-51 0 -95.5 -18.5t-77 -51.5
t-51 -78.5t-18.5 -99.5t18.5 -99t51 -78t77 -51.5t95.5 -18.5q52 0 96.5 18.5t77.5 51.5t51.5 78t18.5 99t-18.5 99.5t-51.5 78.5t-77.5 51.5t-96.5 18.5zM1359 0h-110l-917 1190l-1 -1190h-122v1400h110l918 -1190v1190h122v-1400z" />
    <glyph glyph-name="uni2117" unicode="&#x2117;" horiz-adv-x="1898" 
d="M949 1500q110 0 212 -28.5t191 -80t162 -124t125 -161t80.5 -190t28.5 -210.5q0 -110 -28.5 -211.5t-80.5 -190t-125 -161t-162 -124.5t-191 -80.5t-212 -28.5t-212 28.5t-191 80.5t-161.5 124.5t-124.5 161t-80.5 190t-28.5 211.5t28.5 211t80.5 189.5t124.5 161
t161.5 124t191 80t212 28.5zM949 1400q-96 0 -184.5 -24.5t-166 -70t-140.5 -108.5t-108.5 -140.5t-70 -166t-24.5 -184.5t24.5 -185t70 -166.5t108.5 -140.5t140.5 -108.5t166 -70t184.5 -24.5t185 24.5t166 70t140.5 108.5t108.5 140.5t70 166.5t25 185q0 144 -54.5 270.5
t-149 220.5t-221 148.5t-270.5 54.5zM1012 1121q76 0 136 -17.5t101.5 -51t63.5 -81.5t22 -108q0 -59 -22 -106t-63.5 -80t-101.5 -50.5t-136 -17.5h-232v-328h-102v840h334zM780 1028v-328h230q104 0 162 41.5t58 121.5q0 81 -58 123t-162 42h-230z" />
    <glyph glyph-name="uni2120" unicode="&#x2120;" horiz-adv-x="1404" 
d="M539 1282q-34 19 -79.5 34.5t-104.5 15.5q-31 0 -57.5 -5.5t-46 -17t-30.5 -27.5t-11 -37q0 -36 36 -55t105 -26l54 -5q88 -8 139 -44t51 -102q0 -46 -20 -79t-54.5 -54.5t-79.5 -31.5t-94 -10q-71 0 -135 18t-107 47l41 67q33 -20 85 -38t117 -18q33 0 61.5 5t49.5 16
t33.5 27.5t12.5 39.5q0 39 -36.5 57.5t-107.5 24.5l-56 5q-91 8 -138.5 45.5t-47.5 103.5q0 39 18 70.5t49.5 53.5t74 33.5t92.5 11.5q74 0 127 -16t96 -40zM1237 847v441l-177 -380h-85l-178 380v-441h-83v553h117l187 -397l186 397h116v-553h-83z" />
    <glyph glyph-name="trademark" unicode="&#x2122;" horiz-adv-x="1348" 
d="M1181 848v441l-177 -380h-85l-178 380v-441h-83v553h117l187 -398l186 398h116v-553h-83zM276 848v476h-192v76h466v-76h-192v-476h-82z" />
    <glyph glyph-name="Omega" unicode="&#x2126;" horiz-adv-x="1718" 
d="M469 116q-74 41 -134 99.5t-103 132t-66.5 160.5t-23.5 185q0 159 54.5 292t151 228.5t227.5 149t284 53.5t284 -53.5t227.5 -149t151 -228.5t54.5 -292q0 -98 -23.5 -185t-66.5 -160.5t-103.5 -132t-133.5 -99.5h385v-116h-588v99q89 28 163 82t127 129.5t82.5 171
t29.5 206.5q0 137 -45.5 249.5t-124.5 192.5t-187 124t-232 44q-125 0 -232.5 -44t-186.5 -124t-124.5 -192.5t-45.5 -249.5q0 -111 29.5 -206.5t83 -171t127 -129.5t162.5 -82v-99h-588v116h385z" />
    <glyph glyph-name="estimated" unicode="&#x212e;" horiz-adv-x="2000" 
d="M438 324q0 -72 20.5 -126.5t77.5 -98.5q96 -74 213.5 -113.5t250.5 -39.5q98 0 189.5 22t171.5 64t147 102t117 136l37 -28q-53 -81 -124.5 -144.5t-156.5 -107.5t-181.5 -67t-199.5 -23q-164 0 -308.5 57.5t-252.5 162.5t-170.5 252.5t-62.5 327.5t62.5 327.5
t170.5 252.5t252.5 162.5t308.5 57.5t308.5 -57.5t252.5 -162.5t170.5 -252.5t62.5 -327.5v-23h-1356v-353zM1570 723v346q0 71 -20.5 126t-75.5 99q-97 78 -217.5 119t-256.5 41q-133 0 -250.5 -39.5t-213.5 -113.5q-57 -44 -77.5 -98.5t-20.5 -126.5v-353h1132z" />
    <glyph glyph-name="uni214D" unicode="&#x214d;" horiz-adv-x="1856" 
d="M810 671h-101l-74 190h-351l-74 -190h-99l293 729h113zM1680 582q-39 26 -96 47t-132 21q-39 0 -72 -8t-57 -23.5t-38 -38.5t-14 -52q0 -50 45 -76.5t133 -37.5l69 -8q108 -14 167.5 -59t59.5 -131q0 -59 -24.5 -101t-65.5 -69.5t-95 -40.5t-114 -13q-90 0 -166.5 24.5
t-127.5 60.5l46 77q41 -27 104 -51.5t145 -24.5q41 0 77 7.5t62.5 23t41.5 39t15 55.5q0 54 -44 79.5t-132 35.5l-73 8q-116 13 -170.5 61.5t-54.5 132.5q0 50 21 90t58.5 68t88.5 43t111 15q92 0 157 -22t116 -54zM317 947h285l-142 367zM615 0h-115l883 1400h115z" />
    <glyph glyph-name="uni2150" unicode="&#x2150;" horiz-adv-x="1654" 
d="M388 0h-115l883 1400h115zM1603 691l-344 -691h-111l343 676h-421v89h533v-74zM378 634h-95v641l-232 -95v94l327 133v-773z" />
    <glyph glyph-name="uni2151" unicode="&#x2151;" horiz-adv-x="1669" 
d="M388 0h-115l883 1400h115zM1405 291q-20 -8 -41.5 -12t-47.5 -4q-59 0 -108 19t-84 52.5t-54.5 78.5t-19.5 97q0 54 21 100.5t58.5 80t88.5 52.5t111 19t111.5 -19t89 -52.5t58.5 -79t21 -99.5q0 -44 -15 -85t-41 -83l-226 -356h-114zM1329 355q39 0 72 12.5t57 35
t38 53.5t14 67t-13.5 66.5t-37.5 53t-57.5 35t-72.5 12.5t-72 -12.5t-57 -34.5t-37.5 -53t-13.5 -67t13.5 -67t37.5 -53.5t57 -35t72 -12.5zM378 634h-95v641l-232 -95v94l327 133v-773z" />
    <glyph glyph-name="uni2152" unicode="&#x2152;" horiz-adv-x="2392" 
d="M388 0h-115l883 1400h115zM1381 0h-95v641l-232 -95v94l327 133v-773zM1968 774q67 0 125.5 -27t102 -77.5t69 -123t25.5 -164.5t-25.5 -164.5t-69 -122.5t-102 -77t-125.5 -27t-125.5 27t-102 77t-69 122.5t-25.5 164.5t25.5 164.5t69 123t102 77.5t125.5 27zM1968 683
q-46 0 -87 -20t-71.5 -58t-48 -94.5t-17.5 -128.5t17.5 -128t48 -94t71.5 -58t87 -20t87 20t71.5 58t48 94t17.5 128t-17.5 128.5t-48 94.5t-71.5 58t-87 20zM378 634h-95v641l-232 -95v94l327 133v-773z" />
    <glyph glyph-name="onethird" unicode="&#x2153;" horiz-adv-x="1641" 
d="M388 0h-115l883 1400h115zM1276 774q58 0 106 -15t82.5 -42.5t53.5 -65.5t19 -84q0 -69 -36.5 -114.5t-96.5 -66.5q68 -20 108.5 -67t40.5 -114q0 -54 -23 -94.5t-60.5 -67t-86.5 -39.5t-101 -13q-80 0 -142 26t-106 72l55 63q36 -35 84 -55t105 -20q35 0 67 8t56.5 25
t39 42.5t14.5 60.5q0 31 -14.5 55.5t-39 41t-57.5 25.5t-70 9h-103v84h103q35 0 65 8.5t52.5 25t35 41.5t12.5 57q0 29 -12.5 52.5t-34.5 40.5t-52.5 26t-67.5 9q-60 0 -104 -24.5t-73 -59.5l-58 60q38 47 97 78.5t142 31.5zM378 634h-95v641l-232 -95v94l327 133v-773z" />
    <glyph glyph-name="twothirds" unicode="&#x2154;" horiz-adv-x="1765" 
d="M513 0h-115l883 1400h115zM1400 774q58 0 106 -15t82.5 -42.5t53.5 -65.5t19 -84q0 -69 -36.5 -114.5t-96.5 -66.5q68 -20 108.5 -67t40.5 -114q0 -54 -23 -94.5t-60.5 -67t-86.5 -39.5t-101 -13q-80 0 -142 26t-106 72l55 63q36 -35 84 -55t105 -20q35 0 67 8t56.5 25
t39 42.5t14.5 60.5q0 31 -14.5 55.5t-39 41t-57.5 25.5t-70 9h-103v84h103q35 0 65 8.5t52.5 25t35 41.5t12.5 57q0 29 -12.5 52.5t-34.5 40.5t-52.5 26t-67.5 9q-60 0 -104 -24.5t-73 -59.5l-58 60q38 47 97 78.5t142 31.5zM66 1279q15 22 37 45t52 41.5t68.5 30.5t88.5 12
q59 0 105 -17.5t77.5 -49t48 -74.5t16.5 -93q0 -69 -30.5 -122.5t-79.5 -102.5l-224 -227h361v-88h-496v74l292 295q35 35 57.5 75t22.5 89q0 31 -10.5 58.5t-31 48t-50 32t-66.5 11.5q-33 0 -59 -8t-47.5 -21.5t-38.5 -31t-31 -36.5z" />
    <glyph glyph-name="uni2155" unicode="&#x2155;" horiz-adv-x="1673" 
d="M388 0h-115l883 1400h115zM1546 678h-341l-7 -217h103q69 0 121.5 -16.5t88 -46.5t53.5 -71t18 -90q0 -57 -20.5 -102.5t-56.5 -77.5t-85.5 -49t-107.5 -17q-83 0 -149 28.5t-114 82.5l57 63q38 -41 91 -64t114 -23q82 0 127.5 42t45.5 110q0 31 -11.5 58t-36.5 47
t-63 31t-92 11h-170l12 388h423v-87zM378 634h-95v641l-232 -95v94l327 133v-773z" />
    <glyph glyph-name="uni2156" unicode="&#x2156;" horiz-adv-x="1798" 
d="M513 0h-115l883 1400h115zM1670 678h-341l-7 -217h103q69 0 121.5 -16.5t88 -46.5t53.5 -71t18 -90q0 -57 -20.5 -102.5t-56.5 -77.5t-85.5 -49t-107.5 -17q-83 0 -149 28.5t-114 82.5l57 63q38 -41 91 -64t114 -23q82 0 127.5 42t45.5 110q0 31 -11.5 58t-36.5 47
t-63 31t-92 11h-170l12 388h423v-87zM66 1279q15 22 37 45t52 41.5t68.5 30.5t88.5 12q59 0 105 -17.5t77.5 -49t48 -74.5t16.5 -93q0 -69 -30.5 -122.5t-79.5 -102.5l-224 -227h361v-88h-496v74l292 295q35 35 57.5 75t22.5 89q0 31 -10.5 58.5t-31 48t-50 32t-66.5 11.5
q-33 0 -59 -8t-47.5 -21.5t-38.5 -31t-31 -36.5z" />
    <glyph glyph-name="uni2157" unicode="&#x2157;" horiz-adv-x="1769" 
d="M484 0h-115l883 1400h115zM1641 678h-341l-7 -217h103q69 0 121.5 -16.5t88 -46.5t53.5 -71t18 -90q0 -57 -20.5 -102.5t-56.5 -77.5t-85.5 -49t-107.5 -17q-83 0 -149 28.5t-114 82.5l57 63q38 -41 91 -64t114 -23q82 0 127.5 42t45.5 110q0 31 -11.5 58t-36.5 47
t-63 31t-92 11h-170l12 388h423v-87zM293 1408q58 0 106 -15t82.5 -42.5t53.5 -65.5t19 -84q0 -69 -36.5 -114.5t-96.5 -66.5q68 -20 108.5 -67t40.5 -114q0 -54 -23 -94.5t-60.5 -67t-86.5 -39.5t-101 -13q-80 0 -142 26t-106 72l55 63q36 -35 84 -55t105 -20q35 0 67 8
t56.5 25t39 42.5t14.5 60.5q0 31 -14.5 55.5t-39 41t-57.5 25.5t-70 9h-103v84h103q35 0 65 8.5t52.5 25t35 41.5t12.5 57q0 29 -12.5 52.5t-34.5 40.5t-52.5 26t-67.5 9q-60 0 -104 -24.5t-73 -59.5l-58 60q38 47 97 78.5t142 31.5z" />
    <glyph glyph-name="uni2158" unicode="&#x2158;" horiz-adv-x="1781" 
d="M496 0h-115l883 1400h115zM1653 678h-341l-7 -217h103q69 0 121.5 -16.5t88 -46.5t53.5 -71t18 -90q0 -57 -20.5 -102.5t-56.5 -77.5t-85.5 -49t-107.5 -17q-83 0 -149 28.5t-114 82.5l57 63q38 -41 91 -64t114 -23q82 0 127.5 42t45.5 110q0 31 -11.5 58t-36.5 47
t-63 31t-92 11h-170l12 388h423v-87zM501 878h128v-87h-128v-157h-95v157h-365v69l274 538h104l-266 -520h253v217h95v-217z" />
    <glyph glyph-name="uni2159" unicode="&#x2159;" horiz-adv-x="1588" 
d="M388 0h-115l883 1400h115zM1165 473q40 17 91 17q59 0 108 -19t84 -52.5t54.5 -78.5t19.5 -97q0 -54 -21 -100.5t-58 -80t-88.5 -52.5t-111.5 -19t-111.5 19t-89 52.5t-58.5 79t-21 99.5q0 45 15 85t41 82l226 357h114zM1243 410q-39 0 -72.5 -12.5t-57.5 -35
t-37.5 -53.5t-13.5 -67t13.5 -66.5t37.5 -53t57.5 -35t72.5 -12.5t72 12.5t57 34.5t37.5 53t13.5 67t-13.5 67t-37.5 53.5t-57 35t-72 12.5zM378 634h-95v641l-232 -95v94l327 133v-773z" />
    <glyph glyph-name="uni215A" unicode="&#x215a;" horiz-adv-x="1711" 
d="M512 0h-115l883 1400h115zM1288 473q40 17 91 17q59 0 108 -19t84 -52.5t54.5 -78.5t19.5 -97q0 -54 -21 -100.5t-58 -80t-88.5 -52.5t-111.5 -19t-111.5 19t-89 52.5t-58.5 79t-21 99.5q0 45 15 85t41 82l226 357h114zM1366 410q-39 0 -72.5 -12.5t-57.5 -35
t-37.5 -53.5t-13.5 -67t13.5 -66.5t37.5 -53t57.5 -35t72.5 -12.5t72 12.5t57 34.5t37.5 53t13.5 67t-13.5 67t-37.5 53.5t-57 35t-72 12.5zM563 1312h-341l-7 -217h103q69 0 121.5 -16.5t88 -46.5t53.5 -71t18 -90q0 -57 -20.5 -102.5t-56.5 -77.5t-85.5 -49t-107.5 -17
q-83 0 -149 28.5t-114 82.5l57 63q38 -41 91 -64t114 -23q82 0 127.5 42t45.5 110q0 31 -11.5 58t-36.5 47t-63 31t-92 11h-170l12 388h423v-87z" />
    <glyph glyph-name="oneeighth" unicode="&#x215b;" horiz-adv-x="1710" 
d="M388 0h-115l883 1400h115zM1334 774q55 0 104.5 -14t86 -40t58 -65t21.5 -88q0 -36 -11 -64.5t-30 -50.5t-44.5 -38.5t-55.5 -26.5q33 -10 62.5 -26t51 -39t34 -52.5t12.5 -66.5q0 -51 -23 -90.5t-62.5 -66.5t-92 -41t-111.5 -14q-60 0 -113 14t-92 41t-62 66.5t-23 90.5
q0 37 12.5 66.5t34 52.5t51 39t62.5 26q-30 10 -55.5 26.5t-44.5 38.5t-30 50.5t-11 64.5q0 49 21.5 88t58 65t86 40t105.5 14zM1334 349q-39 0 -73 -9t-59.5 -26t-40.5 -43t-15 -59q0 -35 15 -61t40.5 -43.5t59.5 -26.5t73 -9q38 0 72 9t59.5 26.5t40.5 43.5t15 61
q0 33 -15 59t-40.5 43t-59.5 26t-72 9zM1334 691q-35 0 -66 -8.5t-54 -25t-36.5 -41.5t-13.5 -57q0 -33 13.5 -58t36.5 -41.5t54 -25t66 -8.5t66 8.5t54 25t36.5 41.5t13.5 58q0 32 -13.5 57t-36.5 41.5t-54 25t-66 8.5zM378 634h-95v641l-232 -95v94l327 133v-773z" />
    <glyph glyph-name="threeeighths" unicode="&#x215c;" horiz-adv-x="1805" 
d="M484 0h-115l883 1400h115zM1429 774q55 0 104.5 -14t86 -40t58 -65t21.5 -88q0 -36 -11 -64.5t-30 -50.5t-44.5 -38.5t-55.5 -26.5q33 -10 62.5 -26t51 -39t34 -52.5t12.5 -66.5q0 -51 -23 -90.5t-62.5 -66.5t-92 -41t-111.5 -14q-60 0 -113 14t-92 41t-62 66.5t-23 90.5
q0 37 12.5 66.5t34 52.5t51 39t62.5 26q-30 10 -55.5 26.5t-44.5 38.5t-30 50.5t-11 64.5q0 49 21.5 88t58 65t86 40t105.5 14zM1429 349q-39 0 -73 -9t-59.5 -26t-40.5 -43t-15 -59q0 -35 15 -61t40.5 -43.5t59.5 -26.5t73 -9q38 0 72 9t59.5 26.5t40.5 43.5t15 61
q0 33 -15 59t-40.5 43t-59.5 26t-72 9zM1429 691q-35 0 -66 -8.5t-54 -25t-36.5 -41.5t-13.5 -57q0 -33 13.5 -58t36.5 -41.5t54 -25t66 -8.5t66 8.5t54 25t36.5 41.5t13.5 58q0 32 -13.5 57t-36.5 41.5t-54 25t-66 8.5zM293 1408q58 0 106 -15t82.5 -42.5t53.5 -65.5
t19 -84q0 -69 -36.5 -114.5t-96.5 -66.5q68 -20 108.5 -67t40.5 -114q0 -54 -23 -94.5t-60.5 -67t-86.5 -39.5t-101 -13q-80 0 -142 26t-106 72l55 63q36 -35 84 -55t105 -20q35 0 67 8t56.5 25t39 42.5t14.5 60.5q0 31 -14.5 55.5t-39 41t-57.5 25.5t-70 9h-103v84h103
q35 0 65 8.5t52.5 25t35 41.5t12.5 57q0 29 -12.5 52.5t-34.5 40.5t-52.5 26t-67.5 9q-60 0 -104 -24.5t-73 -59.5l-58 60q38 47 97 78.5t142 31.5z" />
    <glyph glyph-name="fiveeighths" unicode="&#x215d;" horiz-adv-x="1833" 
d="M512 0h-115l883 1400h115zM1457 774q55 0 104.5 -14t86 -40t58 -65t21.5 -88q0 -36 -11 -64.5t-30 -50.5t-44.5 -38.5t-55.5 -26.5q33 -10 62.5 -26t51 -39t34 -52.5t12.5 -66.5q0 -51 -23 -90.5t-62.5 -66.5t-92 -41t-111.5 -14q-60 0 -113 14t-92 41t-62 66.5t-23 90.5
q0 37 12.5 66.5t34 52.5t51 39t62.5 26q-30 10 -55.5 26.5t-44.5 38.5t-30 50.5t-11 64.5q0 49 21.5 88t58 65t86 40t105.5 14zM1457 349q-39 0 -73 -9t-59.5 -26t-40.5 -43t-15 -59q0 -35 15 -61t40.5 -43.5t59.5 -26.5t73 -9q38 0 72 9t59.5 26.5t40.5 43.5t15 61
q0 33 -15 59t-40.5 43t-59.5 26t-72 9zM1457 691q-35 0 -66 -8.5t-54 -25t-36.5 -41.5t-13.5 -57q0 -33 13.5 -58t36.5 -41.5t54 -25t66 -8.5t66 8.5t54 25t36.5 41.5t13.5 58q0 32 -13.5 57t-36.5 41.5t-54 25t-66 8.5zM563 1312h-341l-7 -217h103q69 0 121.5 -16.5
t88 -46.5t53.5 -71t18 -90q0 -57 -20.5 -102.5t-56.5 -77.5t-85.5 -49t-107.5 -17q-83 0 -149 28.5t-114 82.5l57 63q38 -41 91 -64t114 -23q82 0 127.5 42t45.5 110q0 31 -11.5 58t-36.5 47t-63 31t-92 11h-170l12 388h423v-87z" />
    <glyph glyph-name="seveneighths" unicode="&#x215e;" horiz-adv-x="1678" 
d="M356 0h-115l883 1400h115zM1301 774q55 0 104.5 -14t86 -40t58 -65t21.5 -88q0 -36 -11 -64.5t-30 -50.5t-44.5 -38.5t-55.5 -26.5q33 -10 62.5 -26t51 -39t34 -52.5t12.5 -66.5q0 -51 -23 -90.5t-62.5 -66.5t-92 -41t-111.5 -14q-60 0 -113 14t-92 41t-62 66.5t-23 90.5
q0 37 12.5 66.5t34 52.5t51 39t62.5 26q-30 10 -55.5 26.5t-44.5 38.5t-30 50.5t-11 64.5q0 49 21.5 88t58 65t86 40t105.5 14zM1301 349q-39 0 -73 -9t-59.5 -26t-40.5 -43t-15 -59q0 -35 15 -61t40.5 -43.5t59.5 -26.5t73 -9q38 0 72 9t59.5 26.5t40.5 43.5t15 61
q0 33 -15 59t-40.5 43t-59.5 26t-72 9zM1301 691q-35 0 -66 -8.5t-54 -25t-36.5 -41.5t-13.5 -57q0 -33 13.5 -58t36.5 -41.5t54 -25t66 -8.5t66 8.5t54 25t36.5 41.5t13.5 58q0 32 -13.5 57t-36.5 41.5t-54 25t-66 8.5zM594 1325l-344 -691h-111l343 676h-421v89h533v-74z
" />
    <glyph glyph-name="uni215F" unicode="&#x215f;" horiz-adv-x="983" 
d="M388 0h-115l883 1400h115zM378 634h-95v641l-232 -95v94l327 133v-773z" />
    <glyph glyph-name="uni2189" unicode="&#x2189;" horiz-adv-x="1876" 
d="M624 0h-115l883 1400h115zM1512 774q58 0 106 -15t82.5 -42.5t53.5 -65.5t19 -84q0 -69 -36.5 -114.5t-96.5 -66.5q68 -20 108.5 -67t40.5 -114q0 -54 -23 -94.5t-60.5 -67t-86.5 -39.5t-101 -13q-80 0 -142 26t-106 72l55 63q36 -35 84 -55t105 -20q35 0 67 8t56.5 25
t39 42.5t14.5 60.5q0 31 -14.5 55.5t-39 41t-57.5 25.5t-70 9h-103v84h103q35 0 65 8.5t52.5 25t35 41.5t12.5 57q0 29 -12.5 52.5t-34.5 40.5t-52.5 26t-67.5 9q-60 0 -104 -24.5t-73 -59.5l-58 60q38 47 97 78.5t142 31.5zM424 1408q67 0 125.5 -27t102 -77.5t69 -123
t25.5 -164.5t-25.5 -164.5t-69 -122.5t-102 -77t-125.5 -27t-125.5 27t-102 77t-69 122.5t-25.5 164.5t25.5 164.5t69 123t102 77.5t125.5 27zM424 1317q-46 0 -87 -20t-71.5 -58t-48 -94.5t-17.5 -128.5t17.5 -128t48 -94t71.5 -58t87 -20t87 20t71.5 58t48 94t17.5 128
t-17.5 128.5t-48 94.5t-71.5 58t-87 20z" />
    <glyph glyph-name="arrowleft" unicode="&#x2190;" horiz-adv-x="2000" 
d="M538 595q-15 0 -32.5 0.5t-37.5 1t-46 2.5q38 -32 75.5 -67.5t68.5 -66.5l356 -356l-73 -73l-610 610l610 611l73 -73l-356 -356q-31 -31 -68.5 -67t-75.5 -67q26 1 46 2t37.5 1.5t32.5 0.5h1224v-103h-1224z" />
    <glyph glyph-name="arrowup" unicode="&#x2191;" horiz-adv-x="2000" 
d="M949 1166q0 16 0.5 33t1 37t2.5 46q-32 -38 -67.5 -75.5t-66.5 -68.5l-356 -356l-73 73l610 610l611 -610l-73 -73l-356 356q-31 31 -66.5 68.5t-67.5 75.5q1 -26 2 -46t1.5 -37t0.5 -33v-1224h-103v1224z" />
    <glyph glyph-name="arrowright" unicode="&#x2192;" horiz-adv-x="2000" 
d="M1462 698q16 0 33.5 -0.5t37.5 -1.5t46 -3q-39 32 -76 68t-68 66l-357 356l73 73l611 -610l-611 -611l-73 73l357 357q30 30 67.5 66t76.5 67q-26 -2 -46 -2.5t-37.5 -1t-33.5 -0.5h-1223v104h1223z" />
    <glyph glyph-name="arrowdown" unicode="&#x2193;" horiz-adv-x="2000" 
d="M1052 239q0 -15 -0.5 -32.5t-1.5 -37.5t-2 -46q31 38 66.5 75.5t66.5 68.5l356 357l74 -74l-611 -610l-611 610l74 74l356 -357q31 -31 66.5 -68.5t66.5 -75.5q-2 26 -2.5 46t-1 37.5t-0.5 32.5v1224h104v-1224z" />
    <glyph glyph-name="uni2196" unicode="&#x2196;" horiz-adv-x="2000" 
d="M641 921q-23 24 -45.5 46.5t-56.5 60.5q5 -49 6 -100.5t1 -95.5v-504h-103v864h864v-104h-504q-44 0 -95.5 1.5t-101.5 6.5q19 -17 34 -31t27.5 -26t23.5 -22.5t23 -22.5l843 -843l-74 -73z" />
    <glyph glyph-name="uni2197" unicode="&#x2197;" horiz-adv-x="2000" 
d="M1314 1033q12 12 27 25.5t34 30.5q-49 -5 -100.5 -6.5t-95.5 -1.5h-504v104l864 -1v-863h-104v504q0 44 1.5 95.5t6.5 100.5q-17 -19 -31 -34t-26 -27t-22.5 -23t-22.5 -23l-843 -843l-73 73z" />
    <glyph glyph-name="uni2198" unicode="&#x2198;" horiz-adv-x="2000" 
d="M1341 378q12 -12 22.5 -23t22.5 -23.5t26 -27t31 -33.5q-5 49 -6 101t-1 96v503h103v-863l-864 -1v104h504q44 0 95.5 -1t101.5 -7q-39 35 -62 57t-46 45l-843 843l74 73z" />
    <glyph glyph-name="uni2199" unicode="&#x2199;" horiz-adv-x="2000" 
d="M715 297q-24 -23 -46.5 -45t-60.5 -56q49 5 100.5 6t95.5 1h504v-104l-864 1v863h104v-504q0 -44 -1.5 -95t-6.5 -101q34 39 56 61l889 889l73 -73z" />
    <glyph glyph-name="partialdiff" unicode="&#x2202;" horiz-adv-x="1181" 
d="M329 1449q174 -75 300.5 -174t213 -212t137.5 -237t73 -248q4 -23 7 -48.5t3 -52.5q0 -105 -37.5 -195t-103 -156t-155 -103.5t-194.5 -37.5q-104 0 -193.5 36.5t-155 100.5t-102.5 151.5t-37 189.5q0 103 36 190.5t99 152t148.5 101t185.5 36.5q106 0 194 -46.5
t147 -128.5q-33 88 -86.5 170t-129.5 156t-175.5 140t-225.5 123zM573 836q-79 0 -147 -28t-117.5 -77.5t-78 -118t-28.5 -149.5t28.5 -149t78 -117.5t117.5 -77t147 -27.5t147.5 27.5t118.5 77t78.5 117.5t28.5 149t-28.5 149.5t-78.5 118t-118.5 77.5t-147.5 28z" />
    <glyph glyph-name="uni2300" unicode="&#x2205;" horiz-adv-x="1414" 
d="M1204 944l-131 -131q48 -61 75.5 -135.5t27.5 -157.5q0 -97 -37 -182.5t-101 -149t-149 -100.5t-182 -37q-84 0 -158.5 27t-134.5 76l-132 -132l-73 74l131 131q-48 60 -75.5 134.5t-27.5 158.5q0 97 37 182.5t100.5 149.5t149 101t183.5 37q83 0 157.5 -27.5
t134.5 -76.5l132 132zM340 520q0 -63 20 -120t56 -104l515 514q-47 36 -104 56.5t-120 20.5q-76 0 -143 -29t-116.5 -79t-78.5 -116.5t-29 -142.5zM707 154q75 0 142 29t116.5 78.5t78.5 116t29 142.5q0 63 -20.5 119.5t-55.5 103.5l-514 -514q47 -35 104 -55t120 -20z" />
    <glyph glyph-name="uni2300" unicode="&#x2300;" horiz-adv-x="1414" 
d="M1204 944l-131 -131q48 -61 75.5 -135.5t27.5 -157.5q0 -97 -37 -182.5t-101 -149t-149 -100.5t-182 -37q-84 0 -158.5 27t-134.5 76l-132 -132l-73 74l131 131q-48 60 -75.5 134.5t-27.5 158.5q0 97 37 182.5t100.5 149.5t149 101t183.5 37q83 0 157.5 -27.5
t134.5 -76.5l132 132zM340 520q0 -63 20 -120t56 -104l515 514q-47 36 -104 56.5t-120 20.5q-76 0 -143 -29t-116.5 -79t-78.5 -116.5t-29 -142.5zM707 154q75 0 142 29t116.5 78.5t78.5 116t29 142.5q0 63 -20.5 119.5t-55.5 103.5l-514 -514q47 -35 104 -55t120 -20z" />
    <glyph glyph-name="Delta" unicode="&#x2206;" horiz-adv-x="1419" 
d="M1335 95v-95h-1251v95l551 1307h149zM221 116h976l-487 1161z" />
    <glyph glyph-name="product" unicode="&#x220f;" horiz-adv-x="1455" 
d="M1245 -265h-122v1549h-792v-1549h-122v1665h1036v-1665z" />
    <glyph glyph-name="summation" unicode="&#x2211;" horiz-adv-x="1317" 
d="M1189 1284h-882l584 -671v-68l-587 -694h888v-116h-1066v95l636 746l-634 729v95h1061v-116z" />
    <glyph glyph-name="minus" unicode="&#x2212;" horiz-adv-x="1200" 
d="M1026 475h-852v103h852v-103z" />
    <glyph glyph-name="uni2219" unicode="&#x2219;" horiz-adv-x="1200" 
d="M600 718q39 0 73.5 -15t61 -41t41.5 -60.5t15 -74.5q0 -39 -15 -74t-41.5 -61t-61 -41t-73.5 -15q-40 0 -75 15t-60.5 41t-40.5 61t-15 74q0 40 15 74.5t40.5 60.5t60.5 41t75 15z" />
    <glyph glyph-name="radical" unicode="&#x221a;" horiz-adv-x="1222" 
d="M595 -265h-151l-410 1000h135l350 -856l538 1561h125z" />
    <glyph glyph-name="infinity" unicode="&#x221e;" horiz-adv-x="1608" 
d="M55 520q0 84 27.5 151t74.5 114t109 72t131 25q58 0 107.5 -21t97.5 -59t97 -90t105 -115q56 63 105 115.5t97 90t97.5 58.5t107.5 21q69 0 131 -25t109 -72t74.5 -114t27.5 -151t-27.5 -151t-74.5 -114t-109 -72t-131 -25q-58 0 -107.5 21t-97.5 58.5t-97 90t-105 115.5
q-56 -63 -105 -115.5t-97 -90t-97.5 -58.5t-107.5 -21q-69 0 -131 25t-109 72t-74.5 114t-27.5 151zM1445 520q0 61 -18.5 109t-50.5 81t-74.5 50.5t-90.5 17.5q-40 0 -76 -16.5t-75 -49t-84 -80.5t-102 -112h1l-1 -1q57 -63 102 -111.5t84 -80.5t75 -48.5t76 -16.5
q48 0 90.5 17t74.5 50t50.5 81t18.5 110zM164 520q0 -62 18.5 -110t50 -81t74 -50t90.5 -17q40 0 76.5 16.5t75 48.5t83 80.5t101.5 111.5v1q-57 64 -101.5 112t-83 80.5t-75 49t-76.5 16.5q-48 0 -90.5 -17.5t-74 -50.5t-50 -81t-18.5 -109z" />
    <glyph glyph-name="integral" unicode="&#x222b;" horiz-adv-x="680" 
d="M630 1300q-37 8 -72 8q-102 0 -146 -60.5t-44 -169.5v-1021q0 -74 -16.5 -136t-52 -106.5t-91.5 -69.5t-136 -25q-59 0 -110 12l30 103q18 -4 35.5 -6t37.5 -2q101 0 145.5 60t44.5 170v1021q0 74 16.5 136t52 106.5t91.5 69.5t136 25q59 0 110 -12z" />
    <glyph glyph-name="congruent" unicode="&#x2245;" horiz-adv-x="1200" 
d="M1026 299h-852v104h852v-104zM1026 651h-852v103h852v-103zM1036 1077q-52 -58 -111.5 -86.5t-142.5 -28.5q-45 0 -79.5 6.5t-63.5 17t-54 22t-51 22t-56.5 17t-68.5 6.5q-56 0 -98.5 -22.5t-85.5 -66.5l-63 72q52 58 111.5 86.5t142.5 28.5q46 0 80.5 -6.5t63 -17
t53.5 -22t51.5 -22t56 -17t68.5 -6.5q28 0 52 5.5t46 17t43 28t43 38.5z" />
    <glyph glyph-name="approxequal" unicode="&#x2248;" horiz-adv-x="1200" 
d="M1036 723q-52 -58 -111.5 -86.5t-142.5 -28.5q-45 0 -79.5 6.5t-63.5 17t-54 22t-51 22t-56.5 17t-68.5 6.5q-56 0 -98.5 -22.5t-85.5 -66.5l-63 72q52 58 111.5 86.5t142.5 28.5q46 0 80.5 -6.5t63 -17t53.5 -22t51.5 -22t56 -17t68.5 -6.5q28 0 52 5.5t46 17t43 28
t43 38.5zM1036 375q-52 -58 -111.5 -86.5t-142.5 -28.5q-45 0 -79.5 6.5t-63.5 17t-54 22t-51 22t-56.5 17t-68.5 6.5q-56 0 -98.5 -22.5t-85.5 -66.5l-63 72q52 58 111.5 86.5t142.5 28.5q46 0 80.5 -6.5t63 -17t53.5 -22t51.5 -22t56 -17t68.5 -6.5q28 0 52 5.5t46 17
t43 28t43 38.5z" />
    <glyph glyph-name="uni2259" unicode="&#x2259;" horiz-adv-x="1200" 
d="M1026 299h-852v104h852v-104zM1026 651h-852v103h852v-103zM800 938l-200 205l-200 -205h-123l248 282h150l248 -282h-123z" />
    <glyph glyph-name="notequal" unicode="&#x2260;" horiz-adv-x="1200" 
d="M1026 299h-483l-127 -261h-109l127 261h-260v104h311l121 248h-432v103h482l128 261h109l-128 -261h261v-103h-311l-121 -248h432v-104z" />
    <glyph glyph-name="lessequal" unicode="&#x2264;" horiz-adv-x="1200" 
d="M986 962l-651 -278l651 -277v-121l-770 342v113l770 342v-121zM216 176h770v-104h-770v104z" />
    <glyph glyph-name="greaterequal" unicode="&#x2265;" horiz-adv-x="1200" 
d="M215 1083l770 -342v-113l-770 -342v121l651 277l-651 278v121zM985 72h-770v104h770v-104z" />
    <glyph glyph-name="dotmath" unicode="&#x22c5;" horiz-adv-x="1200" 
d="M600 623q19 0 36.5 -7.5t30.5 -21t20.5 -31t7.5 -36.5t-7.5 -36.5t-20.5 -30.5t-30.5 -21t-36.5 -8t-36.5 8t-30.5 21t-21 30.5t-8 36.5t8 36.5t21 31t30.5 21t36.5 7.5z" />
    <glyph glyph-name="uni2460" unicode="&#x2460;" horiz-adv-x="2050" 
d="M1025 1575q121 0 233.5 -31.5t210 -88t177.5 -136.5t137 -177t88.5 -209t31.5 -232q0 -121 -31.5 -232.5t-88.5 -209t-137 -177.5t-177.5 -137t-210 -88.5t-233.5 -31.5t-233.5 31.5t-210 88.5t-177.5 137t-137 177.5t-88.5 209t-31.5 232.5q0 120 31.5 232t88.5 209
t137 177t177.5 136.5t210 88t233.5 31.5zM1025 1469q-106 0 -204 -27.5t-183.5 -77.5t-155.5 -120t-120 -155t-77.5 -183.5t-27.5 -204.5t27.5 -204.5t77.5 -184t120 -156t155.5 -120.5t183.5 -77.5t204 -27.5t204 27.5t183.5 77.5t156 120.5t120.5 156t77.5 184t27.5 204.5
t-27.5 204.5t-77.5 183.5t-120.5 155t-156 120t-183.5 77.5t-204 27.5zM1129 294h-101v707l-279 -114v101l380 153v-847z" />
    <glyph glyph-name="uni2461" unicode="&#x2461;" horiz-adv-x="2050" 
d="M1025 1575q121 0 233.5 -31.5t210 -88t177.5 -136.5t137 -177t88.5 -209t31.5 -232q0 -121 -31.5 -232.5t-88.5 -209t-137 -177.5t-177.5 -137t-210 -88.5t-233.5 -31.5t-233.5 31.5t-210 88.5t-177.5 137t-137 177.5t-88.5 209t-31.5 232.5q0 120 31.5 232t88.5 209
t137 177t177.5 136.5t210 88t233.5 31.5zM1025 1469q-106 0 -204 -27.5t-183.5 -77.5t-155.5 -120t-120 -155t-77.5 -183.5t-27.5 -204.5t27.5 -204.5t77.5 -184t120 -156t155.5 -120.5t183.5 -77.5t204 -27.5t204 27.5t183.5 77.5t156 120.5t120.5 156t77.5 184t27.5 204.5
t-27.5 204.5t-77.5 183.5t-120.5 155t-156 120t-183.5 77.5t-204 27.5zM747 1001q17 24 41 49.5t57 45.5t76 33t97 13q65 0 116 -19.5t86.5 -54t54 -81.5t18.5 -102q0 -39 -10 -73t-27 -64t-39.5 -57t-47.5 -52l-251 -251h403v-94h-549v79l326 324q39 39 64 83t25 98
q0 35 -12 65.5t-34.5 53t-55.5 35.5t-75 13q-36 0 -65.5 -9t-53.5 -23.5t-42.5 -34t-33.5 -40.5z" />
    <glyph glyph-name="uni2462" unicode="&#x2462;" horiz-adv-x="2050" 
d="M1025 1575q121 0 233.5 -31.5t210 -88t177.5 -136.5t137 -177t88.5 -209t31.5 -232q0 -121 -31.5 -232.5t-88.5 -209t-137 -177.5t-177.5 -137t-210 -88.5t-233.5 -31.5t-233.5 31.5t-210 88.5t-177.5 137t-137 177.5t-88.5 209t-31.5 232.5q0 120 31.5 232t88.5 209
t137 177t177.5 136.5t210 88t233.5 31.5zM1025 1469q-106 0 -204 -27.5t-183.5 -77.5t-155.5 -120t-120 -155t-77.5 -183.5t-27.5 -204.5t27.5 -204.5t77.5 -184t120 -156t155.5 -120.5t183.5 -77.5t204 -27.5t204 27.5t183.5 77.5t156 120.5t120.5 156t77.5 184t27.5 204.5
t-27.5 204.5t-77.5 183.5t-120.5 155t-156 120t-183.5 77.5t-204 27.5zM1009 1142q66 0 121 -16.5t94.5 -46.5t61 -71.5t21.5 -91.5q0 -78 -42.5 -128.5t-113.5 -71.5q78 -22 126 -72.5t48 -124.5q0 -60 -26 -104.5t-69 -73.5t-98.5 -43.5t-115.5 -14.5q-87 0 -157.5 28.5
t-118.5 78.5l59 67q41 -39 95.5 -61.5t117.5 -22.5q41 0 79 9.5t66.5 28t45.5 47t17 67.5q0 35 -16.5 62.5t-44.5 46.5t-66 29t-81 10h-118v89h118q40 0 75 9.5t60.5 27.5t40 45.5t14.5 63.5q0 32 -14.5 58.5t-40.5 45t-62.5 29t-79.5 10.5q-66 0 -116.5 -27.5t-82.5 -65.5
l-63 65q42 51 109 85t157 34z" />
    <glyph glyph-name="uni2463" unicode="&#x2463;" horiz-adv-x="2050" 
d="M1025 1575q121 0 233.5 -31.5t210 -88t177.5 -136.5t137 -177t88.5 -209t31.5 -232q0 -121 -31.5 -232.5t-88.5 -209t-137 -177.5t-177.5 -137t-210 -88.5t-233.5 -31.5t-233.5 31.5t-210 88.5t-177.5 137t-137 177.5t-88.5 209t-31.5 232.5q0 120 31.5 232t88.5 209
t137 177t177.5 136.5t210 88t233.5 31.5zM1025 1469q-106 0 -204 -27.5t-183.5 -77.5t-155.5 -120t-120 -155t-77.5 -183.5t-27.5 -204.5t27.5 -204.5t77.5 -184t120 -156t155.5 -120.5t183.5 -77.5t204 -27.5t204 27.5t183.5 77.5t156 120.5t120.5 156t77.5 184t27.5 204.5
t-27.5 204.5t-77.5 183.5t-120.5 155t-156 120t-183.5 77.5t-204 27.5zM1191 562h144v-95h-144v-173h-101v173h-408v73l305 592h112l-295 -570h286v236h101v-236z" />
    <glyph glyph-name="uni2464" unicode="&#x2464;" horiz-adv-x="2050" 
d="M1025 1575q121 0 233.5 -31.5t210 -88t177.5 -136.5t137 -177t88.5 -209t31.5 -232q0 -121 -31.5 -232.5t-88.5 -209t-137 -177.5t-177.5 -137t-210 -88.5t-233.5 -31.5t-233.5 31.5t-210 88.5t-177.5 137t-137 177.5t-88.5 209t-31.5 232.5q0 120 31.5 232t88.5 209
t137 177t177.5 136.5t210 88t233.5 31.5zM1025 1469q-106 0 -204 -27.5t-183.5 -77.5t-155.5 -120t-120 -155t-77.5 -183.5t-27.5 -204.5t27.5 -204.5t77.5 -184t120 -156t155.5 -120.5t183.5 -77.5t204 -27.5t204 27.5t183.5 77.5t156 120.5t120.5 156t77.5 184t27.5 204.5
t-27.5 204.5t-77.5 183.5t-120.5 155t-156 120t-183.5 77.5t-204 27.5zM1287 1039h-378l-10 -241h116q155 0 234 -68t79 -183q0 -60 -22.5 -109t-62.5 -83.5t-95 -53t-120 -18.5q-91 0 -164.5 32t-125.5 90l55 73q41 -46 102 -73.5t133 -27.5q46 0 82 12t61 33.5t38 51.5
t13 66q0 78 -55 123t-179 45h-181l12 425h468v-94z" />
    <glyph glyph-name="uni2465" unicode="&#x2465;" horiz-adv-x="2050" 
d="M1025 1575q121 0 233.5 -31.5t210 -88t177.5 -136.5t137 -177t88.5 -209t31.5 -232q0 -121 -31.5 -232.5t-88.5 -209t-137 -177.5t-177.5 -137t-210 -88.5t-233.5 -31.5t-233.5 31.5t-210 88.5t-177.5 137t-137 177.5t-88.5 209t-31.5 232.5q0 120 31.5 232t88.5 209
t137 177t177.5 136.5t210 88t233.5 31.5zM1025 1469q-106 0 -204 -27.5t-183.5 -77.5t-155.5 -120t-120 -155t-77.5 -183.5t-27.5 -204.5t27.5 -204.5t77.5 -184t120 -156t155.5 -120.5t183.5 -77.5t204 -27.5t204 27.5t183.5 77.5t156 120.5t120.5 156t77.5 184t27.5 204.5
t-27.5 204.5t-77.5 183.5t-120.5 155t-156 120t-183.5 77.5t-204 27.5zM933 812q49 19 101 19q65 0 119 -21t92.5 -57.5t60 -86t21.5 -106.5q0 -60 -23 -110.5t-64 -87.5t-97 -58t-122 -21t-123 21t-98 57.5t-64.5 87t-23.5 109.5q0 48 15.5 92t44.5 89l251 394h122z
M1021 744q-44 0 -81 -14t-64 -39t-42.5 -58.5t-15.5 -73.5t15.5 -74t42.5 -58.5t64 -38.5t81 -14q43 0 80 14t64 38.5t42 58.5t15 74t-15 73.5t-42 58.5t-64 39t-80 14z" />
    <glyph glyph-name="uni2466" unicode="&#x2466;" horiz-adv-x="2050" 
d="M1025 1575q121 0 233.5 -31.5t210 -88t177.5 -136.5t137 -177t88.5 -209t31.5 -232q0 -121 -31.5 -232.5t-88.5 -209t-137 -177.5t-177.5 -137t-210 -88.5t-233.5 -31.5t-233.5 31.5t-210 88.5t-177.5 137t-137 177.5t-88.5 209t-31.5 232.5q0 120 31.5 232t88.5 209
t137 177t177.5 136.5t210 88t233.5 31.5zM1025 1469q-106 0 -204 -27.5t-183.5 -77.5t-155.5 -120t-120 -155t-77.5 -183.5t-27.5 -204.5t27.5 -204.5t77.5 -184t120 -156t155.5 -120.5t183.5 -77.5t204 -27.5t204 27.5t183.5 77.5t156 120.5t120.5 156t77.5 184t27.5 204.5
t-27.5 204.5t-77.5 183.5t-120.5 155t-156 120t-183.5 77.5t-204 27.5zM1349 1053l-382 -759h-120l382 744h-470v95h590v-80z" />
    </font>
</defs>
</svg>
